<svg width="260" height="156" viewBox="0 0 260 156" fill="none" xmlns="http://www.w3.org/2000/svg">
<path d="M142.782 128.533C142.685 128.434 142.627 128.3 142.619 128.159C142.611 128.017 142.655 127.877 142.741 127.766C143.142 127.196 143.5 126.597 143.881 126.008C143.908 125.963 143.945 125.894 143.989 125.883C144.735 125.693 144.76 124.882 145.152 124.321L145.969 124.571L146.025 124.478C145.886 124.345 145.733 124.209 145.532 124.018C146.152 123.335 146.764 122.668 147.368 121.992C147.687 121.66 147.982 121.305 148.251 120.93C148.585 120.439 148.558 120.422 149.148 120.665C149.11 120.373 148.792 120.014 149.378 119.896C149.555 119.861 149.674 119.496 149.814 119.265C150.066 118.888 150.388 118.569 150.761 118.325C151.069 118.045 151.361 117.746 151.635 117.43C152.138 116.957 152.677 116.523 153.171 116.042C153.94 115.287 154.845 114.716 155.614 113.946C156.382 113.177 157.32 112.599 158.207 111.946C158.271 111.898 158.405 111.912 158.431 111.856C158.844 111.042 159.628 110.743 160.339 110.346C160.5 110.259 160.624 110.112 160.687 109.934C160.749 109.757 160.747 109.562 160.679 109.387C160.272 108.047 160.134 106.639 159.521 105.357C159.202 104.685 159.115 103.9 158.654 103.268C158.247 102.744 157.963 102.128 157.825 101.468C157.798 101.321 157.637 101.092 157.555 101.098C156.913 101.103 156.779 100.424 156.333 100.167C155.767 99.8452 155.391 99.366 155.783 98.5033L155.09 98.8382C154.944 97.7666 154.303 97.1984 153.486 96.7723C153.204 96.6041 152.932 96.4167 152.674 96.2114C152.396 96.4026 152.639 97.3061 151.834 96.7468C151.998 97.4513 152.029 98.0397 151.54 98.5335C151.422 98.6526 151.449 98.9422 151.433 99.1554C151.414 99.4007 151.415 99.6473 151.439 99.8921C151.471 100.176 150.857 100.184 151.184 100.567C150.531 100.624 151.134 100.996 151.042 101.206C150.755 101.833 150.477 102.469 150.238 103.118C149.959 103.886 149.722 104.668 149.459 105.44C149.387 105.711 149.282 105.971 149.146 106.215C148.891 106.663 148.678 107.135 148.51 107.626C148.291 108.122 148.057 108.621 147.855 109.132C147.654 109.643 147.536 110.159 147.38 110.673C147.354 110.754 147.321 110.833 147.282 110.908C146.657 112.141 146.03 113.382 145.342 114.578C145.117 114.963 144.92 115.365 144.755 115.781C144.587 116.204 144.169 116.505 144.124 117.039C144.115 117.191 143.903 117.354 143.738 117.462C143.517 117.589 143.41 117.704 143.494 117.992C143.597 118.384 143.095 118.397 143.044 118.8C142.993 119.204 142.573 119.512 142.318 119.867C142.211 119.987 142.125 120.126 142.062 120.276C141.864 120.964 141.411 121.5 141.048 122.087C140.298 123.291 139.534 124.485 138.758 125.671C138.562 125.935 138.347 126.184 138.114 126.414C137.287 127.321 136.703 128.432 135.869 129.333C135.525 129.763 135.139 130.154 134.717 130.5C134.459 130.677 134.609 130.908 134.462 131.06C134.08 131.5 133.676 131.918 133.252 132.313C133.029 132.521 132.818 132.742 132.619 132.975C132.023 133.551 131.393 134.087 130.732 134.581C130.616 134.678 130.398 134.722 130.363 134.835C130.152 135.55 129.492 135.587 129.001 135.739C128.51 135.89 128.031 135.894 127.745 136.466C127.547 136.753 127.308 137.008 127.036 137.22C126.634 137.305 126.238 137.417 125.85 137.555C125.128 137.861 124.438 138.256 123.706 138.541C123.421 138.654 123.058 138.53 122.747 138.6C122.464 138.669 122.197 138.795 121.96 138.971C121.802 139.084 121.708 139.459 121.601 139.452C121.151 139.433 120.736 139.812 120.276 139.57C120.08 139.471 119.878 139.386 119.671 139.316C119.49 139.273 119.31 139.23 119.126 139.186C118.678 139.08 118.461 139.738 117.935 139.524C117.504 139.416 117.06 139.371 116.617 139.391C116.603 139.325 116.57 139.192 116.536 139.059L115.28 139.15C115.189 138.988 115.072 138.844 114.935 138.722C114.726 138.62 114.51 138.533 114.289 138.462C114.114 138.368 113.945 138.264 113.781 138.149L113.902 137.811L113.04 137.936L113.306 137.407L111.782 136.868C111.743 136.616 111.696 136.289 111.643 135.905C111.211 135.905 110.789 135.838 110.828 135.189C110.832 135.076 110.611 134.957 110.521 134.825C110.305 134.498 109.883 134.306 109.943 133.783C109.965 133.682 109.78 133.531 109.667 133.441C109.106 133.003 109.105 132.275 108.834 131.688C108.801 131.617 108.946 131.454 108.995 131.359C108.287 130.491 107.559 129.697 106.94 128.821C106.19 127.76 105.38 126.7 105.019 125.422C104.693 124.242 104.199 123.109 104.197 121.848C104.162 121.653 104.103 121.463 104.023 121.284C103.957 121.046 103.904 120.805 103.863 120.562C103.789 120.147 103.733 119.733 103.666 119.32C103.631 119.214 103.608 119.103 103.595 118.991C103.64 118.266 103.681 117.541 103.752 116.84C103.828 116.281 103.846 115.714 103.806 115.151C103.781 114.595 103.886 114.041 104.112 113.536C104.321 113.005 104.275 112.369 104.425 111.805C104.615 111.075 104.884 110.37 105.12 109.654C105.198 109.509 105.252 109.352 105.28 109.189C105.237 108.178 105.859 107.403 106.141 106.511C106.44 105.741 106.8 104.998 107.215 104.288C107.356 104.002 107.652 103.778 107.496 103.385C107.47 103.312 107.563 103.176 107.625 103.088C108.089 102.423 108.563 101.763 109.025 101.094C109.336 100.642 109.417 100.084 109.791 99.6364C110.7 98.5547 111.57 97.4382 112.42 96.3057C113.499 94.924 114.736 93.6848 116.103 92.6158C116.356 92.4078 116.644 92.2373 116.884 92.0113C117.401 91.57 117.972 91.2014 118.581 90.915C118.695 90.8196 118.793 90.7032 118.868 90.5716C119.276 90.0657 119.528 89.9933 120.173 90.1947C120.156 89.9412 120.226 89.6895 120.37 89.4842C120.514 89.2788 120.723 89.1332 120.96 89.0731C121.544 88.8466 122.117 88.589 122.676 88.3013C122.933 88.1513 123.179 87.9812 123.411 87.7926L124.011 88.0236L124.131 87.9271L123.645 87.7232L124.795 87.2983C125.506 87.0299 126.223 86.7779 126.925 86.4854C127.259 86.3442 127.554 86.1093 127.879 85.944C128.137 85.8107 131.874 85.0824 132.142 85.0175C133.32 84.7354 134.526 84.802 135.713 84.6579C136.065 84.6146 136.421 84.6045 136.775 84.6277C138.039 84.719 139.301 84.8982 140.563 84.8897C140.916 84.8855 141.017 85.0492 141.235 85.2261C141.859 84.5842 142.442 85.1458 143.031 85.3301C143.205 85.3715 143.29 85.5278 143.517 85.4055C143.727 85.3464 143.949 85.3617 144.148 85.4491C144.806 85.6571 145.426 85.8894 146.167 86.1504C146.117 85.6015 146.616 85.4151 146.525 84.8861C146.452 84.5011 146.646 84.0398 146.732 83.6191C146.786 83.2732 146.862 82.9314 146.959 82.5958C147.145 81.998 147.224 81.3702 147.194 80.7434C147.194 80.7144 147.2 80.6857 147.213 80.6596C147.61 79.8998 147.739 79.0186 147.574 78.1719C148.238 77.3224 147.825 76.1871 148.298 75.2592C148.494 74.8682 148.327 74.2845 148.344 73.7993C148.354 73.3267 148.388 72.855 148.446 72.386C148.488 72.0836 148.861 71.7974 148.463 71.482C148.463 71.482 148.446 71.4154 148.46 71.4039C149.135 70.6896 148.456 69.6601 149.015 68.8997C149.127 68.7426 148.996 68.4136 149.046 68.1718C149.189 67.5292 149.09 66.8475 149.24 66.236C149.393 65.7123 149.44 65.1616 149.38 64.6185C149.371 64.087 148.982 63.4795 149.48 62.9325C149.605 62.7968 149.522 62.4571 149.544 62.2125C149.567 61.9678 149.085 61.5848 149.654 61.3707C149.654 61.3707 149.604 61.1676 149.578 61.0622C149.513 60.8752 149.473 60.6801 149.457 60.4818C149.486 59.3638 149.652 58.2376 149.552 57.1328C149.464 56.1485 149.59 55.1674 149.495 54.2146C149.424 53.6314 149.549 53.0213 149.332 52.4586C149.282 52.3154 149.264 52.1624 149.277 52.0106C149.291 51.8587 149.336 51.7118 149.411 51.5802C149.531 51.2926 149.775 50.891 149.347 50.598C149.547 49.9324 149.132 49.2672 149.362 48.594C149.393 48.4033 149.381 48.2078 149.327 48.0231C149.308 47.8862 149.219 47.7474 149.231 47.6142C149.385 46.0807 148.734 44.65 148.753 43.136C148.76 42.5493 148.402 42.008 148.631 41.3861C148.689 41.2345 148.434 40.9716 148.415 40.7722C148.383 40.3679 148.375 39.9618 148.389 39.5563C148.391 39.3912 148.474 39.1756 148.419 39.0743C147.989 38.4094 147.998 37.6394 147.873 36.9001C147.836 36.6889 147.658 36.5068 147.625 36.293C147.463 35.3094 147.358 34.3212 147.179 33.3372C147.073 32.72 146.904 32.1137 146.766 31.4998C146.587 30.7218 146.424 29.9477 146.251 29.1712C146.21 28.9775 146.155 28.7805 146.106 28.6035C146.002 28.1852 145.695 27.8401 145.831 27.3244C145.866 27.1638 145.639 26.7604 145.523 26.4901C145.166 25.6402 144.914 24.7463 144.772 23.8295C144.72 23.4172 144.592 23.0196 144.395 22.6586C144.015 21.9762 143.967 21.1301 143.41 20.5158C143.209 20.2412 143.074 19.9204 143.015 19.5799C142.803 18.7461 141.957 18.3867 141.694 17.6034L141.668 17.6266L142.313 17.7802L142.37 17.6651L141.754 17.272L141.774 17.2767C141.63 17.0737 141.502 16.8588 141.392 16.6343C141.291 16.3793 141.127 16.1572 140.917 15.9908C140.706 15.8243 140.457 15.7196 140.194 15.6873L140.084 16.1868C139.98 16.1621 139.85 16.1311 139.848 16.0903C139.806 15.4882 139.325 15.4987 138.948 15.3905C138.633 15.3157 138.332 15.2771 138.233 14.8527C138.2 14.6979 137.913 14.5339 137.725 14.5075C137.267 14.4463 137.138 14.1251 137.047 13.7395L137.406 13.7108C137.394 13.6051 137.42 13.4568 137.364 13.4067C137.192 13.2757 137.011 13.1588 136.822 13.0571C136.789 13.2073 136.736 13.3049 136.756 13.354C136.843 13.4898 136.939 13.6184 137.044 13.7387C136.884 13.7337 136.724 13.7177 136.565 13.691C136.171 13.5971 136.004 13.3366 136.128 12.9177L135.105 12.6742L134.797 13.0346L134.367 12.2594L133.698 12.6407C133.383 12.3339 133.092 11.9779 132.57 12.1405C132.472 12.1722 132.257 11.9666 132.17 11.8208C132.082 11.675 132.117 11.5031 132.095 11.3472C131.665 11.4432 131.228 11.5076 130.789 11.54C130.662 11.547 130.535 11.5259 130.416 11.4781C130.298 11.4302 130.19 11.3566 130.101 11.2622C129.877 10.8779 129.626 10.9911 129.334 11.0574C129.08 11.1262 128.813 11.1151 128.567 11.0256L128.781 10.7898C128.781 10.7898 128.746 10.741 128.715 10.7373C128.163 10.6157 127.601 10.552 127.036 10.5473C126.157 10.6247 125.215 10.1136 124.386 10.8833L123.779 10.4448L123.639 10.904L123.146 10.4742C123.086 10.4599 123.019 10.444 122.98 10.4788C122.318 10.8297 121.563 10.9339 120.838 10.7741C120.566 10.7314 120.412 10.8712 120.207 10.8887C119.809 10.8927 119.412 10.868 119.017 10.8148C118.984 10.9 118.934 10.9769 118.871 11.0407C118.807 11.1045 118.732 11.1537 118.649 11.185C118.567 11.2163 118.479 11.2291 118.391 11.2225C118.303 11.216 118.218 11.1901 118.141 11.1468C117.704 10.9765 117.298 11.2513 116.927 11.4644C116.832 11.5337 116.722 11.5754 116.607 11.5849C116.492 11.5944 116.377 11.5716 116.274 11.5187C115.925 11.3928 115.545 11.3944 115.196 11.5232C114.54 11.8085 113.897 12.1279 113.27 12.4802L112.722 12.1108L112.784 12.7872L112.312 12.9287C112.255 12.8083 112.182 12.5301 111.757 12.7966C111.336 13.0099 110.893 13.1721 110.436 13.2799C110.436 13.3938 110.433 13.5659 110.43 13.8448L109.536 13.4847C109.163 13.7049 108.831 14.17 108.265 14.1529C108.191 14.1354 108.105 14.4127 108.024 14.5552C107.785 14.5772 107.55 14.6365 107.327 14.7312C106.87 14.8724 106.404 14.96 105.798 15.1027C105.755 15.1696 105.626 15.3741 105.471 15.6094L104.877 15.4165L105.083 16.0758C104.837 16.2819 104.65 16.5684 104.247 16.3365C104.067 16.231 102.942 16.8126 102.773 17.0517C102.533 17.3845 102.358 17.795 101.818 17.5305C101.726 17.4865 101.434 17.678 101.375 17.8148C101.217 18.2735 100.842 18.3313 100.489 18.4494L100.533 18.2503C100.433 18.2559 100.288 18.2252 100.241 18.2801C100.167 18.3996 100.111 18.53 100.074 18.667L100.08 18.6425C99.9153 18.6696 99.7261 18.6502 99.5943 18.7365C99.4626 18.8228 99.3317 19.1116 99.158 19.2283C98.9843 19.3451 98.8355 19.2545 98.6125 19.2602C98.01 19.8191 97.3423 20.4654 96.6415 21.0707C96.3664 21.2647 96.1199 21.4996 95.9097 21.7679C95.7927 21.9874 95.5992 22.1517 95.3696 22.2265C95.14 22.3012 94.8919 22.2808 94.677 22.1694C94.7102 22.4163 94.7286 22.5714 94.7511 22.7238C94.0877 23.1763 93.3689 23.4978 92.7548 24.0613C91.9095 24.8418 90.9071 25.4268 89.8739 26.1662C89.8239 26.3994 89.8497 26.643 89.9472 26.8586C90.0446 27.0743 90.2082 27.2496 90.4122 27.357C90.5347 28.1215 91.3097 28.2288 91.6809 28.729C92.0521 29.2292 92.3823 29.8666 92.7428 30.4305C92.8489 30.5555 92.968 30.6677 93.098 30.7651C93.3544 31.021 93.7251 31.1901 93.7286 31.6506C93.7232 31.675 93.7355 31.7147 93.754 31.7265C94.0753 31.9789 94.3445 32.2964 94.5455 32.6601C94.7466 33.0238 94.8754 33.4263 94.9243 33.8435C94.9528 34.0011 95.2144 34.1222 95.4062 34.2414C95.8336 34.5196 96.2493 34.7877 96.1235 35.4343C96.2965 35.9169 96.5347 36.371 96.8308 36.783C96.8989 36.826 96.9606 36.8791 97.014 36.9406C97.3476 37.4833 97.7052 38.0133 97.9976 38.583C98.0909 38.8628 98.1445 39.1556 98.1568 39.4519C98.1793 39.5565 98.1622 39.7289 98.2219 39.7615C98.6833 40.0295 98.5616 40.5778 98.7701 40.9547C98.9101 41.2518 99.0729 41.5365 99.257 41.806C99.4867 42.1033 99.6924 42.3655 99.2643 42.646L99.9259 43.344L99.4577 43.5194C99.9434 43.8519 100.431 44.1628 99.939 44.84L100.38 45.0554C100.329 45.3894 100.355 45.731 100.454 46.0523C100.553 46.3737 100.724 46.6658 100.952 46.9049C101.099 47.0573 101.198 47.2526 101.236 47.4652C101.297 48.1746 101.212 48.9081 101.704 49.5107C101.741 49.5525 101.573 49.8472 101.58 49.8488C102.038 50.083 101.355 50.2439 101.543 50.4431C101.731 50.6423 101.995 50.7564 102.044 50.963C102.096 51.353 102.113 51.7474 102.096 52.141C102.118 52.4653 102.164 52.7874 102.234 53.1041C102.308 53.4232 102.21 53.8337 102.37 54.0778C102.731 54.5939 102.547 55.2487 102.877 55.7758C102.996 55.9696 102.828 56.3599 102.771 56.806C102.957 57.0818 103.327 57.4751 103.087 58.0503C103.403 58.4162 103.359 58.8689 103.35 59.3079C103.334 59.4858 103.307 59.6624 103.268 59.8363C103.246 59.9341 103.187 60.0891 103.228 60.1282C103.543 60.4498 103.337 60.827 103.347 61.1752C103.368 61.4485 103.161 61.8075 103.584 61.9668C103.644 61.9812 103.692 62.1765 103.671 62.2708C103.504 63.0217 103.772 63.7361 103.814 64.4668C103.834 64.8209 103.719 65.1796 103.719 65.5472C103.73 66.653 103.777 67.7894 103.774 68.9138C103.769 70.2216 103.798 71.5373 103.672 72.8347C103.588 73.7228 103.725 74.5939 103.632 75.4726C103.463 77.1237 103.599 78.796 103.128 80.4303C102.901 81.2294 103.022 82.1295 102.915 82.9755C102.727 84.3169 102.446 85.6437 102.245 86.9819C102.094 87.9792 102.042 88.9891 101.872 89.9782C101.726 90.8442 101.469 91.6839 101.275 92.5423C101.066 93.4852 100.904 94.4393 100.649 95.3677C100.409 96.4074 100.099 97.4283 99.7214 98.423C99.5194 98.8803 99.3908 99.369 99.3408 99.8693C99.3057 100.239 99.1897 100.596 99.0019 100.912C98.814 101.228 98.5593 101.495 98.2573 101.693C98.6061 102.198 98.9112 102.679 98.2701 103.221C98.1363 103.333 98.2542 103.721 98.1687 103.933C97.4789 105.71 97.1504 107.636 96.1406 109.285C95.9343 109.646 95.7605 110.025 95.6217 110.419C95.4797 110.79 95.3962 111.182 95.2542 111.552C95.0268 112.304 94.6819 113.012 94.2335 113.648C94.0646 113.854 94.1049 114.228 93.992 114.499C93.7657 115.059 93.3372 115.516 93.2705 116.165C93.2403 116.301 93.0548 116.408 92.9706 116.55C92.7517 116.902 92.552 117.263 92.3457 117.622C92.0997 118.049 91.8749 118.491 91.6052 118.898C91.3861 119.235 90.9122 119.42 91.0668 119.961C91.067 119.976 91.0636 119.99 91.057 120.004C91.0504 120.017 91.0408 120.028 91.0289 120.037C90.2334 120.45 90.2199 121.495 89.5721 122.036C89.499 122.095 89.4891 122.251 89.4713 122.379C89.4534 122.507 89.5223 122.594 89.5058 122.604C89.0501 122.834 89.0399 123.42 88.6919 123.72C88.4253 123.954 88.1337 124.142 88.1776 124.579C88.167 124.632 88.1452 124.681 88.1138 124.724C88.0824 124.767 88.0421 124.802 87.9961 124.826C87.6379 125.042 87.3706 125.391 87.2481 125.803C86.924 126.519 86.4367 127.141 85.829 127.616C85.6689 127.751 85.5378 127.921 85.4444 128.112C85.1963 128.612 84.7539 128.941 84.4382 129.38C84.1226 129.82 83.7932 130.29 83.4644 130.741C83.3717 130.882 83.2584 131.008 83.1285 131.113C82.8515 131.307 82.6076 131.549 82.407 131.827C81.9181 132.438 81.369 132.994 80.7689 133.485C80.5505 133.636 80.3155 133.757 80.0691 133.848L80.12 134.206L78.3994 135.712C77.8184 135.158 77.6224 136.138 77.2526 136.123C77.2447 136.301 77.2387 136.487 77.2354 136.645C76.7229 136.607 76.4823 137.105 76.1601 137.352C75.9776 137.511 75.7657 137.628 75.5378 137.698C75.3098 137.767 75.0708 137.786 74.8358 137.754C74.393 137.704 74.2967 137.82 74.233 138.346C73.3165 137.988 73.3973 139.051 72.8882 139.316L71.6308 139.083C71.6695 139.258 71.6976 139.4 71.7578 139.668L70.6869 139.737C70.6695 140.004 70.6112 140.267 70.5142 140.516C70.2996 140.88 69.9749 140.52 69.7817 140.518C69.5871 140.777 69.4603 141.111 69.2926 141.137C69.1249 141.163 68.8128 140.967 68.5388 140.854C68.6378 141.408 68.6378 141.408 68.1975 141.711C68.1248 141.293 67.8471 141.26 67.6255 141.497C67.1972 141.969 66.8114 142.201 66.2311 141.739C66.1164 141.697 65.9936 141.684 65.8728 141.701C65.7521 141.718 65.6369 141.765 65.5369 141.839C65.3852 141.949 65.2135 142.025 65.0326 142.063C64.8516 142.101 64.6653 142.099 64.4852 142.059C64.2134 142.031 63.9156 142.247 63.6502 142.206C62.426 142.013 61.1647 142.099 59.9762 141.651C59.5998 141.536 59.2169 141.444 58.8297 141.378C58.7634 140.994 59.5489 141.229 59.2032 140.709C58.3055 140.885 57.977 140.701 57.8855 140.002C57.5822 140.02 57.2782 139.987 56.985 139.906C56.7179 139.717 56.4781 139.489 56.2729 139.229L56.9634 139.003C56.7051 138.882 56.4695 138.714 56.2677 138.507C56.1446 138.316 56.1968 138.001 56.1619 137.651L54.4733 137.966C54.5453 137.749 54.6331 137.539 54.7359 137.337C54.86 137.142 55.0078 136.968 55.2073 137.306C55.2374 137.361 55.5054 137.263 55.7212 137.226C55.2047 136.492 54.6115 136.962 54.135 136.936C54.0379 136.391 53.89 135.857 53.6932 135.342C53.5076 135.039 53.2193 134.821 52.8857 134.731C52.7259 134.678 52.5792 134.589 52.4558 134.471C52.3325 134.353 52.2356 134.208 52.1719 134.046L52.7152 134.135L52.3764 133.631C52.2916 133.839 52.2388 133.966 52.1932 134.077C51.4067 133.831 51.5079 133.057 51.4552 132.485C51.4025 131.914 51.3716 131.561 50.9288 131.257C50.8033 131.171 50.7156 131.036 50.6845 130.883C50.5947 130.329 50.3268 129.824 49.9251 129.452C48.9529 128.487 48.1211 127.378 47.4559 126.161C46.9254 125.312 46.4518 124.425 46.0386 123.508C45.8255 122.88 45.5555 122.275 45.2322 121.701C45.1077 121.548 45.0273 121.36 45.0001 121.161C45.0278 120.37 44.6608 119.771 44.2267 119.19C44.176 119.125 44.1456 119.046 44.1397 118.963C44.1805 118.363 44.0641 117.763 43.803 117.228C43.7219 117.055 43.5634 116.833 43.6078 116.697C43.9232 115.735 43.3509 114.904 43.2074 114.027C43.0748 113.26 42.7396 112.471 42.703 111.668C42.6761 111.044 42.5146 110.439 42.645 109.772C42.7755 109.104 42.569 108.401 42.5285 107.711C42.5049 107.293 42.5845 106.871 42.2194 106.534C42.1639 106.44 42.1321 106.333 42.1271 106.222C42.1221 106.112 42.1439 106.002 42.1906 105.902C42.5333 105.388 42.3397 105.007 41.9448 104.63C42.5493 104.142 42.2127 103.517 42.2626 102.959C42.2989 102.541 42.3178 102.123 42.3333 101.704C42.3373 101.535 42.3326 101.365 42.3191 101.197C42.2738 100.623 42.2172 100.07 42.1892 99.4819C42.18 99.3984 42.1876 99.3137 42.2115 99.2333C42.2354 99.1529 42.2751 99.0785 42.328 99.0148C42.7397 98.7452 42.6661 98.4262 42.5433 98.0439C42.5114 97.8669 42.5135 97.685 42.5494 97.5086C42.6048 96.8305 42.7576 96.1572 42.6489 95.4732C42.6196 95.3691 42.6233 95.2578 42.6594 95.1558C43.1552 94.3326 42.9767 93.4554 42.8999 92.4848L43.362 91.9881C43.292 91.7325 42.9689 91.4754 43.3444 91.1787C43.4167 91.1224 43.3516 90.8605 43.3289 90.6933C43.2882 90.3129 43.3654 89.9284 43.5493 89.5963C43.7332 89.2641 44.0139 89.0019 44.3504 88.8481L44.5949 89.2372L45.0554 88.7475L43.6449 88.4117C43.7897 87.7586 43.9167 87.1858 44.0437 86.613C44.0884 86.4488 44.1072 86.2782 44.0995 86.1079C44.0584 85.7536 44.1379 85.3951 44.3241 85.095C44.5339 84.5933 44.6531 84.0557 44.6757 83.5094C44.7364 82.9981 44.5676 82.4101 44.7619 81.9783C44.915 81.6213 45.1373 81.222 45.0558 80.9231C44.8899 80.3064 45.1204 79.9494 45.4145 79.4642C45.6813 79.1218 45.8142 78.687 45.7864 78.2475C45.736 77.9193 45.9747 77.5569 46.1106 77.1186L45.874 76.9005C45.8848 76.8516 45.8661 76.7773 45.9073 76.7503C46.4767 76.1505 46.528 75.3796 46.6894 74.6201C46.8508 73.991 47.0868 73.3851 47.392 72.8165C47.3039 72.6389 47.2652 72.4389 47.2803 72.2392C47.2954 72.0394 47.3636 71.8478 47.4773 71.686C47.7274 71.3963 47.8649 71.0198 47.8627 70.6306C47.8581 70.3022 48.158 69.9655 48.2923 69.6298C48.523 69.0339 48.7385 68.427 48.9507 67.8194C49.0056 67.667 48.9579 67.4534 49.0576 67.3374C49.2536 67.1099 49.385 66.8298 49.4368 66.5289C49.4886 66.2281 49.4588 65.9184 49.3507 65.6349C50.1389 65.3335 50.1321 64.5708 50.2831 63.9376C50.4791 63.1763 50.8019 62.4566 51.2368 61.8114C51.3448 61.5968 51.4282 61.3699 51.4853 61.1352C51.6028 60.7955 51.6259 60.3266 51.8508 60.1853C52.2571 59.9401 52.0357 59.5417 52.209 59.2999C52.8257 58.4392 52.9855 57.3852 53.3994 56.4395C53.6359 55.8965 53.672 55.2101 54.3268 54.9395C54.3702 54.3468 54.9098 54.0083 54.9891 53.3654C55.0639 52.7442 55.3483 52.1705 55.7913 51.7473C56.0676 51.4561 56.2685 51.0964 56.375 50.7023C56.59 50.0181 56.5599 50.011 57.1815 49.4456C57.2212 49.389 57.2478 49.3236 57.2591 49.2545C57.3767 48.867 57.3866 48.362 57.6356 48.1124C58.2397 47.4988 58.3785 46.6346 58.8585 45.962C59.0863 45.6486 59.439 45.3281 59.3234 44.8336C59.3196 44.8043 59.3262 44.7745 59.342 44.7498L61.6337 42.0487C61.7423 41.6701 61.8736 41.2049 62.0183 40.6952L62.7307 40.339C62.7901 39.4523 63.3099 38.8701 63.8833 38.3154C64.0337 38.162 64.1543 37.9796 64.2382 37.7785C64.518 37.1059 64.8938 36.4813 65.3528 35.9259C66.0983 34.999 66.7977 34.0327 67.4482 33.031C67.6139 32.8058 67.7982 32.5962 67.9989 32.4046C68.5733 31.855 69.0829 31.2356 69.5165 30.5598C69.8857 30.081 70.296 29.6383 70.7423 29.2375C71.1743 28.7814 71.6131 28.3417 72.0304 27.8564C72.1022 27.7706 72.0726 27.587 72.0923 27.4189L70.2166 26.6414L69.7549 26.9617L68.7035 26.1967L68.1215 26.4883C67.8683 26.2943 67.5983 26.1254 67.3149 25.9838C67.1354 25.9335 66.946 25.9351 66.7669 25.9883C66.5878 26.0415 66.4257 26.1443 66.2978 26.2858C65.8258 26.6845 65.3382 26.9472 64.7997 26.3924C64.73 26.3525 64.6486 26.341 64.5711 26.3601C63.9805 26.4364 63.3946 26.5396 62.8013 26.5969C62.4884 26.5751 62.1745 26.5753 61.8615 26.5975C61.4167 26.7087 60.9895 26.887 60.5935 27.1266C60.3142 27.2978 59.9821 27.3481 59.6685 27.2667C59.1216 27.2261 58.5795 27.4031 58.151 27.7621C57.7915 28.0663 57.4691 27.9969 57.117 28.0454C57.0337 28.0408 56.9535 28.0115 56.8858 27.961C56.5229 27.7569 56.4106 28.5171 55.9426 28.1997C55.7691 28.0775 55.3314 28.2896 55.0533 28.4329C54.557 28.7484 54.0174 28.9821 53.4533 29.1257C52.8797 29.264 52.3631 29.5908 51.9797 30.0581C51.6097 30.2348 51.2485 30.4355 50.868 30.5803C50.531 30.6758 50.189 30.7503 49.8437 30.8034C49.585 31.161 49.2604 31.7198 48.5006 31.6235C48.4453 31.6099 48.3876 31.6119 48.3332 31.6291C48.2788 31.6464 48.2297 31.6783 48.1908 31.7216C48.1519 31.7649 48.1246 31.8182 48.1117 31.876C48.0988 31.9338 48.1007 31.994 48.1173 32.0507L48.5807 31.9919C48.5842 32.103 48.6122 32.1832 48.5852 32.2099C48.3466 32.4766 48.1395 32.7914 47.6952 32.6525C47.6156 32.6354 47.5331 32.6389 47.4549 32.6625C47.3767 32.6862 47.3051 32.7294 47.2463 32.7883C46.9937 33.1657 46.6161 33.028 46.2678 33.1069L46.4199 33.5953C46.313 33.6611 46.19 33.6927 46.0663 33.6861C45.9427 33.6796 45.8237 33.6352 45.7242 33.5584L45.7093 34.213L45.0508 34.0085C45.0822 33.9939 45.0207 34.0013 45.0014 34.0408C44.8909 34.2535 44.8022 34.4788 44.6794 34.6995C44.5627 34.9211 44.4223 35.1283 44.2609 35.3169C44.0303 35.5635 43.8235 35.3378 43.5949 35.2576C43.4881 35.2356 43.3777 35.2404 43.2729 35.2717C43.168 35.303 43.0717 35.3599 42.9919 35.4377L43.609 35.6544C43.516 35.7936 43.3929 35.9081 43.2497 35.9884C43.1066 36.0687 42.9473 36.1125 42.7851 36.1164C42.5305 36.122 42.5839 36.7855 42.0486 36.6765L42.1082 36.1538C42.0233 36.1557 41.8963 36.1255 41.8777 36.1615C41.7202 36.4123 41.592 36.6817 41.4956 36.964C41.471 37.1742 41.375 37.3684 41.2251 37.5115C41.0752 37.6546 40.8814 37.7371 40.6787 37.7439C40.1498 37.8252 39.6436 38.0245 39.1943 38.3281L39.8764 38.2993C39.5792 38.7507 39.3375 39.2373 38.7707 38.9369C38.6487 39.2426 38.5108 39.5412 38.3577 39.8314C38.2728 39.9642 38.1479 40.0639 38.0028 40.1146C37.4168 40.3133 37.3572 40.4867 36.9983 40.9785C36.4671 41.6288 35.8941 42.2405 35.2832 42.8094C35.2762 42.8408 35.1112 42.728 35.0037 42.673C34.9729 42.8807 34.9036 43.0803 34.7995 43.2605C33.8832 44.219 32.9159 45.1212 32.0265 46.1007C31.2221 46.9829 30.4922 47.9416 29.7317 48.8636C29.6411 48.9707 29.5723 49.1382 29.4637 49.1675C29.2044 49.2653 28.9682 49.4205 28.7715 49.6225C28.5748 49.8245 28.4223 50.0685 28.3245 50.3376C27.9632 51.1414 27.3496 51.6866 26.8267 52.3306C26.3039 52.9746 25.8973 53.5544 25.4549 54.1844C24.6085 55.3985 23.7367 56.5845 22.9744 57.8481C22.7539 58.2074 22.6507 58.6571 22.3467 58.9966C22.1039 59.2289 21.9187 59.5192 21.8071 59.8425C21.7082 60.1624 21.5351 60.4521 21.3034 60.6859C21.0406 60.9669 20.8445 61.3081 20.7306 61.682C20.6268 62.15 20.3334 62.4258 20.1121 62.7886C19.5051 63.7803 18.958 64.8193 18.4065 65.8462C18.4011 65.8706 18.3614 65.8906 18.3594 65.9159C18.2624 67.1466 17.359 67.9831 16.9388 69.0524C16.6458 69.8025 16.4298 70.5858 16.1494 71.3426C16.0057 71.6812 15.8433 72.0109 15.663 72.3299C15.5559 72.4874 15.4723 72.6609 15.4151 72.8445C15.3177 73.4427 14.9492 73.9139 14.7477 74.4579C14.3716 75.4714 14.0376 76.517 13.6859 77.5474C13.605 77.7855 13.5859 78.0935 13.4287 78.2473C13.092 78.5753 13.0386 79.0222 12.9053 79.4169C12.4833 80.6696 12.2538 81.9901 11.6188 83.1552C11.5598 83.2625 11.6075 83.4283 11.5814 83.5618C11.5171 83.947 11.4326 84.3283 11.3281 84.7039C11.1463 85.2857 10.8622 85.821 10.9956 86.4889C11.0033 86.8294 10.9437 87.1682 10.8207 87.4841C10.6026 88.3882 10.3369 89.2846 10.1514 90.2002C9.98725 90.9406 9.96498 91.7074 9.83755 92.4566C9.6574 93.491 9.42377 94.5127 9.24029 95.5464C9.08961 96.4003 8.96903 97.2614 8.85847 98.1249C8.7217 98.7418 8.62637 99.3679 8.57318 99.9984C8.5308 100.984 8.43058 101.965 8.27309 102.938C8.16917 103.851 8.05368 104.769 7.97059 105.683C7.94201 106.018 8.04767 106.367 7.99646 106.693C7.79915 107.947 7.81862 109.224 7.54468 110.475C7.40062 111.125 7.55327 111.849 7.58713 112.537C7.62951 113.489 7.68047 114.438 7.74 115.386C7.80195 116.313 7.60905 117.23 7.82684 118.168C7.96387 118.804 7.82723 119.5 7.85159 120.167C7.8791 121.075 7.98992 121.987 8.02464 122.878C8.06531 124.027 8.30532 125.151 8.37044 126.269C8.42444 126.982 8.5361 127.689 8.70423 128.382C8.87127 129.12 9.11975 129.952 8.53658 130.725C8.3893 130.929 8.31185 131.278 8.1483 131.555C7.8091 132.133 7.18448 132.061 6.67372 132.381C6.43334 131.989 6.133 131.645 6.2515 131.111C6.26312 131.059 6.28094 130.978 6.2604 130.944C5.78596 130.291 5.82604 129.443 5.49232 128.743C5.41634 128.577 5.19524 128.495 5.0202 128.38C4.7115 128.218 4.41845 128.025 4.14502 127.804C3.61361 127.204 3.20887 126.494 2.95687 125.72C2.92479 125.642 2.87833 125.55 2.89793 125.478C2.98933 125.065 2.78641 124.774 2.64399 124.417C2.30974 123.449 2.08525 122.443 1.9751 121.419C1.84621 120.572 1.68415 119.732 1.51797 118.895C1.35178 118.057 1.17786 117.255 0.98779 116.382L1.8073 116.21C1.71611 116.081 1.66687 115.922 1.58922 115.908C0.80909 115.744 0.803229 115.088 0.723015 114.466C0.680094 114.136 0.618913 113.809 0.571875 113.481C0.552962 113.344 0.492921 113.187 0.541877 113.077C0.775865 112.53 0.667279 112.004 0.589592 111.434C0.537171 110.988 0.512219 110.538 0.514888 110.089C0.481336 109.516 0.484066 108.942 0.523062 108.37C0.612863 108.016 0.750775 107.677 0.932581 107.364L0 107.142L0.58276 106.546L0.123114 106.333L0.461414 105.903C0.46761 105.875 0.476907 105.833 0.480003 105.819C-0.091082 105.109 0.348846 104.332 0.283145 103.581C0.196408 102.766 0.352216 101.92 0.389198 101.087C0.395561 100.868 0.329403 100.643 0.349136 100.427C0.394152 100.205 0.45998 99.9875 0.545665 99.7787C0.415318 99.6668 0.331895 99.5062 0.312998 99.3309C0.294102 99.1556 0.341208 98.9792 0.444378 98.839C0.528064 98.7155 0.438267 98.4699 0.432522 98.2736C0.426777 98.0774 0.352877 97.887 0.427799 97.7872C0.647149 97.5121 0.70952 97.3578 0.444156 97.0152C0.321622 96.8537 0.589771 96.3586 0.718505 95.8892C0.673138 95.713 0.319805 95.3862 0.889679 95.1174C1.03504 95.049 1.05412 94.6932 1.14152 94.442L0.720398 94.2939C0.70628 94.2385 0.700003 94.1813 0.701772 94.124C0.755216 93.883 0.908735 93.6033 0.860554 93.408C0.709736 92.9456 1.35437 92.7682 1.14571 92.2809C1.01178 91.9127 0.941078 91.5225 0.936849 91.1281C0.932598 90.9015 0.982369 90.6771 1.08169 90.4751C1.22599 90.1417 1.38208 89.8663 1.10436 89.5318C1.06274 89.4815 1.17375 89.2983 1.20909 89.1707C1.24443 89.043 1.35674 88.8381 1.30823 88.7236C1.27302 88.6416 1.25649 88.552 1.25995 88.462C1.2634 88.3721 1.28675 88.284 1.32815 88.2049C1.36956 88.1257 1.42791 88.0576 1.49863 88.0058C1.56936 87.954 1.65055 87.9199 1.73585 87.9062C1.66906 87.6277 1.63443 87.3417 1.63269 87.0543C1.72682 86.1539 1.92767 85.2641 1.85337 84.3455C1.86703 84.04 1.94416 83.7409 2.07941 83.4691C2.46219 82.4572 2.04732 81.3289 2.61651 80.365C2.51823 79.8084 2.82563 79.422 3.13022 79.0165C3.25825 78.6882 3.3196 78.3359 3.31037 77.9821C3.29549 77.6366 3.12405 77.2354 3.59588 77.0279C3.65043 77.0041 3.6285 76.7856 3.63657 76.6699C3.6331 76.4715 3.64879 76.2732 3.68337 76.078C3.81562 75.8089 3.92705 75.5293 4.01662 75.2418C4.03222 74.9373 4.01123 74.6321 3.95414 74.3334C4.66604 73.694 4.82666 73.2395 4.51189 72.6277L4.98711 72.3732L4.65461 72.0477C4.98129 71.368 5.43679 70.7264 5.42902 69.9046C5.85002 69.593 5.44227 68.8451 6.06612 68.6186C6.15796 68.5853 6.2017 68.2611 6.18617 68.0772C6.16761 67.6295 6.30523 67.1894 6.57352 66.8384C6.70778 66.6653 6.81007 66.4677 6.87518 66.2558C6.95263 65.9065 6.9804 65.6226 7.37812 65.4636C7.54354 65.4 7.59454 65.0114 7.71953 64.7176L7.40928 64.5297C7.52481 64.1675 7.63622 63.8079 7.75431 63.45C7.80198 63.243 7.87357 63.0427 7.96751 62.8536C8.19802 62.4637 8.44735 62.0861 8.71455 61.7225C8.96688 61.3781 9.17779 61.0459 8.98633 60.5922C8.9687 60.5563 8.95857 60.5168 8.95661 60.4764C8.95465 60.436 8.96091 60.3956 8.97496 60.3578C9.26152 59.9828 9.529 59.5924 9.7763 59.1882C9.99891 58.8795 10.1616 58.5285 10.2553 58.155C10.4289 57.44 10.7842 56.7864 11.2836 56.2635C11.5348 55.9557 11.7727 55.6446 11.9939 55.3296C12.0561 55.2415 12.0928 55.1366 12.0996 55.0275C12.1412 54.2211 12.3591 53.8575 13.0957 53.4556L13.0085 52.9605C13.2228 52.8133 13.4041 52.6192 13.5396 52.3918C13.6751 52.1643 13.7617 51.909 13.7932 51.6435C13.8674 51.3441 14.0189 51.0715 14.2313 50.8555C14.4437 50.6395 14.7087 50.4885 14.9973 50.4189C15.0554 50.157 14.7783 49.7086 15.3063 49.6762C15.7712 48.9449 16.2764 48.2378 16.6882 47.4755C16.8933 47.0905 17.4641 46.8807 17.2725 46.2689C17.2497 46.1973 17.4201 46.0319 17.5238 45.961C17.7678 45.7654 18.132 45.694 18.071 45.2235C18.063 45.1481 18.3018 44.9917 18.4459 44.9451C18.6512 44.8763 18.7099 44.802 18.6139 44.5843C18.5862 44.5189 18.6604 44.3748 18.7183 44.304C19.0872 43.9101 19.4756 43.5393 19.8419 43.1411C20.0553 42.9088 20.0139 42.5717 20.2664 42.2899C21.1154 41.3338 21.8485 40.2655 22.613 39.2305C22.9745 38.6602 23.4419 38.1713 23.9875 37.7928C24.1383 37.7 24.2254 37.4817 24.3497 37.3496C24.8679 36.7743 25.3869 36.1956 25.9102 35.6289C26.1555 35.3637 26.4127 35.1087 26.6724 34.858C27.0549 34.4821 27.444 34.1078 27.835 33.7413C27.9588 33.6274 28.1417 33.5643 28.2203 33.4322C28.7472 32.5318 29.6131 31.9915 30.2993 31.2614C30.3747 31.1795 30.4552 31.1029 30.5403 31.032C31.2389 30.4997 31.9512 29.9854 32.6371 29.4317C33.0872 29.0682 33.4777 28.6243 33.9497 28.2734C35.5494 27.0107 37.1316 25.7474 38.7947 24.5954C40.131 23.6634 41.5595 22.871 42.9488 22.0177C43.6178 21.6034 44.3143 21.2398 44.9463 20.7541C45.3279 20.4773 45.8178 20.5057 46.1926 20.1169C46.5069 19.7946 47.0771 19.7465 47.526 19.5629C48.1216 19.337 48.6307 18.8184 49.3394 18.8916C49.3695 18.8987 49.4081 18.8197 49.4527 18.7935C49.7375 18.6039 50.0145 18.2912 50.3129 18.2629C50.948 18.1518 51.5701 17.9695 52.1683 17.7192C53.2719 17.3606 54.396 17.084 55.4909 16.7012C56.0818 16.4962 56.638 16.2095 57.2803 16.3918C57.358 16.4206 57.4426 16.4227 57.5218 16.3978C58.87 15.7297 60.3711 16.054 61.7707 15.6775C62.1967 15.5657 62.6867 15.7044 63.1473 15.7221C63.4947 15.7423 63.834 16.0216 64.1493 15.6628C64.8563 15.9341 65.6083 15.6057 66.2894 15.7716C67.5863 16.0803 68.9239 16.0311 70.2142 16.3382C70.9796 16.5205 71.7554 16.672 72.5265 16.8446C72.6001 16.8621 72.7137 16.8892 72.7389 16.9503C73.0055 17.5727 73.5395 17.4498 74.0127 17.4264C74.7246 17.3899 74.7285 17.3725 75.054 18.0787C75.1957 17.9437 75.3825 17.8723 75.5738 17.88C75.7652 17.8877 75.9456 17.9739 76.076 18.1198C76.6911 18.4559 77.3425 18.7147 78.0165 18.8906C78.3487 19.0496 78.6583 19.2556 78.9364 19.503C79.1334 19.647 79.3727 19.7142 79.6128 19.6927C79.8529 19.6713 80.0786 19.5626 80.2504 19.3857C80.743 18.8207 81.324 18.3472 81.9685 17.9857C82.0933 17.8874 82.1992 17.7654 82.2805 17.6261C82.317 17.5723 82.2879 17.4182 82.3069 17.4117C82.8957 17.2798 83.1714 16.6873 83.6157 16.4291C84.0796 16.1869 84.4853 15.8385 84.8024 15.41C85.3296 14.6199 86.2266 14.304 86.895 13.702C87.4964 13.1628 88.132 12.6668 88.7973 12.2172C89.448 11.7254 90.1336 11.2863 90.8482 10.9037C91.4528 10.6211 91.9501 10.0924 92.5221 9.70277C93.1876 9.16202 93.9125 8.70626 94.6812 8.34525C95.4382 8.0214 96.1633 7.62141 96.8464 7.15095C97.0911 6.92789 97.3988 6.79449 97.7224 6.77119C97.8578 6.75388 97.9837 6.68926 98.0798 6.58786C98.5741 6.19683 99.1407 5.91723 99.7434 5.76686C100.173 5.60273 100.586 5.39432 100.976 5.1447C102.323 4.31404 103.774 3.68308 105.287 3.27002C105.397 3.25681 105.503 3.21797 105.597 3.15636C106.26 2.57882 107.09 2.56675 107.879 2.387C108.232 2.34909 108.574 2.24226 108.889 2.0721C109.164 1.87665 109.474 1.99066 109.773 1.76776C110.072 1.54486 110.679 1.58284 111.149 1.4961C111.619 1.40936 112.017 1.29813 112.457 1.23377C113.386 1.08743 114.286 0.808826 115.21 0.653919C115.459 0.668536 115.703 0.726641 115.932 0.825803C115.941 0.749692 115.958 0.674759 115.982 0.602282C116.725 0.617314 117.405 0.106303 118.162 0.293924C118.297 0.313643 118.434 0.314147 118.57 0.295427C119.897 0.214258 121.227 0.133888 122.553 0.0414465C123.104 0.0033394 123.645 0.132249 124.217 0.0146108C124.604 -0.0659838 125.042 0.211161 125.469 0.253956C126.398 0.364831 127.33 0.432205 128.261 0.517837C128.316 0.521845 128.37 0.53473 128.422 0.556035C128.585 0.650343 128.756 0.73031 128.932 0.795118C129.082 0.830172 129.238 0.83091 129.389 0.797281C129.588 0.734109 129.784 0.657858 129.974 0.568985C130.555 1.29918 131.407 1.3292 132.216 1.47049C132.509 1.49428 132.793 1.58449 133.048 1.73483C133.304 1.88517 133.524 2.09201 133.695 2.34092L133.888 2.10732C134.235 2.25613 134.565 2.38619 134.891 2.53371C135.217 2.68124 135.644 2.64322 135.796 3.11692C135.818 3.19203 135.96 3.23323 136.052 3.26599C136.426 3.4029 136.813 3.51347 137.18 3.67054C137.678 3.88469 138.162 4.12868 138.653 4.3595C138.78 4.41927 138.96 4.4327 139.022 4.53562C139.442 5.21286 140.226 5.35557 140.762 5.85822C140.868 5.94403 140.964 6.04091 141.05 6.14734C141.293 6.49567 141.432 6.94792 141.981 6.9168C142.062 6.93049 142.138 6.96486 142.202 7.01682C142.267 7.06879 142.318 7.13672 142.351 7.21455C142.537 7.83608 143.059 8.0523 143.546 8.30407C143.498 8.51711 143.384 8.7325 143.443 8.84589C143.499 8.91334 143.568 8.96782 143.646 9.00591C143.723 9.04399 143.808 9.06485 143.894 9.06716C144.124 9.08904 144.154 9.22481 144.267 9.39873C144.595 9.83708 144.952 10.2503 145.337 10.6352L145.193 10.7774L145.716 11.7182C145.847 11.6767 145.984 11.6619 146.12 11.6746C146.247 11.7276 146.35 11.8282 146.409 11.9568C146.515 12.1804 146.556 12.4402 146.664 12.6646C146.857 13.0783 146.957 13.5948 147.562 13.6137C147.632 14.1561 147.597 14.7251 148.229 14.9233C148.316 14.944 148.397 15.1655 148.396 15.2942C148.429 15.7059 148.613 16.0881 148.909 16.3612C149.107 16.6063 149.253 16.8915 149.339 17.199C149.541 17.6826 149.78 18.1479 150.055 18.5901C150.122 18.7163 150.252 18.8612 150.231 18.9703C150.055 19.8917 150.831 20.4221 151.034 21.1909C151.156 21.654 151.507 22.0721 151.552 22.5351C151.662 23.2106 151.888 23.8596 152.218 24.4512C152.573 25.2124 152.714 26.04 153.032 26.7959C153.335 27.63 153.542 28.499 153.65 29.3847C153.793 29.9757 153.98 30.5539 154.21 31.1137C154.251 31.2483 154.329 31.4178 154.285 31.5213C154.095 31.9651 154.307 32.2619 154.543 32.5939C154.649 32.7208 154.705 32.8852 154.698 33.0536C154.471 34.0769 154.98 34.959 155.175 35.9027C155.338 36.6768 155.594 37.4732 155.736 38.2425C155.955 39.508 156.079 40.7913 156.299 42.0533C156.345 42.6171 156.451 43.1737 156.614 43.713C156.736 44.1628 156.786 44.6307 156.764 45.0982C156.813 45.7974 156.859 46.4959 156.875 47.1984C156.85 47.4367 156.798 47.6711 156.72 47.8969C156.958 48.1741 157.247 48.4893 156.977 49.0244C156.888 49.2018 157.167 49.5476 157.156 49.8024C156.988 51.417 157.563 52.9841 157.391 54.5979C157.358 54.9245 157.503 55.268 157.503 55.6025C157.506 56.9379 157.477 58.2732 157.466 59.6089C157.486 59.7557 157.494 59.904 157.491 60.0523C157.434 60.2853 157.361 60.5137 157.272 60.7357C157.508 61.3207 157.592 61.9608 157.515 62.5916C157.487 63.1179 157.523 63.6523 157.487 64.177C157.471 64.4415 157.32 64.696 157.296 64.9624C157.253 65.3736 157.25 65.7883 157.289 66.1998C157.388 67.0839 157.167 67.9246 157.043 68.7814C157.007 69.0412 157.144 69.3275 157.101 69.5856C156.923 70.6096 157.069 71.6812 156.683 72.6741C156.549 73.0098 156.775 73.3394 156.641 73.7377C156.472 74.2453 156.609 74.8662 156.607 75.4797L156.222 75.4507C156.212 75.4961 156.197 75.566 156.226 75.5914C156.343 75.713 156.426 75.8652 156.467 76.0321C156.508 76.1991 156.506 76.3746 156.459 76.5403C156.317 77.3411 156.147 78.139 156.052 78.9474C156.003 79.3768 155.674 79.7507 155.903 80.2575C155.98 80.4339 155.7 80.7902 155.562 81.1103L155.839 81.544C155.58 81.9198 155.133 82.1737 155.456 82.7618C155.557 82.9403 155.32 83.2957 155.331 83.563C155.363 84.3869 155.079 85.1465 154.966 85.9396C154.575 86.1185 154.675 86.4734 154.736 86.8188L154.259 86.8926C154.264 86.9638 154.25 87.0414 154.272 87.054C154.73 87.3064 154.597 87.7159 154.528 88.1041C154.474 88.3485 154.42 88.593 154.338 88.8346C154.168 89.426 154.188 90.0587 154.396 90.6354C154.918 90.9507 155.369 91.1832 155.779 91.4793C156.458 91.9718 157.128 92.4881 157.77 93.0379C158.089 93.3125 158.119 93.8566 158.558 94.0529C158.478 94.6846 159.069 94.7777 159.372 94.9822C160.048 95.441 160.402 96.1466 160.867 96.7646C160.954 96.8774 160.873 97.1338 160.871 97.3024C161.187 97.4909 161.494 97.6965 161.79 97.9183C162.089 98.155 162.037 98.5507 162.152 98.8722C162.267 99.1938 162.595 99.4152 162.806 99.7007C163.067 99.9784 163.273 100.306 163.415 100.666C163.628 101.335 163.896 101.983 164.217 102.603C164.339 102.855 164.487 103.093 164.658 103.311C164.78 103.458 164.841 103.649 164.828 103.843C164.816 104.037 164.73 104.218 164.591 104.347C164.741 104.458 164.88 104.585 165.006 104.725C165.155 104.926 165.404 105.187 165.359 105.372C165.165 106.138 165.862 106.422 166.037 107.077C166.34 106.987 166.631 106.857 166.903 106.692C167.614 106.107 168.481 105.924 169.305 105.701C170.323 105.432 171.324 105.1 172.305 104.709C172.8 104.507 173.372 104.533 173.902 104.412C174.642 104.247 175.37 104.027 176.108 103.857C176.309 103.835 176.511 103.839 176.711 103.868C176.843 103.874 177.05 103.926 177.097 103.872C177.35 103.446 177.783 103.667 178.113 103.514C178.442 103.361 178.768 103.302 179.072 103.139C179.265 102.997 179.438 102.828 179.588 102.637C179.296 102.369 179.041 102.088 179.46 101.739C179.526 101.681 179.573 101.468 179.529 101.428C179.035 100.943 179.527 100.564 179.677 100.158L179.357 99.9347L179.685 99.6451C179.598 99.4003 179.502 99.1382 179.412 98.8778C179.376 98.77 179.288 98.6242 179.325 98.5556C179.64 98.0056 179.464 97.3717 179.612 96.7855C179.643 96.6458 179.723 96.4442 179.664 96.3603C179.604 96.2526 179.567 96.1321 179.558 96.0076C179.548 95.8832 179.566 95.7579 179.609 95.6412C179.743 95.037 179.875 94.4398 179.714 93.7873C179.63 93.4842 179.869 93.0888 179.946 92.7396C179.982 92.5754 180.136 92.3731 180.087 92.2621C179.717 91.4386 180.286 90.732 180.314 89.9554C180.329 89.0942 180.445 88.2377 180.658 87.4047C180.879 86.6117 181.113 85.8255 181.279 85.0155C181.356 84.6663 181.62 84.3208 181.576 84.0089C181.533 83.6971 181.401 83.4819 181.785 83.3675C181.726 83.1915 181.67 83.0163 181.614 82.856C181.708 82.6028 181.81 82.3364 181.901 82.0677C181.992 81.7989 182.102 81.4794 182.204 81.1765L181.826 80.5974C182.18 80.1413 182.525 79.6976 182.916 79.1912C182.278 78.6534 182.873 78.0191 183.139 77.5345C183.357 77.0465 183.537 76.541 183.678 76.023L184.368 76.4189L184.461 76.3013L183.857 75.47C183.926 75.1516 184.028 74.8417 184.16 74.5458C184.593 73.8325 184.582 73.0247 184.717 72.2406C184.784 72.0012 184.896 71.7778 185.046 71.5835C185.3 71.1843 185.629 70.8287 185.541 70.2858C185.535 70.2298 185.541 70.173 185.56 70.1199C185.578 70.0668 185.608 70.0189 185.648 69.9803C185.81 69.8509 185.936 69.6786 186.012 69.4815C186.089 69.2843 186.113 69.0695 186.083 68.8594C186.095 68.7487 186.131 68.6425 186.191 68.5496C186.25 68.4568 186.33 68.3802 186.423 68.3263C186.605 68.2352 186.755 68.0866 186.851 67.9016C186.948 67.7166 186.986 67.5048 186.961 67.2962C186.972 66.7694 187.168 66.5549 187.713 66.589C187.417 65.9707 187.57 65.5364 188.038 65.1222C188.303 64.9462 188.491 64.6686 188.561 64.3496C188.639 63.89 189.147 64.1838 189.526 64.0939L188.657 63.615L189.248 63.1746L189.014 62.7513C189.248 62.4907 189.594 62.2642 189.694 61.9536C189.819 61.5824 189.933 61.3228 190.321 61.3012C190.709 61.2797 190.34 60.4528 190.901 60.6708L190.704 60.2563L191.391 59.9675C191.4 59.8027 191.387 59.6374 191.352 59.4766C191.212 59.0461 191.299 58.7653 191.733 58.6185C191.831 58.5868 191.963 58.5153 191.988 58.433C192.257 57.6035 193.03 57.0374 193.092 56.122C193.12 55.9929 193.193 55.8791 193.297 55.803C193.877 55.376 194.32 54.7746 194.566 54.0791C194.669 53.7545 195.04 53.5266 195.378 53.1951C195.384 52.9967 195.44 52.8032 195.539 52.6336C195.638 52.4639 195.778 52.3238 195.944 52.2269C196.038 52.1684 196.19 52.1199 196.211 52.0404C196.463 51.0452 197.348 50.5462 197.86 49.7452C198.399 48.8977 199.036 48.1232 199.758 47.4393C200.479 46.758 200.914 45.8761 201.54 45.1464C202.024 44.5519 202.576 43.9994 203.105 43.4378C203.349 43.1797 203.722 42.989 203.843 42.6831C204.249 41.6768 205.089 41.1084 205.778 40.3973C206.467 39.6863 207.46 39.1615 208.085 38.3727C208.711 37.584 209.591 37.0582 210.292 36.3573C210.901 35.767 211.493 35.1285 212.107 34.5172C212.148 34.479 212.179 34.4166 212.225 34.3982C213.256 34.0038 213.722 32.9162 214.619 32.317C215.438 31.7986 216.093 31.0501 216.903 30.5553C217.884 29.9543 218.723 29.1722 219.648 28.5064C220.292 28.0457 220.969 27.626 221.631 27.184C222.048 26.8899 222.473 26.5608 222.931 26.3023C223.685 25.8714 224.468 25.4954 225.23 25.0773C225.562 24.8954 225.87 24.6636 226.192 24.4532C226.237 24.4236 226.283 24.3904 226.331 24.365C226.829 24.116 227.324 23.9028 227.814 23.6592C228.304 23.4156 228.752 23.1764 229.221 22.9315C229.245 22.9189 229.272 22.8922 229.292 22.897C230.078 23.051 230.536 22.3841 231.145 22.0953C231.755 21.8065 232.421 21.4687 233.07 21.1895C233.874 20.8478 234.695 20.5431 235.507 20.2291C236.226 19.9553 236.96 19.7255 237.66 19.4104C239.253 18.7192 240.935 18.2794 242.65 18.1056C243.445 18.0153 244.238 17.8658 245.024 17.7183C245.577 17.6184 246.133 17.4751 246.669 17.3452C246.799 17.3004 246.933 17.2695 247.069 17.253C248.371 17.2393 249.676 17.1934 250.979 17.2535C251.47 17.2784 252.04 17.0391 252.482 17.5047C252.514 17.5344 252.664 17.4156 252.766 17.3995C253.663 17.2123 254.593 17.3468 255.405 17.7814C255.718 17.9553 256.124 17.9012 256.527 17.9567L256.467 18.2291C256.717 18.4026 256.886 18.4024 256.936 18.0503C256.973 18.059 257.025 18.0309 257.059 18.0502C257.186 18.1545 257.328 18.2379 257.479 18.2973C257.696 18.3162 257.904 18.3943 258.082 18.5239C258.26 18.6535 258.403 18.8299 258.495 19.0354C258.575 19.2274 258.856 19.3237 259.097 19.4949C259.233 19.895 258.824 19.897 258.494 20.0867C258.972 20.3734 258.86 21.005 259.378 21.2569C259.606 21.3701 259.711 21.7223 259.33 21.9183C259.04 22.0663 259.118 22.2722 259.259 22.4751C259.401 22.6779 259.606 22.9584 259.803 23.1965C260.035 23.4982 260.107 23.7764 259.769 24.0635C259.708 24.1153 259.726 24.2591 259.703 24.3604C259.622 25.0764 259.547 25.7645 258.986 26.2929C258.843 26.4281 258.822 26.6987 258.734 26.9388L258.259 26.7449C258.099 26.9422 257.927 27.1476 257.72 27.3997C257.559 27.4093 257.429 27.1246 257.094 27.3352C256.533 27.6088 255.944 27.8116 255.338 27.9393C255.299 27.9548 255.258 27.962 255.216 27.9604C255.175 27.9587 255.134 27.9483 255.097 27.9298C254.519 27.4724 253.824 27.7482 253.196 27.6169C252.797 27.5875 252.398 27.6632 252.035 27.8369C251.771 27.9263 251.493 27.9584 251.218 27.9314C250.942 27.9044 250.675 27.8188 250.433 27.6799C250.548 27.4167 250.637 27.221 250.728 27.0148C250.853 27.5335 251.361 27.4485 251.577 27.5845L252.553 27.0079C252.384 26.9704 252.209 26.9625 252.037 26.9845C251.833 27.0841 251.611 27.1373 251.386 27.1408C251.16 27.1442 250.937 27.0977 250.731 27.0044C250.616 27.0286 250.416 27.0286 250.4 27.0837C250.262 27.562 249.848 27.7466 249.519 27.9771C249.254 28.1714 248.94 28.4642 248.559 28.1163C248.489 28.0518 248.29 28.0778 248.179 28.1324C248.001 28.2223 247.843 28.4569 247.698 28.0986C247.677 28.0812 247.654 28.069 247.628 28.0629C247.602 28.0568 247.576 28.0571 247.55 28.0636C247.229 28.3878 246.747 28.3688 246.43 28.5947C246.284 28.7163 246.104 28.7857 245.918 28.7927C245.608 28.8108 245.217 28.7767 245.229 29.3126C245.23 29.4672 244.765 29.4852 244.724 29.321C244.623 28.9036 244.369 29.0638 244.157 29.1493C243.885 29.2633 243.62 29.3957 243.365 29.5454C243.285 29.5889 243.243 29.6966 243.175 29.765C243.044 29.8991 242.903 30.0273 242.799 30.1278C242.68 30.0774 242.64 30.0678 242.639 30.0565C242.633 29.9264 242.627 29.7927 242.621 29.5374C241.741 29.8207 240.858 29.9965 240.085 30.4044C239.956 30.493 239.808 30.5468 239.654 30.5609C239.5 30.575 239.346 30.5491 239.205 30.4853L237.748 31.9769L237.24 31.3008C236.944 31.6496 236.946 32.2604 236.357 32.109C236.33 32.1027 236.27 32.2282 236.225 32.2874C236.096 32.5055 235.917 32.6866 235.705 32.8145C235.492 32.9423 235.252 33.0128 235.007 33.0196C234.805 32.9903 234.599 33.0303 234.42 33.1335C234.241 33.2368 234.099 33.3977 234.015 33.5922C233.945 33.7814 233.72 33.8897 233.555 34.0784L232.807 33.7681C232.688 33.9271 232.574 34.2015 232.469 34.1986C231.85 34.1835 231.473 34.7999 230.883 34.8285C230.785 35.272 230.382 35.3564 230.053 35.4949C229.994 35.5213 229.854 35.3446 229.723 35.2362C229.466 35.4912 229.209 35.9669 228.829 36.0934C228.449 36.2198 228.155 36.8006 227.625 36.6193C227.325 37.0334 227.009 37.4139 226.295 37.1411L226.752 37.7793C226.536 37.9397 226.301 38.068 226.051 38.1604C225.339 38.3107 225.32 38.2841 225.151 39.049C224.621 38.945 224.153 38.9917 224.169 39.7456C223.781 39.907 223.741 40.5482 223.194 40.5098C223.13 40.5149 223.068 40.5333 223.011 40.5639C222.954 40.5946 222.903 40.6368 222.862 40.6883C222.332 41.4373 221.625 42.0295 220.81 42.4058L220.763 41.8246L220.256 42.0938L220.333 42.2998L220.838 42.3869C220.437 42.6112 219.809 42.7448 219.689 43.0802C219.474 43.6688 218.948 43.7238 218.631 44.0896C218.519 44.2136 218.318 44.2467 218.176 44.3489C218.033 44.4511 217.769 44.5976 217.734 44.7548C217.691 44.9259 217.605 45.082 217.484 45.2066C217.363 45.3312 217.213 45.4198 217.049 45.4631C216.716 45.5825 216.561 45.6485 216.502 46.039C216.406 46.2939 216.235 46.5106 216.013 46.6579C215.624 46.9844 215.178 47.2497 214.8 47.5751C214.609 47.7422 214.447 47.9406 214.318 48.1626C213.914 48.8239 213.528 49.5005 212.503 49.2858C212.81 50.0428 212.474 50.3821 212.019 50.77C211.473 51.232 211.101 51.9231 210.548 52.3688C209.515 53.2038 208.921 54.4558 207.864 55.2705C207.401 55.6273 207.101 56.2213 206.719 56.704C206.62 56.8313 206.499 56.9347 206.394 57.0569C206.213 57.2147 206.054 57.3983 205.921 57.6025C205.741 58.079 205.404 58.4734 204.971 58.7146C204.847 58.764 204.741 58.8515 204.666 58.9655C204.289 59.8722 203.671 60.6112 203.133 61.4024C202.505 62.3302 201.811 63.2056 201.171 64.1232C200.837 64.5988 200.541 65.1058 200.253 65.6143C199.585 66.8011 198.837 67.9357 198.136 69.0962C197.945 69.4184 197.883 69.8082 197.702 70.1327C197.34 70.7819 196.912 71.3934 196.574 72.0481C196.12 72.8852 195.692 73.7392 195.302 74.6061C194.94 75.3839 194.601 76.182 194.277 76.9763C193.953 77.7706 193.587 78.4998 193.295 79.2795C192.777 80.6454 192.298 82.0279 191.803 83.4029C191.752 83.5378 191.718 83.6767 191.668 83.8081C191.219 85.0025 190.861 86.2314 190.596 87.4835C190.561 87.6211 190.515 87.7553 190.457 87.8845C189.808 89.5635 189.387 91.3285 189.207 93.1278C189.098 94.1094 188.993 95.0918 188.84 96.0666C188.599 97.6272 188.301 99.1777 188.071 100.737C187.996 101.351 187.977 101.97 188.013 102.587C188.033 102.695 188.077 102.797 188.14 102.884C188.204 102.971 188.286 103.042 188.38 103.09C188.714 103.283 189.087 103.39 189.468 103.405C189.786 103.408 190.102 103.463 190.403 103.568C190.959 103.743 191.497 103.974 192.009 104.26C192.365 104.432 192.852 104.298 193.214 104.605C193.463 104.815 193.719 105.008 193.979 105.199C194.096 105.311 194.238 105.393 194.391 105.437C195.546 105.561 196.242 106.407 196.974 107.199C197.068 107.299 197.129 107.53 197.21 107.531C198.013 107.56 198.193 108.254 198.552 108.795C198.72 109.052 199.091 109.155 199.327 109.377C199.637 109.69 199.866 110.08 199.994 110.51C200.084 110.771 200.096 111.163 200.517 111.183L200.28 111.634C201.279 112.11 201.183 113.371 201.914 114.137L201.683 114.449C202.286 115.714 202.718 117.06 202.967 118.45C203.015 118.965 203.122 119.471 203.283 119.96C203.377 120.203 203.195 120.674 203.267 121.03C203.375 121.577 203.474 122.13 203.563 122.681C203.688 123.486 203.712 124.305 203.635 125.117C203.567 125.816 203.564 126.52 203.626 127.219C203.699 128.022 203.661 128.833 203.515 129.626C203.416 130.473 203.387 131.327 203.427 132.179C203.403 133.523 203.364 134.859 202.899 136.146C202.817 136.373 202.954 136.674 202.918 136.933C202.874 137.258 203.077 137.707 202.544 137.844C202.52 137.839 202.513 137.984 202.499 138.047C202.548 138.426 202.469 139.467 202.264 139.642C201.967 139.902 202.001 140.102 202.08 140.473C202.109 140.668 202.088 140.868 202.02 141.052C201.952 141.237 201.839 141.4 201.692 141.525C201.503 141.652 201.351 141.833 201.255 142.046C201.158 142.259 201.121 142.496 201.147 142.729C201.197 143.109 201.206 143.655 200.775 143.964C201.064 144.53 200.474 144.75 200.35 145.15C200.08 146.031 199.252 146.544 198.973 147.437C198.905 147.649 198.493 147.745 198.199 147.914L198.122 148.418C197.324 148.353 196.848 148.942 196.284 149.473C195.784 149.012 195.353 149.211 194.967 149.667C194.665 150.029 194.442 150.02 194.101 149.652C193.888 149.421 193.657 149.002 193.2 149.158C193.174 149.159 193.148 149.153 193.124 149.14C193.1 149.127 193.08 149.109 193.065 149.086C192.625 148.117 191.464 147.705 191.272 146.541C191.229 146.404 191.139 146.288 191.02 146.216C190.418 145.838 190.406 145.096 190.113 144.53C189.743 143.835 189.472 143.072 189.133 142.348C188.693 141.412 187.925 140.78 187.369 139.957C186.662 138.861 186.033 137.713 185.488 136.52C185.017 135.535 184.574 134.537 184.16 133.527C183.82 132.711 183.467 131.891 183.188 131.041C183.036 130.601 183.026 130.106 182.893 129.655C182.72 129.055 182.475 128.478 182.287 127.882C182.128 127.476 182.019 127.051 181.963 126.617C181.868 125.201 181.241 123.919 181.057 122.529C181.007 122.168 180.953 121.806 180.902 121.448L181.3 121.51C181.288 121.441 181.276 121.368 181.26 121.295L180.935 121.379L180.557 119.91C180.563 119.886 180.527 119.855 180.533 119.831C180.7 118.933 180.396 118.1 180.241 117.243C180.216 117.116 180.378 116.956 180.395 116.912C180.233 116.611 180.098 116.294 179.993 115.967C179.905 115.687 179.915 115.383 180.021 115.109C180.26 114.743 179.85 114.561 179.895 114.392C180.137 113.504 179.627 112.761 179.566 111.942C179.54 111.645 179.55 111.346 179.541 110.943L178.774 111.319C178.657 111.235 178.521 111.182 178.379 111.164C178.237 111.147 178.092 111.167 177.959 111.221C177.129 111.391 176.294 111.442 175.539 111.961C175.261 112.152 174.731 111.938 174.447 112.124C173.887 112.476 173.216 112.375 172.683 112.73C172.132 113.036 171.531 113.232 170.912 113.308C170.103 113.539 169.31 113.829 168.541 114.178L168.577 114.157C167.803 114.76 167.864 115.624 167.929 116.477C167.992 117.268 168.134 118.059 168.137 118.854C168.14 119.649 168.011 120.372 167.948 121.133C167.844 122.428 167.614 123.734 167.689 125.017C167.754 126.135 167.331 127.138 167.359 128.248L166.929 128.458L167.273 128.859C167.027 129.665 166.775 130.484 166.523 131.306C166.29 132.071 166.618 133.002 166.028 133.538C165.936 134.128 165.815 134.713 165.664 135.29C165.363 136.233 164.951 137.139 164.691 138.088C164.402 139.122 163.772 139.932 163.299 140.841C162.827 141.751 162.337 142.579 161.858 143.44C161.217 144.534 160.506 145.581 159.727 146.573C159.058 147.497 158.333 148.375 157.556 149.203C156.582 150.218 155.513 151.136 154.478 152.088C154.431 152.133 154.375 152.166 154.315 152.186C154.255 152.206 154.191 152.212 154.129 152.204C153.682 152.061 153.513 152.616 153.137 152.615C152.629 153.461 151.857 153.781 150.941 153.883C150.58 153.922 150.512 154.229 150.59 154.56C150.169 154.589 149.749 154.61 149.335 154.651C149.207 154.654 149.084 154.706 148.989 154.797C148.662 155.208 148.172 155.18 147.752 155.344C147.61 155.399 147.456 155.425 147.314 155.479C146.474 155.79 145.637 156.106 144.725 155.966C144.487 155.931 144.25 155.886 143.962 155.836C143.864 155.42 143.627 155.056 143.293 154.809C143.205 154.744 143.096 154.6 143.036 154.619C142.326 154.851 141.973 154.189 141.456 153.952C141.29 153.876 141.069 153.713 141.05 153.561C140.914 152.588 140.241 151.813 140.144 150.871C140.077 150.219 139.733 149.946 139.325 149.628C138.942 149.362 138.575 149.071 138.227 148.756C137.691 148.169 137.326 147.436 137.172 146.641C137 146.008 136.87 145.363 136.784 144.71C136.721 144.181 136.749 143.643 136.865 143.123C136.993 142.546 136.772 141.957 137.056 141.403C137.203 141.166 137.258 140.879 137.21 140.602C137.173 140.535 137.15 140.461 137.142 140.384C137.133 140.308 137.14 140.23 137.161 140.156C137.182 140.082 137.217 140.013 137.264 139.954C137.311 139.894 137.369 139.845 137.434 139.809C137.171 139.063 138.154 138.547 137.782 137.782C138.095 137.007 138.316 136.169 139.144 135.719L138.736 135.369C139.286 134.301 139.527 133.057 140.366 132.128C140.594 131.877 140.481 131.372 140.946 131.306C140.61 130.888 141.106 130.664 141.161 130.335C141.174 130.135 141.246 129.943 141.366 129.787C141.486 129.63 141.65 129.515 141.834 129.458C141.883 129.444 141.96 129.415 141.964 129.383C142.01 129.177 141.897 128.889 142.228 128.857C142.462 128.848 142.696 128.852 142.929 128.87C142.861 128.699 142.813 128.585 142.766 128.463C142.916 128.374 143.129 128.318 142.878 127.957L142.782 128.533ZM95.0395 57.142C94.919 56.9552 94.6631 56.7288 94.7025 56.5985C94.858 56.0877 94.6399 55.5798 94.7422 55.071C94.8196 54.7218 94.9157 54.2887 94.4712 54.0395C94.4116 54.0069 94.4037 53.8359 94.4095 53.7306C94.429 53.2291 94.3612 52.7283 94.2094 52.2527C94.0338 51.5113 93.9021 50.7591 93.8151 50.0005C93.8133 49.9446 93.8255 49.8892 93.8507 49.8398C94.0311 49.3753 93.8151 49.0004 93.5735 48.6303C93.5162 48.5395 93.4363 48.4395 93.433 48.3432C93.4048 47.3437 92.6559 46.5477 92.6514 45.5207C92.6146 44.9293 92.4276 44.3594 92.1096 43.8695C91.7406 43.1219 91.4294 42.3445 91.1789 41.5448C91.0439 41.1854 90.832 40.8555 90.6739 40.5053C90.2825 39.6363 89.943 38.7392 89.2055 38.082C89.1178 37.9776 89.0416 37.8633 88.9784 37.7411C88.8097 37.5024 88.6875 37.1645 88.4559 37.0505C87.8786 36.766 87.8356 36.2299 87.6995 35.7012C86.816 35.8291 86.5976 34.7035 85.8006 34.6314C85.7739 34.625 85.7493 34.5456 85.7519 34.5499L86.3006 34.0114C86.0977 34.0612 85.8915 34.0944 85.6838 34.1109C85.5314 34.091 85.3814 34.0553 85.2359 34.0042C85.297 33.8717 85.358 33.7392 85.4165 33.6023C85.4321 33.5497 85.444 33.496 85.4522 33.4417L84.8967 33.1219L84.0845 33.4838C84.2415 33.0138 84.339 32.7171 84.4318 32.4413C84.1167 32.531 83.7955 32.5947 83.4711 32.6318C83.1499 32.6517 82.8374 32.7499 82.5586 32.9185C82.2798 33.0871 82.0425 33.3215 81.8657 33.6027C81.5457 34.0302 81.1971 34.4436 80.8468 34.8493C80.2982 35.5097 79.6791 36.1026 79.0015 36.6161C78.7334 36.7913 78.496 37.0135 78.2999 37.2727C77.5726 38.4184 76.7456 39.4918 75.8293 40.4791C75.1798 41.162 74.6002 41.9138 74.1002 42.7222C73.6384 43.5351 72.8483 44.0824 72.5112 44.9839C72.3661 45.3685 72.0073 45.6692 71.8061 46.0368C71.605 46.4044 70.9798 46.3989 71.0222 46.9532C70.3235 47.6861 69.7659 48.552 69.3798 49.5037C69.3278 49.6265 69.2472 49.7337 69.1452 49.8156C68.8109 50.1187 68.5805 50.5275 68.4894 50.9794C68.4716 51.1349 68.4198 51.2842 68.3382 51.4159C68.2565 51.5475 68.1471 51.6579 68.0184 51.7387C67.8403 51.8649 67.7112 52.0533 67.6543 52.2698C67.3867 52.9585 67.0388 53.6105 66.6185 54.2109C66.2647 54.8069 65.9814 55.4969 65.4886 55.9422C65.1146 56.2796 64.9843 56.5023 65.2089 56.9014C64.3858 57.36 64.5724 58.4229 63.8861 58.8993C64.1143 59.4573 63.447 59.6257 63.3841 60.0998C63.2725 60.5529 63.0946 60.9855 62.8568 61.3825C62.6365 61.8522 62.3759 62.2975 62.1756 62.772C61.9754 63.2464 61.6321 63.525 61.6419 64.1157C61.6487 64.5291 61.1644 64.9359 60.9585 65.3723C60.4274 66.4054 59.9561 67.4707 59.5472 68.5624C59.3726 69.0798 58.9304 69.5187 59.0287 70.123C58.4465 70.6058 58.6903 71.5536 58.014 71.9846C58.0011 72.001 57.992 72.0202 57.9875 72.0408C57.9829 72.0614 57.983 72.0828 57.9877 72.1034C58.3055 72.7489 57.7583 72.979 57.5236 73.2283C57.529 73.5204 57.5112 73.8126 57.4706 74.1018C57.3537 74.6959 57.1914 75.2794 56.9851 75.8467C56.2733 77.5966 55.9286 79.4523 55.461 81.275C55.2117 82.2562 54.8378 83.1967 54.7142 84.2299C54.5782 85.3668 54.1701 86.461 53.9308 87.588C53.7759 88.2865 53.8372 89.0732 53.6087 89.7542C53.0283 91.4986 53.0105 93.3402 52.6438 95.1207C52.4157 96.2283 52.3821 97.3638 52.0967 98.4762C51.9401 99.331 51.9052 100.205 51.9931 101.069C52.0187 101.811 51.7959 102.53 52.0164 103.281C52.0613 103.428 51.9794 103.607 51.9563 103.774C51.9113 103.982 51.8833 104.193 51.8727 104.405C51.8977 105.562 51.9409 106.716 51.9767 107.871C51.9852 108.087 51.9897 108.305 52.0165 108.517C52.0995 109.158 52.2016 109.793 52.2978 110.422C52.301 110.884 52.3524 111.344 52.4511 111.794C52.6685 112.406 52.6652 113.081 52.4418 113.692L52.9995 114.351L52.7054 114.836C52.8379 115.096 52.974 115.323 53.072 115.563C53.3563 116.169 53.5094 116.833 53.5204 117.508C53.5185 117.697 53.5815 117.881 53.6979 118.025C53.9501 118.341 54.094 118.736 54.1069 119.148C54.1248 119.274 54.0832 119.477 54.1498 119.526C54.6078 119.841 54.6541 120.426 54.9817 120.805C55.0424 120.85 55.0914 120.91 55.124 120.979C55.1566 121.049 55.1719 121.126 55.1683 121.204C55.1648 121.281 55.1426 121.357 55.1038 121.423C55.065 121.49 55.0108 121.545 54.9463 121.584C55.2107 121.819 55.629 121.901 55.46 122.346C55.9487 122.76 55.8032 123.575 56.5459 123.891C56.9828 124.135 57.3136 124.544 57.4713 125.034C57.7249 125.731 58.2328 126.293 58.8839 126.599C59.5121 126.939 59.9855 127.629 60.7894 127.67C60.8396 127.682 60.8839 127.895 60.9031 127.951C61.3264 127.946 61.7491 127.915 62.1692 127.859C63.8273 127.555 65.5304 127.365 66.9109 126.234C66.979 126.187 67.0566 126.157 67.1375 126.148C68.4807 125.931 69.4467 125.003 70.5135 124.286C71.3978 123.712 72.2245 123.047 72.981 122.299C73.5811 121.689 74.3598 121.367 74.9578 120.733C75.4813 120.181 76.0903 119.657 76.6506 119.114C77.1643 118.68 77.5977 118.151 77.9291 117.554C78.22 116.941 78.6421 116.406 79.1626 115.991C79.3455 115.832 79.6345 115.688 79.6786 115.489C79.818 114.86 80.2561 114.471 80.6348 114.017C80.9731 113.613 81.2797 113.18 81.5514 112.724C81.7673 112.429 82.0116 112.157 82.2805 111.913L82.8685 111.784L82.866 111.684L82.1439 111.656C82.8933 111.022 82.9331 109.906 83.8841 109.632L83.7258 108.918C83.9772 108.721 84.3014 108.592 84.3139 108.44C84.3501 107.864 84.8804 107.616 85.0382 107.142C85.196 106.669 85.4826 106.233 85.6512 105.758C85.7499 105.488 86.3122 105.364 85.932 104.921C85.932 104.921 86.0627 104.775 86.1145 104.685C86.2098 104.509 86.2951 104.331 86.3745 104.147C86.4265 104.024 86.4192 103.834 86.5057 103.778C86.6156 103.702 86.7039 103.597 86.7611 103.473C86.8183 103.35 86.8422 103.212 86.8303 103.076C86.8347 102.827 86.924 102.587 87.0822 102.4C87.5568 101.958 87.3844 101.148 88.0009 100.78C88.0534 100.737 88.0948 100.68 88.1213 100.616C88.1478 100.552 88.1587 100.482 88.153 100.412C88.0233 99.918 88.3848 99.6842 88.6394 99.4249C88.5964 99.1425 88.4227 99.0056 88.6493 98.6661C89.1059 97.9474 89.3632 97.1114 89.3925 96.2509C89.6671 96.0919 89.978 95.7688 89.9157 95.5738C89.6736 94.8249 90.186 94.355 90.474 93.8021C90.5346 93.6878 90.7029 93.5477 90.6752 93.4823C90.3697 92.7809 91.1761 92.3183 91.0229 91.6605C91.6282 91.47 91.2592 90.8012 91.583 90.4518C91.6968 90.3354 91.4092 90.1089 91.6417 89.8701C92.0337 89.467 91.9247 88.8638 91.9794 88.3473C92.0341 87.8309 92.4511 87.3786 92.3698 86.793C92.3537 86.6752 92.7147 86.5074 92.6968 86.3819C92.627 85.8394 92.889 85.3245 92.7928 84.7905C92.7735 84.7005 92.7738 84.6069 92.7938 84.5168C92.8137 84.4268 92.8529 84.3425 92.9082 84.2702C93.2379 84.0214 93.1155 83.6687 93.1754 83.3667C93.2353 83.0648 93.239 82.7311 93.2737 82.4158C93.3409 82.0966 93.3765 81.7712 93.38 81.4446C93.355 81.2987 93.3586 81.1488 93.3907 81.0041C93.4228 80.8594 93.4826 80.723 93.5667 80.6029C93.7163 80.4062 93.8163 80.1737 93.8576 79.9265C93.8989 79.6794 93.8801 79.4256 93.8029 79.1884C93.7535 79.0678 93.7347 78.9357 93.7483 78.805C93.7619 78.6744 93.8074 78.5494 93.8805 78.4421C94.1785 77.8917 94.4377 77.3099 94.0476 76.6729L94.535 76.2999L94.2932 76.0732C94.3277 75.7431 94.3575 75.4818 94.3848 75.2162C94.3807 75.0011 94.4 74.7861 94.4424 74.5754C94.7107 73.6191 94.7618 72.6115 94.5918 71.6327C94.5635 71.4261 94.6102 71.2156 94.7227 71.0425C94.7812 70.9822 94.8262 70.909 94.8544 70.8284C94.8825 70.7478 94.8931 70.6617 94.8854 70.5764C94.8777 70.4911 94.8519 70.4087 94.8098 70.3353C94.7677 70.2619 94.7105 70.1992 94.6422 70.1519L95.0609 69.8508C94.7678 69.4905 94.568 69.1378 94.9369 68.6961C94.9845 68.5959 95.0106 68.4861 95.0135 68.3744C95.0164 68.2627 94.996 68.1518 94.9536 68.0493C94.741 67.4214 95.0115 66.8203 95.0067 66.2235C95.0018 65.6267 94.8198 64.9399 95.2145 64.35C95.2695 64.1946 95.2673 64.0237 95.2083 63.8705C95.0072 63.1902 95.2356 62.6048 95.5704 62.0153C95.2284 61.9706 94.995 61.8489 94.9871 61.472C94.9792 61.095 94.8576 60.7866 94.9604 60.5133C95.0323 60.3195 95.0669 60.113 95.0622 59.9055C95.0574 59.6981 95.0135 59.4938 94.9329 59.3044C94.8081 58.9561 94.7532 58.5844 94.7715 58.2125C94.7898 57.8406 94.881 57.4762 95.0395 57.142ZM111.939 126.386C111.828 126.599 111.721 126.783 111.73 126.788C111.943 126.938 112.121 127.069 111.914 127.387C111.888 127.425 112.247 127.691 112.376 127.887C112.84 128.59 113.282 129.309 113.741 130.051C113.901 130.029 114.064 130.048 114.215 130.104C114.367 130.161 114.504 130.254 114.615 130.376C114.854 130.635 115.142 130.84 115.46 130.978C116.074 131.174 116.705 131.303 117.345 131.365C117.707 131.399 118.276 131.355 118.415 131.127C118.726 130.612 119.218 130.678 119.613 130.482C120.251 130.163 120.897 129.864 121.524 129.528C121.936 129.311 122.332 129.061 122.707 128.78C123.26 128.368 123.747 127.851 124.326 127.496C124.95 127.102 125.519 126.618 126.017 126.061C126.583 125.46 127.204 124.895 127.811 124.318C128.144 124.028 128.458 123.715 128.751 123.38C129.096 122.936 129.389 122.455 129.896 122.182C129.987 122.138 130.115 122.036 130.119 121.956C130.133 121.367 130.615 121.052 130.907 120.672C131.63 119.742 132.164 118.67 133.034 117.87C133.22 117.701 133.263 117.376 133.392 117.131C133.654 116.631 133.904 116.121 134.198 115.639C134.891 114.499 135.61 113.379 136.312 112.245C136.909 111.284 137.317 110.205 138.046 109.315C138.311 108.906 138.522 108.462 138.673 107.994C138.864 107.561 139.023 107.114 139.221 106.683C139.538 105.997 140.012 105.401 140.171 104.619C140.28 104.13 140.355 103.537 140.893 103.253C140.941 103.228 140.961 103.089 140.946 103.016C140.785 102.264 141.606 101.798 141.465 101.055C142.154 100.215 142.444 99.1626 142.809 98.1685C143.136 97.4197 143.394 96.6401 143.579 95.8404C143.737 94.8707 144.187 93.9998 144.257 93.1007L143.881 92.6658L144.287 92.2181L142.915 92.057C142.85 92.2548 142.78 92.4588 142.723 92.6364C142.052 92.6494 142.486 92.1203 142.258 91.8307L141.723 91.7512L141.675 91.8721L142.068 92.2267C141.46 92.5563 140.979 92.2358 140.483 92.1067C140.329 92.0701 140.144 91.9525 140.032 91.9993C139.437 92.2695 138.869 92.6894 138.214 92.1659C137.586 92.6011 136.953 92.2335 136.361 92.1439C136.189 92.3493 136.066 92.6144 135.898 92.6441C135.73 92.6739 135.48 92.5151 135.259 92.433C135.11 92.5814 135.07 93.0132 134.676 92.6621C134.573 92.5749 134.32 92.6803 134.125 92.722C133.929 92.7636 133.858 92.8608 133.715 92.8856C133.409 92.9488 133.089 92.9497 132.786 93.0319C132.482 93.1142 132.167 93.3479 131.867 93.3318C131.693 93.3229 131.52 93.3661 131.368 93.4562C131.216 93.5463 131.091 93.6796 131.009 93.8406L130.717 93.7124C130.406 93.9216 130.142 94.1785 130.075 94.133C129.803 93.9435 129.63 94.1045 129.409 94.1989C128.951 94.4255 128.474 94.6062 127.984 94.7384C127.739 94.7922 127.508 94.9003 127.306 95.0552C127.104 95.2101 126.936 95.4083 126.813 95.6363C126.692 95.8621 126.51 96.0458 126.289 96.1646C126.069 96.2834 125.82 96.3322 125.574 96.3047C125.295 96.2485 125.006 96.2874 124.75 96.4157C124.493 96.544 124.283 96.7548 124.149 97.0171C124.036 97.1959 123.869 97.4576 123.72 97.4626C122.842 97.4853 122.779 98.5294 122.105 98.7952C122.105 98.7952 122.093 98.8476 122.087 98.8756C122.015 99.3437 121.632 99.3408 121.31 99.426C121.197 99.4581 121.009 99.3727 120.956 99.4338C120.608 99.8472 120.073 100.132 120.066 100.766C119.843 100.882 119.623 100.701 119.416 101.031C119.177 101.411 119.102 102.004 118.539 102.116C117.842 103.053 117.137 103.963 116.457 104.904C115.978 105.569 115.548 106.272 115.075 106.943C114.654 107.541 114.431 108.26 114.042 108.859C113.53 109.689 112.98 110.474 112.857 111.489C112.834 111.59 112.723 111.678 112.69 111.78C112.448 112.616 111.801 113.263 111.7 114.166C111.646 114.641 111.559 115.112 111.44 115.575C111.374 115.875 111.078 116.161 111.107 116.426C111.125 116.659 111.09 116.893 111.007 117.111C110.923 117.328 110.793 117.523 110.625 117.679C110.709 117.919 110.841 118.116 110.794 118.186C110.477 118.662 110.933 119.355 110.381 119.75C110.406 119.792 110.451 119.829 110.462 119.875C110.536 120.068 110.575 120.273 110.577 120.48C110.498 121.094 110.559 121.718 110.754 122.302C110.779 122.381 110.831 122.464 110.825 122.539C110.8 123.372 110.936 124.201 111.224 124.977C111.276 125.136 111.384 125.331 111.337 125.463C111.134 126.032 111.413 126.264 111.939 126.386ZM143.534 140.581C143.602 140.732 143.623 140.9 143.596 141.064C143.568 141.228 143.493 141.379 143.38 141.497C143.173 141.716 142.885 142.019 143.106 142.307C143.412 142.703 142.878 142.731 142.9 143.045C142.969 143.743 142.917 144.449 142.747 145.13C142.591 145.807 142.595 146.514 142.759 147.188C142.985 148.628 143.112 148.688 144.466 148.168C144.492 148.161 144.518 148.152 144.543 148.142L147.374 146.816C147.715 146.658 148.066 146.517 148.395 146.323C148.723 146.129 148.903 145.919 149.178 145.756C149.454 145.594 149.49 145.194 149.911 145.136C150.157 145.103 150.358 144.706 150.584 144.48C150.815 144.237 151.065 144.015 151.333 143.817C151.831 143.481 152.261 143.048 152.601 142.541C153.119 141.828 153.712 141.177 154.368 140.601C154.808 140.233 155.144 139.748 155.342 139.197C155.482 138.808 155.699 138.454 155.977 138.157C156.079 137.998 156.191 137.845 156.311 137.699C156.853 137.093 156.851 136.104 157.686 135.733C157.718 135.718 157.672 135.56 157.712 135.507C157.973 135.172 157.634 134.702 157.871 134.442C158.45 133.797 158.39 132.878 158.861 132.196C158.972 131.999 159.053 131.787 159.103 131.566C159.368 130.754 159.446 129.875 159.914 129.133C159.967 129.033 160.003 128.923 160.021 128.809C160.135 128.293 160.253 127.762 160.366 127.252C160.428 126.618 160.536 125.99 160.688 125.372C160.857 124.767 160.981 124.148 161.059 123.523C161.201 122.759 161.09 121.971 161.329 121.197C161.456 120.589 161.523 119.969 161.528 119.347C161.271 118.996 160.868 118.896 160.659 119.28C160.451 119.665 160.132 119.692 159.906 119.932L159.36 120.537C159.019 120.916 158.731 121.373 158.157 121.394C158.123 121.386 158.084 121.465 158.043 121.511C158.074 121.61 158.108 121.71 158.132 121.793C157.596 122.176 156.978 122.474 156.557 122.959C156.028 123.549 155.465 124.104 154.869 124.619C154.783 124.722 154.679 124.804 154.561 124.862C154.443 124.919 154.316 124.95 154.186 124.953C154.233 125.582 153.686 125.779 153.371 126.123C152.981 126.549 152.498 126.883 152.088 127.289C151.688 127.671 151.313 128.08 150.965 128.514C150.16 129.525 149.382 130.557 148.601 131.588C148.407 131.93 148.184 132.253 147.936 132.555C146.784 133.641 146.231 135.134 145.45 136.467C144.95 137.322 144.664 138.31 144.26 139.228C144.061 139.648 143.825 140.033 143.534 140.581ZM193.425 137.563C193.839 136.997 194.331 136.57 194.222 135.823C194.217 135.781 194.222 135.739 194.237 135.699C194.251 135.66 194.274 135.624 194.304 135.596C194.783 135.372 194.636 134.892 194.669 134.492L195.278 134.35L194.642 134.044L194.996 133.334C195.05 133.218 195.163 133.087 195.14 133.001C195.052 132.542 195.503 132.061 195.097 131.611C195.074 131.588 195.184 131.441 195.215 131.346C195.271 131.19 195.394 131.002 195.351 130.878C195.299 130.749 195.28 130.609 195.295 130.47C195.311 130.332 195.36 130.199 195.438 130.086C195.535 129.921 195.474 129.657 195.473 129.44C195.449 129.315 195.433 129.188 195.426 129.061C195.505 128.135 195.801 127.246 195.742 126.29C195.734 125.569 195.777 124.848 195.868 124.133C196.007 122.303 195.996 120.466 195.837 118.639C195.783 117.994 195.55 117.35 195.582 116.714C195.628 115.773 195.228 115.042 194.812 114.299C194.64 113.993 194.42 113.544 194.16 113.493C193.487 113.355 193.389 112.732 193.01 112.33C192.658 112.33 192.2 112.633 192.102 111.951C192.109 111.917 191.864 111.913 191.739 111.891C191.267 111.812 190.73 111.978 190.354 111.502C190.304 111.443 190.16 111.456 190.055 111.453C189.422 111.435 189.421 111.438 189.468 110.545C188.947 111.311 188.319 110.966 187.666 110.914C187.81 111.658 187.596 112.291 187.734 112.971C187.92 113.89 187.689 114.872 187.984 115.795C187.997 115.848 187.998 115.903 187.986 115.956C187.975 116.009 187.951 116.058 187.916 116.099C187.687 116.306 187.845 116.498 187.878 116.715C188 117.608 188.089 118.508 188.193 119.404C188.27 120.073 187.91 120.808 188.529 121.429L188.233 121.432C188.29 121.579 188.336 121.732 188.367 121.887C188.456 122.662 188.777 123.375 188.824 124.176C188.905 124.698 188.96 125.224 188.988 125.752C189.013 125.979 189.072 126.201 189.163 126.408C189.293 126.807 189.436 127.208 189.552 127.604C189.744 128.326 189.883 129.08 190.125 129.781C190.286 130.219 190.402 130.675 190.472 131.139C190.556 131.684 190.671 132.222 190.818 132.751C190.844 132.842 191.032 132.883 191.127 132.943L191.136 133.095L190.721 133.063C191.536 133.764 191.536 133.764 191.232 134.438C191.465 134.88 192.231 135.044 191.842 135.749L192.554 136.235L192.393 136.965C192.556 136.997 192.716 137.046 192.87 137.112C193.065 137.248 193.251 137.399 193.425 137.563ZM10.0822 65.0447L9.68351 64.4939C8.99648 64.926 8.99648 64.926 9.11239 66.1964C9.29469 65.9456 9.43606 65.7366 9.60853 65.546C9.781 65.3554 9.87908 65.2464 10.0822 65.0447ZM2.46802 95.9344C2.71219 95.6473 2.93052 95.3374 3.12025 95.0086C3.38514 94.4172 3.23717 94.2275 2.60807 94.2874C2.55014 94.2983 2.49583 94.3246 2.45035 94.3638L2.46802 95.9344ZM144.394 128.884L145.301 128.331C144.814 128.071 144.249 128.019 143.724 128.188C143.776 128.306 143.786 128.371 143.821 128.402C144.004 128.563 144.191 128.718 144.394 128.884ZM185.855 75.5375C185.637 76.2799 185.637 76.2799 186.124 76.9401C185.973 76.323 186.32 76.0565 186.768 75.8651L186.724 75.6966L185.855 75.5375ZM0.985915 112.9C1.42861 112.49 1.69997 112.742 1.94296 113.091C1.97129 112.439 1.27212 112.641 1.09554 112.231L0.985915 112.9ZM144.372 98.945C144.93 99.0448 144.692 98.4696 144.931 98.3427L145.608 98.1915C145.02 98.0697 144.622 98.306 144.372 98.945ZM94.022 46.5126L93.8475 46.4269C93.4063 46.8293 93.4063 46.8293 93.7056 47.2094C93.8133 46.9776 93.9161 46.7521 94.0181 46.53L94.022 46.5126ZM95.3275 85.3572L94.7241 84.9047C94.5629 85.4252 94.5629 85.4252 95.3275 85.3572ZM9.96369 62.8656C9.97665 63.3466 9.98871 63.6731 10 64.003C10.0703 63.9262 10.1252 63.8355 10.1615 63.7363C10.1978 63.6371 10.2148 63.5314 10.2114 63.4254C10.208 63.3194 10.1844 63.2153 10.1418 63.1191C10.0993 63.023 10.0387 62.9368 9.96369 62.8656ZM182.871 93.8625L182.924 93.8309C182.913 93.7959 182.897 93.7633 182.875 93.7347C182.414 93.3711 182.273 93.356 181.833 93.674L182.871 93.8625ZM150.167 60.6435C150.749 60.2416 150.751 60.1355 150.272 59.7237C150.239 59.999 150.21 60.2751 150.167 60.6435ZM154.853 115.074L154.895 115.264C155.148 115.255 155.52 115.623 155.588 114.856L154.853 115.074ZM181.686 123.867C182.361 123.63 182.361 123.63 182.119 123.102C181.982 123.342 181.87 123.543 181.685 123.87L181.686 123.867ZM6.53468 72.7894L6.63557 73.001L7.40633 72.6991L7.31029 72.5292L6.53468 72.7894ZM180.643 115.923L181.465 115.644L180.642 115.448C180.642 115.607 180.643 115.713 180.643 115.923ZM95.1912 84.2584L95.3529 84.2271C95.3736 83.8643 95.4677 83.5191 95.1043 83.2377C95.1196 83.402 95.1548 83.5635 95.2089 83.7185C95.2194 83.8986 95.2135 84.0794 95.1912 84.2584ZM2.22467 106.727L2.19911 106.541L1.59985 106.593C1.63139 106.689 1.67599 106.868 1.69425 106.865C1.87314 106.829 2.05017 106.782 2.22467 106.727ZM183.207 122.578C183.341 122.305 183.451 122.077 183.562 121.846C182.979 121.829 182.969 121.874 183.207 122.578ZM65.0784 40.1626L65.2861 40.2892C65.3905 40.1538 65.4876 40.0124 65.577 39.8658C65.5809 39.8483 65.4804 39.7619 65.4296 39.7057L65.0784 40.1626ZM1.60536 108.536C1.37077 108.292 1.52674 107.859 1.13753 107.979C1.05392 108.007 1.06008 108.329 1.00663 108.57L1.60536 108.536ZM2.49354 106.879L2.31548 106.984L2.56523 107.54L2.74997 107.437L2.49354 106.879ZM93.0076 93.692L92.9426 93.8897L93.4284 94.1268C93.4364 94.0518 93.4269 93.976 93.4008 93.9058C93.3747 93.8355 93.3328 93.773 93.2786 93.7234C93.2187 93.676 93.1032 93.689 93.0076 93.692ZM148.841 123.427C148.56 123.11 148.56 123.11 148.284 123.368L148.841 123.427ZM145.373 126.278L145.154 126.344C145.202 126.477 145.25 126.609 145.307 126.748C145.351 126.741 145.394 126.726 145.433 126.704C145.434 126.558 145.408 126.419 145.393 126.28L145.373 126.278ZM147.143 123.486L147.019 123.552L147.215 123.967L147.355 123.893C147.297 123.758 147.225 123.623 147.16 123.472L147.143 123.486ZM2.1378 103.088L2.31589 103.539C2.45094 103.2 2.45094 103.199 2.1378 103.088ZM1.38221 103.1L1.29514 103.27L1.71952 103.514C1.74175 103.451 1.75633 103.386 1.7629 103.319C1.6475 103.236 1.51742 103.172 1.38066 103.107L1.38221 103.1ZM139.498 136.425C139.747 136.885 139.904 136.625 140.073 136.463L139.498 136.425ZM138.765 138.508L139.32 138.971C139.168 138.483 139.168 138.483 138.765 138.508ZM145.897 94.7965L145.842 94.6179L145.344 94.7826L145.409 94.9819L145.897 94.7965ZM95.6848 54.8983C95.4843 54.8506 95.374 54.8243 95.3094 54.8457C95.204 54.9309 95.1124 55.0332 95.0381 55.1488C95.2181 55.1622 95.3027 55.1934 95.3647 55.1677C95.4829 55.0855 95.5917 54.9892 95.6887 54.8809L95.6848 54.8983ZM96.4057 53.1396L96.6715 52.9565L96.435 52.595L96.3132 52.6837C96.3471 52.8168 96.3804 52.9681 96.4096 53.1221L96.4057 53.1396ZM181.099 119.069L181.298 119.028L181.182 118.555C181.131 118.576 181.038 118.598 181.042 118.614C181.053 118.766 181.073 118.918 181.099 119.069ZM151.681 65.5266C151.696 65.4567 151.732 65.3917 151.754 65.3234L151.211 65.1537L151.165 65.3632L151.681 65.5266ZM2.64258 109.397L2.73691 109.162L2.21913 108.957L2.14955 109.128L2.64258 109.397ZM2.73647 115.019L2.52548 115.145L2.72416 115.582L2.9027 115.507L2.73647 115.019ZM191.249 111.337C191.141 111.237 191.073 111.133 191.019 111.138C190.972 111.146 190.926 111.163 190.886 111.19C190.846 111.216 190.811 111.251 190.784 111.292C190.772 111.345 190.851 111.451 190.889 111.534L191.249 111.337ZM151.721 60.5539L151.788 60.3787L151.335 60.1679L151.254 60.373L151.721 60.5539ZM151.848 61.566C151.75 61.5003 151.642 61.4522 151.528 61.4236C151.478 61.4116 151.422 61.5197 151.372 61.5738C151.441 61.6374 151.52 61.6885 151.605 61.7251C151.659 61.7378 151.726 61.6582 151.855 61.5676L151.848 61.566ZM180.617 111.151L180.343 111.325L180.62 111.66L180.867 111.483L180.617 111.151ZM150.47 62.9881C150.348 62.8413 150.279 62.7073 150.228 62.7136C150.178 62.7199 150.066 62.8258 149.988 62.8918C150.038 62.955 150.079 63.0532 150.142 63.0718C150.205 63.0904 150.301 63.0361 150.47 62.9881ZM187.022 73.4475C186.776 73.0836 186.668 73.2971 186.561 73.5288L187.022 73.4475ZM183.319 84.8466L183.247 85.0281L183.563 85.188L183.655 84.9966L183.319 84.8466ZM140.325 135.964L140.432 135.831C140.334 135.754 140.233 135.682 140.128 135.615C140.111 135.611 140.052 135.686 140.016 135.721L140.325 135.964ZM145.785 96.0458L145.933 95.901L145.601 95.605L145.463 95.7853L145.785 96.0458ZM1.61781 97.1181C1.52096 96.9995 1.44571 96.8786 1.4259 96.8886C1.34342 96.942 1.2661 97.0036 1.19505 97.0727C1.24258 97.1281 1.28828 97.2235 1.33663 97.2277C1.38497 97.2318 1.49793 97.1668 1.61781 97.1181ZM226.265 37.9098C226.142 37.8143 226.08 37.7297 226.035 37.7411C225.945 37.7742 225.86 37.8209 225.783 37.8795C225.838 37.9331 225.887 38.0293 225.944 38.0281C226 38.0268 226.115 37.9696 226.265 37.9098ZM105.563 117.209C105.896 116.774 105.812 116.643 105.413 116.618L105.563 117.209ZM180.325 98.79L180.093 98.8047L180.191 99.2509L180.354 99.216L180.325 98.79ZM11.919 60.5072L12.0687 60.4031L11.8186 60.0237L11.7066 60.1L11.919 60.5072ZM183.449 123.867L183.564 123.807L183.347 123.343L183.215 123.411L183.449 123.867ZM197.038 134.346C196.905 134.421 196.787 134.463 196.786 134.496C196.802 134.591 196.833 134.683 196.878 134.767C196.944 134.739 197.052 134.724 197.062 134.683C197.07 134.57 197.062 134.456 197.038 134.346ZM3.34273 88.4358C3.4488 88.3066 3.51879 88.2608 3.5245 88.2033C3.51938 88.128 3.49976 88.0545 3.46682 87.9874C3.40482 88.0131 3.29525 88.0311 3.29085 88.0668C3.29325 88.1916 3.31069 88.3156 3.34273 88.4358ZM196.859 133.153C196.612 133.237 196.506 133.348 196.813 133.616C196.834 133.408 196.849 133.279 196.859 133.153ZM11.7014 60.79C11.6351 60.708 11.5928 60.6134 11.5444 60.6092C11.5092 60.6133 11.4753 60.6261 11.4457 60.6465C11.4161 60.667 11.3915 60.6945 11.3741 60.7268C11.3663 60.7617 11.4282 60.8794 11.4724 60.8862C11.5167 60.8931 11.5998 60.8357 11.7014 60.79ZM181.932 101.316C181.886 101.244 181.831 101.178 181.769 101.119C181.749 101.114 181.648 101.157 181.65 101.179C181.657 101.254 181.674 101.327 181.7 101.397L181.932 101.316ZM197.341 136.786L197.576 136.665C197.517 136.595 197.451 136.532 197.378 136.479C197.354 136.473 197.251 136.559 197.234 136.621C197.216 136.683 197.298 136.743 197.337 136.804L197.341 136.786ZM196.209 136.734C196.277 136.684 196.339 136.628 196.395 136.564C196.399 136.543 196.358 136.442 196.334 136.44C196.31 136.438 196.176 136.454 196.153 136.496C196.129 136.538 196.174 136.641 196.209 136.752L196.209 136.734ZM1.93572 90.8291L2.01871 90.9151L2.24882 90.6867L2.15401 90.5906L1.93572 90.8291ZM181.895 121.302C181.831 121.386 181.752 121.441 181.746 121.502C181.739 121.563 181.811 121.635 181.849 121.703C181.92 121.65 181.983 121.586 182.035 121.512C182.042 121.481 181.953 121.393 181.889 121.301L181.895 121.302ZM13.7336 57.1961L13.8296 57.1123L13.5904 56.8421L13.5199 56.9062L13.7336 57.1961ZM85.1784 112.698C85.0816 112.785 84.99 112.833 84.9522 112.909C84.9143 112.985 85.0117 113.037 85.0495 113.105C85.1236 113.056 85.2187 113.024 85.2692 112.955C85.3197 112.886 85.2313 112.825 85.1851 112.7L85.1784 112.698ZM204.513 41.9603L204.514 42.1445L204.867 42.1403C204.857 42.0901 204.855 42.005 204.835 42.0002C204.729 41.9797 204.621 41.9664 204.513 41.9603ZM182.129 95.7633L182.227 95.7499L182.204 95.4098L182.07 95.4292L182.129 95.7633ZM95.8743 81.4796L95.9389 81.3626L95.6575 81.1559L95.5488 81.3285L95.8743 81.4796ZM91.2786 99.3141C91.2091 99.3417 91.1402 99.351 91.1355 99.372C91.1324 99.4466 91.1359 99.5212 91.1459 99.5951C91.1889 99.5759 91.2552 99.5623 91.2655 99.5316C91.2817 99.4545 91.2874 99.3754 91.2825 99.2967L91.2786 99.3141ZM192.395 60.6954L192.356 60.8701C192.496 60.9035 192.633 60.9361 192.774 60.9695L192.805 60.8298C192.674 60.7693 192.537 60.7366 192.405 60.6796L192.395 60.6954ZM183.552 84.4132C183.63 84.3324 183.717 84.287 183.718 84.2358C183.719 84.1845 183.653 84.1025 183.619 84.032C183.557 84.0759 183.458 84.1076 183.442 84.1627C183.427 84.2178 183.507 84.2812 183.563 84.3973L183.552 84.4132ZM145.113 96.7756L145.155 96.9694L145.565 96.8648L145.535 96.7143L145.113 96.7756ZM97.1867 63.2641L97.199 63.3994L97.5853 63.3553L97.5748 63.2278L97.1867 63.2641ZM183.845 83.6004L183.898 83.7123L184.22 83.5575L184.163 83.4336L183.845 83.6004ZM190.542 65.5122L190.536 65.3638L189.991 65.3775L189.998 65.5337L190.542 65.5122ZM187.04 73.9849L186.809 73.7901C186.767 73.8501 186.684 73.9258 186.695 73.969C186.737 74.0497 186.793 74.1216 186.859 74.1809L187.04 73.9849ZM5.43281 72.6484L5.44606 72.795L5.84061 72.7455L5.82761 72.6137L5.43281 72.6484ZM151.543 64.5451L151.431 64.4781C151.372 64.5854 151.309 64.6954 151.25 64.8027C151.289 64.824 151.33 64.8422 151.372 64.8574C151.433 64.7578 151.488 64.6498 151.543 64.5451ZM151.412 145.604L151.5 145.824L151.963 145.544L151.882 145.385L151.412 145.604ZM187.337 71.6324C187.286 71.6976 187.245 71.7714 187.218 71.8505C187.205 71.9099 187.28 72.0308 187.302 72.0286C187.386 72.0061 187.467 71.9722 187.542 71.9277L187.337 71.6324ZM1.51763 113.342L1.46802 113.312C1.43364 113.347 1.40555 113.387 1.3851 113.432C1.36472 113.501 1.34919 113.571 1.33863 113.642L1.51763 113.342ZM94.3994 85.9562C94.3434 86.0062 94.294 86.0637 94.2524 86.1271C94.2462 86.1551 94.293 86.214 94.3186 86.2569C94.3797 86.2188 94.436 86.1729 94.4862 86.1203C94.4862 86.1203 94.4423 86.0326 94.3994 85.9562ZM1.65383 115.537L1.68172 115.411L1.38529 115.304L1.35663 115.433L1.65383 115.537ZM93.0878 91.902L93.2023 91.83L92.9446 91.5958L92.8931 91.6534L93.0878 91.902ZM94.5913 88.2963L94.5875 88.5196L94.9691 88.4965L94.9795 88.3703L94.5913 88.2963ZM181.846 111.801C181.963 111.733 182.071 111.703 182.076 111.664C182.072 111.569 182.052 111.475 182.018 111.386C181.956 111.411 181.848 111.422 181.84 111.461C181.823 111.572 181.821 111.685 181.832 111.797L181.846 111.801Z" fill="url(#paint0_linear_85_10894)"/>
<defs>
<linearGradient id="paint0_linear_85_10894" x1="157.374" y1="65.1928" x2="68.3421" y2="48.6862" gradientUnits="userSpaceOnUse">
<stop stop-color="#423ED8"/>
<stop offset="1" stop-color="#7583FF"/>
</linearGradient>
</defs>
</svg>
