<svg width="260" height="151" viewBox="0 0 260 151" fill="none" xmlns="http://www.w3.org/2000/svg">
<path d="M142.459 123.917C142.362 123.822 142.304 123.693 142.297 123.557C142.289 123.42 142.333 123.286 142.419 123.18C142.818 122.631 143.175 122.055 143.554 121.488C143.582 121.445 143.618 121.379 143.662 121.368C144.406 121.185 144.43 120.406 144.821 119.866L145.635 120.107L145.691 120.017C145.552 119.889 145.4 119.759 145.2 119.575C145.817 118.918 146.428 118.277 147.029 117.626C147.347 117.307 147.641 116.966 147.909 116.605C148.242 116.133 148.214 116.116 148.802 116.35C148.765 116.069 148.448 115.724 149.032 115.611C149.208 115.577 149.327 115.226 149.466 115.003C149.718 114.642 150.039 114.334 150.41 114.099C150.717 113.83 151.008 113.543 151.281 113.239C151.782 112.784 152.319 112.367 152.812 111.904C153.578 111.178 154.479 110.628 155.245 109.888C156.011 109.149 156.946 108.592 157.83 107.964C157.893 107.919 158.027 107.932 158.053 107.878C158.464 107.095 159.246 106.808 159.954 106.426C160.114 106.342 160.238 106.201 160.3 106.03C160.363 105.859 160.36 105.672 160.293 105.503C159.887 104.215 159.75 102.861 159.139 101.628C158.821 100.982 158.735 100.226 158.275 99.6186C157.869 99.1148 157.586 98.5218 157.449 97.8871C157.422 97.7464 157.262 97.5259 157.18 97.5318C156.541 97.5369 156.407 96.8837 155.962 96.6366C155.398 96.3268 155.024 95.8659 155.414 95.0362L154.723 95.3583C154.578 94.3277 153.939 93.7813 153.125 93.3715C152.844 93.2097 152.574 93.0295 152.316 92.832C152.039 93.0158 152.281 93.8848 151.479 93.3469C151.642 94.0245 151.674 94.5904 151.186 95.0653C151.068 95.1798 151.096 95.4583 151.08 95.6634C151.06 95.8993 151.062 96.1365 151.086 96.3719C151.118 96.6445 150.506 96.6524 150.831 97.0207C150.18 97.0762 150.782 97.4337 150.69 97.6354C150.404 98.2381 150.127 98.8498 149.889 99.474C149.61 100.213 149.374 100.965 149.113 101.707C149.041 101.968 148.936 102.218 148.801 102.453C148.547 102.884 148.334 103.338 148.167 103.81C147.949 104.287 147.715 104.767 147.515 105.258C147.314 105.75 147.197 106.246 147.041 106.741C147.015 106.819 146.982 106.894 146.944 106.966C146.32 108.152 145.696 109.346 145.01 110.496C144.786 110.866 144.59 111.253 144.425 111.653C144.258 112.06 143.841 112.35 143.797 112.863C143.788 113.009 143.576 113.166 143.412 113.269C143.191 113.392 143.085 113.502 143.169 113.779C143.272 114.157 142.771 114.169 142.72 114.557C142.67 114.945 142.251 115.241 141.997 115.582C141.891 115.698 141.804 115.831 141.742 115.976C141.544 116.638 141.093 117.153 140.732 117.717C139.984 118.875 139.223 120.024 138.449 121.164C138.254 121.419 138.04 121.658 137.808 121.88C136.984 122.751 136.402 123.82 135.571 124.686C135.228 125.1 134.843 125.476 134.423 125.809C134.166 125.979 134.315 126.201 134.169 126.348C133.789 126.771 133.386 127.173 132.963 127.552C132.741 127.753 132.531 127.965 132.333 128.189C131.739 128.743 131.111 129.259 130.453 129.734C130.336 129.827 130.12 129.87 130.084 129.978C129.874 130.665 129.217 130.702 128.727 130.847C128.238 130.993 127.76 130.997 127.476 131.547C127.279 131.823 127.04 132.067 126.77 132.272C126.369 132.353 125.974 132.461 125.587 132.594C124.868 132.889 124.181 133.268 123.451 133.543C123.167 133.651 122.805 133.532 122.495 133.599C122.214 133.665 121.947 133.787 121.712 133.956C121.554 134.065 121.46 134.425 121.353 134.418C120.905 134.4 120.492 134.765 120.033 134.532C119.838 134.436 119.637 134.355 119.43 134.288C119.25 134.246 119.07 134.205 118.887 134.163C118.441 134.06 118.225 134.693 117.701 134.488C117.271 134.384 116.829 134.341 116.387 134.359C116.374 134.296 116.34 134.168 116.306 134.04L115.056 134.128C114.964 133.973 114.848 133.834 114.712 133.716C114.503 133.618 114.288 133.534 114.068 133.466C113.894 133.376 113.725 133.276 113.562 133.166L113.682 132.84L112.824 132.961L113.088 132.452L111.569 131.933C111.53 131.691 111.483 131.376 111.431 131.007C111 131.007 110.58 130.942 110.618 130.318C110.622 130.209 110.403 130.095 110.313 129.969C110.098 129.654 109.677 129.469 109.737 128.966C109.759 128.869 109.575 128.724 109.462 128.638C108.903 128.216 108.902 127.516 108.632 126.951C108.599 126.884 108.744 126.726 108.793 126.635C108.087 125.801 107.361 125.036 106.745 124.194C105.997 123.174 105.19 122.154 104.831 120.926C104.506 119.79 104.013 118.701 104.011 117.488C103.976 117.3 103.918 117.118 103.838 116.946C103.773 116.717 103.719 116.485 103.678 116.251C103.605 115.852 103.549 115.454 103.483 115.057C103.448 114.954 103.424 114.848 103.412 114.74C103.456 114.043 103.497 113.345 103.568 112.672C103.644 112.134 103.662 111.589 103.622 111.047C103.597 110.513 103.701 109.979 103.926 109.494C104.135 108.983 104.09 108.371 104.239 107.829C104.428 107.127 104.696 106.449 104.931 105.761C105.009 105.621 105.063 105.47 105.09 105.313C105.047 104.341 105.667 103.596 105.949 102.738C106.247 101.997 106.605 101.282 107.018 100.6C107.159 100.325 107.454 100.109 107.299 99.7307C107.273 99.6611 107.366 99.5304 107.427 99.4456C107.89 98.8057 108.362 98.1715 108.822 97.5276C109.132 97.0932 109.213 96.5566 109.586 96.1259C110.491 95.0857 111.359 94.0119 112.205 92.9227C113.28 91.5939 114.513 90.4021 115.875 89.374C116.127 89.1739 116.414 89.0099 116.653 88.7926C117.169 88.3682 117.737 88.0137 118.344 87.7383C118.458 87.6464 118.555 87.5345 118.63 87.408C119.037 86.9214 119.287 86.8518 119.93 87.0454C119.914 86.8017 119.983 86.5596 120.127 86.3621C120.271 86.1646 120.479 86.0246 120.715 85.9668C121.297 85.749 121.867 85.5012 122.425 85.2245C122.681 85.0803 122.926 84.9167 123.158 84.7352L123.755 84.9574L123.875 84.8647L123.39 84.6685L124.536 84.2599C125.244 84.0018 125.959 83.7594 126.659 83.478C126.991 83.3423 127.285 83.1163 127.609 82.9574C127.867 82.8291 131.59 82.1288 131.857 82.0663C133.031 81.795 134.233 81.859 135.415 81.7204C135.766 81.6789 136.121 81.6691 136.474 81.6914C137.733 81.7793 138.991 81.9516 140.248 81.9434C140.6 81.9394 140.701 82.0968 140.917 82.2669C141.54 81.6496 142.12 82.1897 142.707 82.367C142.881 82.4068 142.965 82.5571 143.192 82.4395C143.401 82.3826 143.622 82.3974 143.821 82.4814C144.476 82.6815 145.094 82.9049 145.833 83.1559C145.782 82.628 146.279 82.4487 146.189 81.94C146.117 81.5697 146.31 81.126 146.396 80.7214C146.449 80.3888 146.525 80.06 146.622 79.7373C146.807 79.1623 146.886 78.5586 146.856 77.9557C146.856 77.9278 146.862 77.9002 146.874 77.8751C147.271 77.1444 147.398 76.2969 147.235 75.4826C147.896 74.6656 147.484 73.5737 147.956 72.6813C148.151 72.3053 147.985 71.7439 148.001 71.2773C148.011 70.8228 148.045 70.3691 148.103 69.918C148.145 69.6272 148.517 69.3519 148.121 69.0486C148.121 69.0486 148.104 68.9846 148.117 68.9735C148.79 68.2866 148.113 67.2964 148.67 66.5651C148.782 66.414 148.651 66.0976 148.701 65.865C148.843 65.247 148.745 64.5914 148.894 64.0033C149.046 63.4996 149.094 62.9701 149.034 62.4477C149.025 61.9365 148.637 61.3522 149.133 60.8261C149.258 60.6957 149.175 60.369 149.198 60.1337C149.22 59.8984 148.74 59.53 149.306 59.3242C149.306 59.3242 149.257 59.1288 149.231 59.0274C149.167 58.8476 149.126 58.6599 149.11 58.4693C149.14 57.394 149.305 56.3109 149.205 55.2483C149.117 54.3017 149.243 53.3581 149.149 52.4418C149.078 51.8809 149.202 51.2941 148.986 50.753C148.937 50.6153 148.918 50.4681 148.932 50.3221C148.945 50.1761 148.991 50.0347 149.065 49.9082C149.184 49.6316 149.427 49.2454 149.001 48.9636C149.201 48.3234 148.787 47.6837 149.016 47.0362C149.047 46.8528 149.035 46.6648 148.981 46.4871C148.962 46.3555 148.874 46.222 148.886 46.0939C149.039 44.6191 148.39 43.2431 148.409 41.787C148.416 41.2228 148.059 40.7022 148.288 40.104C148.346 39.9582 148.092 39.7054 148.073 39.5136C148.041 39.1248 148.032 38.7343 148.047 38.3442C148.048 38.1854 148.131 37.9781 148.076 37.8807C147.648 37.2412 147.657 36.5007 147.533 35.7896C147.495 35.5865 147.318 35.4114 147.285 35.2057C147.123 34.2599 147.019 33.3094 146.84 32.3631C146.735 31.7695 146.567 31.1864 146.429 30.596C146.251 29.8477 146.089 29.1032 145.916 28.3564C145.875 28.1701 145.82 27.9807 145.772 27.8104C145.668 27.4082 145.362 27.0762 145.497 26.5803C145.533 26.4258 145.306 26.0378 145.19 25.7779C144.835 24.9605 144.584 24.1008 144.442 23.2191C144.391 22.8225 144.263 22.4401 144.066 22.093C143.688 21.4367 143.64 20.6229 143.085 20.0321C142.885 19.768 142.75 19.4595 142.692 19.1321C142.48 18.3302 141.637 17.9844 141.376 17.2312L141.349 17.2535L141.992 17.4012L142.049 17.2905L141.435 16.9124L141.455 16.917C141.312 16.7217 141.184 16.5151 141.074 16.2991C140.974 16.0539 140.81 15.8403 140.601 15.6802C140.391 15.5202 140.142 15.4194 139.881 15.3884L139.77 15.8687C139.667 15.845 139.537 15.8152 139.536 15.7759C139.494 15.1969 139.014 15.207 138.638 15.1029C138.325 15.031 138.025 14.9939 137.926 14.5857C137.894 14.4368 137.608 14.279 137.42 14.2537C136.964 14.1949 136.835 13.8859 136.745 13.5151L137.102 13.4875C137.09 13.3858 137.116 13.2432 137.061 13.195C136.89 13.069 136.709 12.9566 136.521 12.8588C136.488 13.0033 136.434 13.0971 136.455 13.1443C136.541 13.275 136.637 13.3987 136.742 13.5143C136.582 13.5095 136.423 13.4941 136.265 13.4684C135.872 13.3781 135.705 13.1276 135.829 12.7247L134.81 12.4905L134.502 12.8371L134.074 12.0915L133.408 12.4583C133.093 12.1632 132.804 11.8209 132.284 11.9773C132.186 12.0077 131.972 11.81 131.885 11.6698C131.798 11.5296 131.832 11.3642 131.811 11.2143C131.381 11.3066 130.947 11.3686 130.509 11.3997C130.382 11.4065 130.256 11.3862 130.138 11.3401C130.02 11.2941 129.913 11.2234 129.824 11.1326C129.6 10.7629 129.351 10.8718 129.059 10.9356C128.806 11.0017 128.54 10.991 128.294 10.905L128.508 10.6782C128.508 10.6782 128.473 10.6313 128.442 10.6278C127.892 10.5108 127.332 10.4495 126.77 10.445C125.893 10.5195 124.954 10.0279 124.129 10.7681L123.524 10.3464L123.384 10.788L122.893 10.3747C122.833 10.361 122.767 10.3456 122.728 10.3791C122.068 10.7165 121.315 10.8168 120.593 10.6631C120.322 10.6221 120.169 10.7565 119.965 10.7733C119.568 10.7771 119.172 10.7534 118.779 10.7023C118.746 10.7842 118.696 10.8582 118.633 10.9195C118.57 10.9809 118.495 11.0282 118.412 11.0583C118.33 11.0884 118.242 11.1007 118.155 11.0944C118.068 11.0881 117.983 11.0632 117.906 11.0216C117.47 10.8578 117.066 11.122 116.696 11.327C116.602 11.3937 116.492 11.4337 116.378 11.4429C116.263 11.4521 116.149 11.4301 116.046 11.3792C115.698 11.2581 115.319 11.2597 114.972 11.3835C114.317 11.6579 113.677 11.9651 113.053 12.304L112.507 11.9487L112.567 12.5992L112.098 12.7353C112.04 12.6195 111.969 12.3519 111.545 12.6082C111.125 12.8134 110.683 12.9694 110.228 13.0731C110.228 13.1826 110.225 13.3481 110.223 13.6164L109.331 13.27C108.96 13.4818 108.629 13.9291 108.065 13.9126C107.992 13.8958 107.906 14.1625 107.825 14.2996C107.587 14.3207 107.352 14.3778 107.13 14.4688C106.675 14.6047 106.21 14.6888 105.607 14.8261C105.564 14.8905 105.435 15.0871 105.281 15.3135L104.689 15.1279L104.894 15.762C104.649 15.9602 104.463 16.2358 104.062 16.0128C103.882 15.9113 102.761 16.4706 102.592 16.7006C102.354 17.0207 102.179 17.4155 101.641 17.1611C101.549 17.1187 101.258 17.3029 101.2 17.4345C101.042 17.8757 100.668 17.9312 100.316 18.0448L100.36 17.8533C100.261 17.8587 100.117 17.8292 100.069 17.882C99.9958 17.9969 99.9398 18.1223 99.9033 18.254L99.9087 18.2305C99.745 18.2565 99.5564 18.238 99.4251 18.3209C99.2938 18.4039 99.1634 18.6816 98.9903 18.7939C98.8172 18.9062 98.6689 18.8191 98.4468 18.8246C97.8464 19.3621 97.1811 19.9836 96.4828 20.5658C96.2087 20.7524 95.9631 20.9783 95.7536 21.2363C95.637 21.4475 95.4442 21.6055 95.2154 21.6774C94.9866 21.7493 94.7394 21.7296 94.5253 21.6224C94.5584 21.8599 94.5767 22.0091 94.5991 22.1557C93.9381 22.5908 93.2218 22.9001 92.6099 23.442C91.7676 24.1926 90.7687 24.7552 89.7392 25.4664C89.6894 25.6906 89.7151 25.925 89.8122 26.1323C89.9094 26.3397 90.0724 26.5083 90.2756 26.6116C90.3977 27.3469 91.1699 27.4501 91.5398 27.9311C91.9097 28.4122 92.2387 29.0253 92.598 29.5675C92.7036 29.6878 92.8223 29.7957 92.9518 29.8893C93.2074 30.1355 93.5767 30.2981 93.5802 30.7409C93.5748 30.7645 93.5871 30.8026 93.6055 30.8139C93.9257 31.0568 94.1939 31.3621 94.3943 31.7119C94.5946 32.0617 94.723 32.4487 94.7717 32.85C94.8 33.0015 95.0608 33.118 95.2519 33.2327C95.6778 33.5003 96.0919 33.7581 95.9666 34.3799C96.139 34.8441 96.3764 35.2808 96.6714 35.677C96.7393 35.7184 96.8008 35.7694 96.854 35.8286C97.1864 36.3506 97.5427 36.8603 97.834 37.4082C97.927 37.6773 97.9805 37.9588 97.9927 38.2438C98.0152 38.3445 97.9981 38.5103 98.0575 38.5416C98.5173 38.7993 98.3961 39.3267 98.6039 39.6891C98.7433 39.9749 98.9055 40.2487 99.089 40.5078C99.3178 40.7938 99.5229 41.046 99.0962 41.3158L99.7555 41.9871L99.2889 42.1557C99.773 42.4756 100.258 42.7745 99.7686 43.4258L100.208 43.6329C100.158 43.9542 100.183 44.2827 100.282 44.5918C100.381 44.9008 100.551 45.1817 100.778 45.4117C100.924 45.5583 101.023 45.7461 101.061 45.9506C101.122 46.6328 101.037 47.3383 101.528 47.9179C101.564 47.958 101.397 48.2415 101.404 48.243C101.861 48.4682 101.18 48.623 101.367 48.8146C101.555 49.0061 101.817 49.1159 101.866 49.3146C101.918 49.6897 101.935 50.0689 101.918 50.4475C101.94 50.7594 101.986 51.0691 102.055 51.3738C102.129 51.6806 102.031 52.0754 102.191 52.3102C102.55 52.8065 102.367 53.4363 102.696 53.9433C102.814 54.1296 102.647 54.505 102.591 54.9341C102.775 55.1993 103.144 55.5775 102.905 56.1308C103.22 56.4826 103.177 56.9181 103.167 57.3403C103.152 57.5114 103.125 57.6812 103.085 57.8484C103.064 57.9425 103.005 58.0916 103.046 58.1292C103.36 58.4384 103.154 58.8013 103.165 59.1361C103.185 59.3989 102.979 59.7442 103.4 59.8975C103.46 59.9112 103.508 60.0991 103.487 60.1898C103.321 60.9119 103.588 61.5991 103.63 62.3018C103.65 62.6423 103.535 62.9873 103.535 63.3408C103.546 64.4044 103.593 65.4972 103.59 66.5786C103.585 67.8364 103.614 69.1018 103.488 70.3496C103.404 71.2037 103.541 72.0415 103.449 72.8866C103.28 74.4745 103.416 76.0828 102.946 77.6546C102.72 78.4231 102.84 79.2888 102.734 80.1025C102.546 81.3925 102.267 82.6686 102.066 83.9556C101.916 84.9147 101.864 85.886 101.695 86.8372C101.549 87.6701 101.293 88.4777 101.1 89.3032C100.892 90.2101 100.73 91.1277 100.476 92.0206C100.237 93.0205 99.9279 94.0024 99.5517 94.959C99.3504 95.3988 99.2223 95.8688 99.1725 96.35C99.1375 96.7056 99.0219 97.0486 98.8347 97.3526C98.6476 97.6566 98.3937 97.9135 98.0928 98.1034C98.4404 98.59 98.7444 99.0523 98.1056 99.5739C97.9722 99.6812 98.0898 100.055 98.0045 100.258C97.3172 101.967 96.9899 103.819 95.9837 105.406C95.7781 105.752 95.6049 106.117 95.4666 106.496C95.3251 106.853 95.2419 107.23 95.1004 107.586C94.8738 108.309 94.5301 108.99 94.0833 109.601C93.915 109.8 93.9552 110.159 93.8427 110.42C93.6172 110.958 93.1902 111.398 93.1237 112.022C93.0937 112.153 92.9088 112.256 92.8249 112.392C92.6067 112.731 92.4078 113.078 92.2023 113.423C91.9572 113.834 91.7331 114.26 91.4644 114.651C91.246 114.975 90.7739 115.153 90.9279 115.673C90.9281 115.687 90.9247 115.701 90.9181 115.714C90.9116 115.727 90.9019 115.738 90.8902 115.746C90.0975 116.143 90.084 117.148 89.4385 117.668C89.3657 117.726 89.3558 117.876 89.338 117.999C89.3202 118.122 89.3888 118.205 89.3724 118.215C88.9184 118.436 88.9082 119 88.5614 119.288C88.2957 119.513 88.0052 119.694 88.0489 120.114C88.0384 120.165 88.0167 120.213 87.9854 120.254C87.9541 120.295 87.914 120.329 87.8681 120.352C87.5111 120.559 87.2448 120.895 87.1228 121.291C86.7998 121.98 86.3142 122.579 85.7087 123.035C85.5492 123.165 85.4186 123.328 85.3254 123.513C85.0782 123.993 84.6374 124.309 84.3229 124.732C84.0083 125.155 83.6801 125.606 83.3525 126.04C83.2601 126.177 83.1472 126.297 83.0178 126.398C82.7417 126.585 82.4987 126.818 82.2989 127.086C81.8117 127.673 81.2646 128.208 80.6666 128.68C80.4489 128.825 80.2148 128.942 79.9692 129.029L80.0199 129.373L78.3055 130.822C77.7266 130.289 77.5312 131.231 77.1628 131.217C77.1549 131.388 77.1489 131.567 77.1456 131.719C76.635 131.683 76.3952 132.161 76.0741 132.399C75.8923 132.552 75.6811 132.665 75.454 132.731C75.2269 132.798 74.9887 132.816 74.7545 132.785C74.3133 132.737 74.2174 132.849 74.1539 133.354C73.2406 133.01 73.3212 134.033 72.8138 134.288L71.5609 134.063C71.5994 134.231 71.6275 134.369 71.6875 134.627L70.6204 134.693C70.6031 134.95 70.545 135.203 70.4483 135.442C70.2345 135.792 69.9109 135.445 69.7184 135.444C69.5245 135.693 69.3981 136.014 69.231 136.039C69.0639 136.064 68.753 135.876 68.4799 135.767C68.5786 136.299 68.5786 136.299 68.1399 136.591C68.0674 136.189 67.7907 136.157 67.5699 136.386C67.143 136.839 66.7587 137.062 66.1805 136.618C66.0661 136.577 65.9437 136.565 65.8234 136.581C65.7031 136.598 65.5883 136.643 65.4887 136.714C65.3375 136.819 65.1664 136.893 64.9862 136.929C64.8059 136.966 64.6202 136.964 64.4407 136.925C64.1698 136.899 63.8732 137.106 63.6087 137.067C62.3888 136.882 61.1321 136.964 59.9478 136.533C59.5727 136.422 59.1912 136.335 58.8053 136.271C58.7393 135.902 59.522 136.128 59.1775 135.628C58.283 135.797 57.9556 135.619 57.8645 134.948C57.5622 134.965 57.2593 134.933 56.9671 134.855C56.701 134.673 56.4621 134.454 56.2576 134.204L56.9456 133.987C56.6882 133.87 56.4535 133.709 56.2524 133.509C56.1298 133.326 56.1818 133.023 56.147 132.686L54.4644 132.989C54.5362 132.781 54.6237 132.579 54.7261 132.384C54.8497 132.197 54.997 132.029 55.1958 132.354C55.2257 132.407 55.4929 132.313 55.7079 132.277C55.1932 131.572 54.6021 132.023 54.1273 131.999C54.0306 131.474 53.8831 130.961 53.6871 130.466C53.5021 130.175 53.2148 129.965 52.8824 129.878C52.7232 129.827 52.577 129.742 52.4541 129.628C52.3312 129.514 52.2346 129.375 52.1711 129.219L52.7126 129.305L52.375 128.82C52.2905 129.02 52.2378 129.143 52.1924 129.249C51.4087 129.012 51.5096 128.268 51.457 127.718C51.4045 127.169 51.3738 126.829 50.9325 126.537C50.8075 126.454 50.72 126.325 50.6891 126.177C50.5995 125.644 50.3326 125.159 49.9323 124.801C48.9636 123.872 48.1348 122.806 47.472 121.636C46.9433 120.82 46.4714 119.967 46.0597 119.084C45.8474 118.48 45.5783 117.899 45.2561 117.347C45.132 117.199 45.0519 117.019 45.0249 116.827C45.0525 116.066 44.6868 115.49 44.2542 114.931C44.2037 114.869 44.1734 114.793 44.1675 114.713C44.2081 114.136 44.0922 113.56 43.832 113.045C43.7512 112.878 43.5933 112.665 43.6375 112.533C43.9517 111.608 43.3815 110.809 43.2385 109.966C43.1064 109.229 42.7724 108.47 42.7359 107.697C42.7091 107.097 42.5481 106.516 42.6781 105.874C42.8081 105.232 42.6024 104.555 42.562 103.891C42.5385 103.49 42.6178 103.084 42.254 102.76C42.1987 102.669 42.1671 102.566 42.162 102.46C42.157 102.354 42.1788 102.248 42.2253 102.152C42.5668 101.658 42.3739 101.291 41.9804 100.929C42.5828 100.459 42.2474 99.8585 42.297 99.3218C42.3333 98.9199 42.3521 98.5175 42.3676 98.1144C42.3715 97.9517 42.3668 97.7889 42.3534 97.6267C42.3083 97.0753 42.2519 96.5425 42.2239 95.9774C42.2148 95.897 42.2223 95.8156 42.2462 95.7383C42.27 95.661 42.3095 95.5894 42.3622 95.5282C42.7724 95.2688 42.6992 94.962 42.5768 94.5944C42.545 94.4242 42.5471 94.2492 42.5829 94.0795C42.638 93.4274 42.7903 92.7799 42.682 92.122C42.6528 92.0219 42.6565 91.9149 42.6925 91.8168C43.1865 91.025 43.0087 90.1814 42.9321 89.248L43.3925 88.7703C43.3228 88.5244 43.0009 88.2772 43.375 87.9918C43.4471 87.9377 43.3822 87.6858 43.3596 87.525C43.319 87.1591 43.396 86.7893 43.5792 86.4699C43.7624 86.1505 44.0422 85.8983 44.3775 85.7503L44.6211 86.1246L45.08 85.6536L43.6744 85.3306C43.8187 84.7025 43.9453 84.1517 44.0719 83.6008C44.1164 83.4429 44.1351 83.2788 44.1274 83.115C44.0865 82.7743 44.1657 82.4295 44.3512 82.1409C44.5603 81.6584 44.6791 81.1413 44.7016 80.616C44.762 80.1242 44.5939 79.5586 44.7875 79.1434C44.94 78.8001 45.1615 78.416 45.0803 78.1286C44.915 77.5354 45.1447 77.1921 45.4378 76.7255C45.7036 76.3962 45.8361 75.978 45.8083 75.5553C45.7581 75.2396 45.996 74.8912 46.1314 74.4696L45.8956 74.2599C45.9064 74.2128 45.8878 74.1414 45.9288 74.1154C46.4962 73.5385 46.5473 72.7971 46.7081 72.0667C46.8689 71.4616 47.1041 70.8789 47.4083 70.3321C47.3205 70.1613 47.2819 69.969 47.2969 69.7768C47.3119 69.5847 47.38 69.4004 47.4933 69.2448C47.7424 68.9662 47.8794 68.6041 47.8773 68.2297C47.8727 67.914 48.1716 67.5901 48.3054 67.2672C48.5352 66.6941 48.75 66.1105 48.9614 65.5261C49.0161 65.3795 48.9686 65.1741 49.0679 65.0626C49.2633 64.8437 49.3942 64.5744 49.4458 64.285C49.4974 63.9957 49.4677 63.6979 49.36 63.4252C50.1454 63.1354 50.1386 62.4018 50.2891 61.7928C50.4844 61.0607 50.806 60.3685 51.2394 59.7479C51.347 59.5416 51.4301 59.3233 51.487 59.0976C51.6041 58.7709 51.6271 58.32 51.8512 58.1841C52.256 57.9482 52.0355 57.5651 52.2081 57.3325C52.8226 56.5048 52.9819 55.4911 53.3943 54.5816C53.63 54.0593 53.6659 53.3993 54.3184 53.139C54.3617 52.569 54.8993 52.2434 54.9783 51.625C55.0529 51.0277 55.3363 50.4759 55.7777 50.0689C56.053 49.7888 56.2532 49.4429 56.3593 49.0639C56.5736 48.4058 56.5436 48.399 57.163 47.8552C57.2025 47.8008 57.229 47.7379 57.2403 47.6714C57.3575 47.2988 57.3674 46.8131 57.6154 46.573C58.2174 45.9829 58.3557 45.1518 58.834 44.5049C59.061 44.2035 59.4124 43.8952 59.2973 43.4197C59.2935 43.3915 59.3001 43.3628 59.3158 43.3391L61.5993 40.7413C61.7075 40.3772 61.8384 39.9298 61.9826 39.4396L62.6925 39.097C62.7517 38.2443 63.2696 37.6843 63.841 37.1508C63.9909 37.0033 64.111 36.8279 64.1946 36.6344C64.4734 35.9876 64.8479 35.3869 65.3053 34.8528C66.0481 33.9613 66.745 33.032 67.3932 32.0686C67.5583 31.852 67.7419 31.6504 67.9419 31.4662C68.5143 30.9375 69.022 30.3419 69.4542 29.6919C69.822 29.2314 70.2309 28.8057 70.6756 28.4202C71.106 27.9816 71.5433 27.5587 71.9591 27.092C72.0307 27.0094 72.0011 26.8329 72.0208 26.6712L70.1517 25.9235L69.6917 26.2315L68.644 25.4957L68.0641 25.7762C67.8118 25.5896 67.5428 25.4272 67.2604 25.2909C67.0815 25.2426 66.8928 25.2442 66.7144 25.2953C66.5359 25.3464 66.3743 25.4453 66.2469 25.5814C65.7766 25.9649 65.2907 26.2175 64.7541 25.684C64.6847 25.6456 64.6035 25.6345 64.5263 25.6528C63.9379 25.7263 63.354 25.8255 62.7628 25.8806C62.451 25.8596 62.1382 25.8598 61.8264 25.8811C61.3831 25.9882 60.9575 26.1596 60.5628 26.39C60.2845 26.5547 59.9536 26.6031 59.6412 26.5248C59.0962 26.4858 58.556 26.656 58.1291 27.0013C57.7708 27.2938 57.4495 27.2271 57.0986 27.2737C57.0157 27.2693 56.9358 27.2411 56.8683 27.1925C56.5067 26.9963 56.3948 27.7273 55.9284 27.4221C55.7556 27.3046 55.3195 27.5085 55.0423 27.6464C54.5478 27.9498 54.0101 28.1745 53.4481 28.3127C52.8764 28.4456 52.3617 28.76 51.9796 29.2094C51.611 29.3793 51.251 29.5724 50.8719 29.7116C50.5361 29.8035 50.1953 29.8752 49.8513 29.9262C49.5934 30.2701 49.27 30.8075 48.5129 30.7149C48.4578 30.7019 48.4003 30.7038 48.3461 30.7203C48.2919 30.7369 48.2429 30.7676 48.2042 30.8093C48.1654 30.851 48.1382 30.9022 48.1254 30.9577C48.1125 31.0133 48.1144 31.0713 48.1309 31.1258L48.5928 31.0692C48.5963 31.1761 48.6241 31.2532 48.5972 31.2789C48.3594 31.5354 48.1531 31.8381 47.7104 31.7045C47.6311 31.6881 47.5489 31.6914 47.4709 31.7142C47.393 31.7369 47.3217 31.7785 47.2631 31.8352C47.0114 32.1981 46.6351 32.0657 46.288 32.1415L46.4396 32.6113C46.3331 32.6746 46.2106 32.705 46.0873 32.6986C45.964 32.6923 45.8455 32.6496 45.7464 32.5758L45.7315 33.2054L45.0754 33.0086C45.1067 32.9946 45.0454 33.0018 45.0262 33.0398C44.916 33.2443 44.8277 33.4609 44.7053 33.6733C44.589 33.8864 44.4491 34.0856 44.2883 34.267C44.0585 34.5042 43.8524 34.2871 43.6246 34.21C43.5182 34.1888 43.4082 34.1934 43.3037 34.2235C43.1993 34.2536 43.1033 34.3084 43.0238 34.3832L43.6386 34.5916C43.546 34.7255 43.4234 34.8356 43.2807 34.9128C43.138 34.99 42.9794 35.0322 42.8177 35.036C42.564 35.0413 42.6172 35.6795 42.0838 35.5746L42.1432 35.0719C42.0586 35.0737 41.9321 35.0446 41.9136 35.0793C41.7566 35.3205 41.6288 35.5796 41.5328 35.8511C41.5083 36.0533 41.4126 36.2401 41.2633 36.3777C41.1139 36.5153 40.9207 36.5946 40.7188 36.6012C40.1918 36.6794 39.6873 36.871 39.2397 37.163L39.9193 37.1353C39.6232 37.5694 39.3824 38.0375 38.8176 37.7486C38.696 38.0426 38.5586 38.3297 38.406 38.6088C38.3214 38.7366 38.1969 38.8324 38.0524 38.8811C37.4685 39.0723 37.4091 39.239 37.0515 39.712C36.5222 40.3374 35.9512 40.9258 35.3424 41.4729C35.3355 41.5031 35.1711 41.3946 35.064 41.3417C35.0333 41.5415 34.9642 41.7334 34.8605 41.9067C33.9474 42.8285 32.9836 43.6962 32.0974 44.6383C31.2958 45.4867 30.5685 46.4088 29.8107 47.2955C29.7204 47.3985 29.6518 47.5596 29.5437 47.5878C29.2852 47.6818 29.0499 47.8311 28.8539 48.0254C28.6579 48.2196 28.506 48.4543 28.4084 48.7131C28.0485 49.4862 27.4371 50.0105 26.9161 50.6299C26.395 51.2492 25.9899 51.8068 25.5491 52.4128C24.7057 53.5804 23.837 54.7211 23.0774 55.9362C22.8577 56.2818 22.7548 56.7144 22.4519 57.0408C22.2099 57.2642 22.0254 57.5435 21.9143 57.8544C21.8157 58.1621 21.6433 58.4407 21.4123 58.6656C21.1505 58.9358 20.955 59.2639 20.8415 59.6236C20.7381 60.0736 20.4457 60.3389 20.2253 60.6878C19.6204 61.6415 19.0752 62.6408 18.5257 63.6284C18.5203 63.6519 18.4808 63.6711 18.4787 63.6954C18.3821 64.8791 17.4819 65.6836 17.0633 66.7119C16.7713 67.4334 16.5561 68.1867 16.2766 68.9146C16.1335 69.2402 15.9716 69.5573 15.792 69.8641C15.6853 70.0156 15.602 70.1825 15.545 70.359C15.4479 70.9343 15.0807 71.3875 14.8799 71.9106C14.5051 72.8854 14.1724 73.891 13.8219 74.882C13.7413 75.111 13.7223 75.4072 13.5656 75.5551C13.2301 75.8705 13.1769 76.3003 13.0441 76.68C12.6235 77.8847 12.3948 79.1547 11.7622 80.2753C11.7034 80.3785 11.7509 80.5379 11.7249 80.6663C11.6608 81.0368 11.5766 81.4035 11.4725 81.7647C11.2914 82.3242 11.0082 82.8391 11.1412 83.4814C11.1488 83.8089 11.0895 84.1347 10.9668 84.4386C10.7495 85.3081 10.4848 86.1702 10.3 87.0507C10.1364 87.7628 10.1142 88.5003 9.98721 89.2208C9.80771 90.2157 9.57491 91.1983 9.39208 92.1924C9.24194 93.0137 9.12178 93.8418 9.01161 94.6723C8.87534 95.2656 8.78035 95.8677 8.72734 96.4741C8.68511 97.4217 8.58525 98.3659 8.42832 99.3016C8.32477 100.18 8.20968 101.062 8.1269 101.941C8.09842 102.263 8.2037 102.599 8.15267 102.912C7.95607 104.119 7.97547 105.347 7.7025 106.55C7.55894 107.175 7.71105 107.871 7.7448 108.533C7.78703 109.448 7.8378 110.362 7.89712 111.273C7.95885 112.165 7.76663 113.047 7.98365 113.949C8.1202 114.56 7.98404 115.229 8.00832 115.871C8.03573 116.744 8.14616 117.622 8.18075 118.478C8.22128 119.584 8.46043 120.664 8.52532 121.74C8.57913 122.426 8.69039 123.106 8.85792 123.772C9.02437 124.482 9.27197 125.282 8.69087 126.025C8.54411 126.221 8.46694 126.557 8.30397 126.824C7.96598 127.379 7.34358 127.31 6.83463 127.618C6.5951 127.241 6.29583 126.91 6.41391 126.397C6.42549 126.346 6.44325 126.269 6.42277 126.236C5.95002 125.607 5.98996 124.793 5.65742 124.119C5.58171 123.96 5.3614 123.881 5.18698 123.77C4.87938 123.614 4.58737 123.428 4.31491 123.216C3.78539 122.639 3.38209 121.956 3.13099 121.211C3.09902 121.137 3.05272 121.048 3.07226 120.979C3.16333 120.582 2.96113 120.302 2.81922 119.959C2.48615 119.027 2.26246 118.06 2.1527 117.075C2.02427 116.261 1.86279 115.453 1.6972 114.648C1.5316 113.842 1.3583 113.07 1.1689 112.231L1.9855 112.065C1.89464 111.942 1.84557 111.789 1.76819 111.775C0.990835 111.617 0.984995 110.987 0.905065 110.388C0.862297 110.071 0.801334 109.756 0.754462 109.441C0.735617 109.31 0.675789 109.158 0.724571 109.052C0.957728 108.526 0.849528 108.02 0.772117 107.472C0.719882 107.043 0.695018 106.611 0.697678 106.178C0.664246 105.628 0.666966 105.076 0.705823 104.525C0.795305 104.185 0.932727 103.859 1.11389 103.558L0.184619 103.345L0.765309 102.771L0.307296 102.567L0.644394 102.153C0.650568 102.126 0.659832 102.085 0.662918 102.072C0.093861 101.39 0.532227 100.642 0.466758 99.9193C0.380329 99.1356 0.535585 98.3226 0.572435 97.5212C0.578775 97.3105 0.512852 97.0938 0.532515 96.8862C0.577371 96.6725 0.642965 96.4637 0.728346 96.2628C0.598462 96.1552 0.515336 96.0008 0.496506 95.8322C0.477676 95.6636 0.524615 95.4939 0.627419 95.3591C0.710808 95.2403 0.621329 95.0041 0.615605 94.8153C0.60988 94.6266 0.536242 94.4435 0.610898 94.3475C0.82947 94.083 0.891618 93.9346 0.627197 93.6051C0.505099 93.4497 0.772295 92.9736 0.900572 92.5221C0.855366 92.3526 0.503288 92.0383 1.07114 91.7798C1.21598 91.7141 1.235 91.3719 1.32209 91.1302L0.902458 90.9879C0.88839 90.9346 0.882136 90.8796 0.883898 90.8245C0.937153 90.5927 1.09013 90.3237 1.04212 90.1359C0.891834 89.6911 1.53418 89.5205 1.32626 89.0519C1.1928 88.6977 1.12235 88.3224 1.11814 87.9432C1.1139 87.7252 1.1635 87.5094 1.26246 87.3151C1.40626 86.9945 1.56179 86.7297 1.28506 86.4079C1.24359 86.3595 1.3542 86.1834 1.38941 86.0606C1.42463 85.9379 1.53654 85.7408 1.4882 85.6307C1.45311 85.5517 1.43665 85.4656 1.44009 85.3791C1.44353 85.2925 1.4668 85.2079 1.50805 85.1318C1.54931 85.0557 1.60745 84.9901 1.67793 84.9403C1.7484 84.8904 1.8293 84.8577 1.9143 84.8445C1.84775 84.5766 1.81324 84.3016 1.81151 84.0252C1.9053 83.1592 2.10544 82.3035 2.0314 81.4201C2.04502 81.1262 2.12188 80.8386 2.25664 80.5772C2.63806 79.6039 2.22466 78.5188 2.79183 77.5918C2.6939 77.0565 3.00021 76.6849 3.30372 76.2949C3.4313 75.9791 3.49242 75.6404 3.48322 75.3C3.4684 74.9678 3.29757 74.582 3.76773 74.3823C3.82208 74.3595 3.80023 74.1493 3.80827 74.038C3.80482 73.8473 3.82044 73.6565 3.85491 73.4688C3.98668 73.21 4.09772 72.9411 4.18697 72.6646C4.20252 72.3718 4.1816 72.0783 4.12472 71.791C4.83409 71.176 4.99413 70.7389 4.68048 70.1505L5.15401 69.9057L4.82269 69.5927C5.14821 68.939 5.60209 68.3219 5.59435 67.5315C6.01386 67.2319 5.60756 66.5126 6.22919 66.2948C6.3207 66.2627 6.36429 65.951 6.34882 65.7741C6.33031 65.3435 6.46745 64.9202 6.73479 64.5827C6.86857 64.4162 6.9705 64.2262 7.03537 64.0223C7.11255 63.6864 7.14022 63.4134 7.53653 63.2605C7.70136 63.1993 7.75218 62.8256 7.87672 62.543L7.56758 62.3623C7.68269 62.0139 7.79371 61.6681 7.91138 61.3239C7.95888 61.1248 8.03021 60.9322 8.12382 60.7503C8.35351 60.3753 8.60196 60.0122 8.86821 59.6625C9.11964 59.3313 9.32981 59.0118 9.13903 58.5754C9.12145 58.5408 9.11136 58.5029 9.10941 58.464C9.10746 58.4252 9.11369 58.3863 9.1277 58.35C9.41323 57.9894 9.67977 57.6139 9.92619 57.2251C10.148 56.9282 10.3101 56.5906 10.4035 56.2315C10.5765 55.5438 10.9305 54.9152 11.4281 54.4123C11.6785 54.1163 11.9155 53.8171 12.1359 53.5141C12.1979 53.4294 12.2345 53.3285 12.2413 53.2236C12.2827 52.4481 12.4998 52.0984 13.2338 51.7118L13.1469 51.2357C13.3605 51.0941 13.5411 50.9074 13.6761 50.6887C13.8112 50.47 13.8974 50.2244 13.9288 49.969C14.0027 49.6811 14.1538 49.4189 14.3654 49.2112C14.577 49.0034 14.8411 48.8582 15.1287 48.7913C15.1866 48.5394 14.9104 48.1082 15.4366 48.077C15.8997 47.3737 16.4031 46.6937 16.8136 45.9605C17.0179 45.5902 17.5867 45.3885 17.3958 44.8C17.3731 44.7312 17.5428 44.5721 17.6462 44.5039C17.8893 44.3158 18.2522 44.2471 18.1914 43.7947C18.1835 43.7221 18.4214 43.5717 18.565 43.5269C18.7695 43.4607 18.828 43.3893 18.7324 43.1799C18.7048 43.117 18.7787 42.9784 18.8364 42.9103C19.204 42.5315 19.591 42.1749 19.956 41.792C20.1686 41.5685 20.1274 41.2443 20.379 40.9733C21.225 40.0537 21.9555 39.0263 22.7172 38.0309C23.0775 37.4824 23.5433 37.0122 24.0869 36.6482C24.2372 36.559 24.324 36.3491 24.4478 36.2219C24.9642 35.6687 25.4813 35.1121 26.0028 34.5671C26.2472 34.3121 26.5035 34.0668 26.7622 33.8257C27.1434 33.4642 27.5312 33.1042 27.9207 32.7517C28.0441 32.6421 28.2263 32.5814 28.3046 32.4544C28.8297 31.5885 29.6925 31.0689 30.3763 30.3667C30.4514 30.2879 30.5316 30.2142 30.6164 30.146C31.3126 29.6341 32.0223 29.1395 32.7058 28.6069C33.1543 28.2573 33.5434 27.8305 34.0137 27.493C35.6077 26.2785 37.1843 25.0636 38.8415 23.9557C40.1731 23.0593 41.5965 22.2972 42.9808 21.4766C43.6474 21.0782 44.3414 20.7284 44.9712 20.2614C45.3515 19.9951 45.8397 20.0224 46.2131 19.6485C46.5263 19.3385 47.0945 19.2923 47.5418 19.1157C48.1352 18.8984 48.6426 18.3997 49.3488 18.47C49.3787 18.4769 49.4172 18.4009 49.4616 18.3757C49.7454 18.1934 50.0214 17.8926 50.3187 17.8654C50.9516 17.7586 51.5715 17.5833 52.1676 17.3425C53.2673 16.9976 54.3874 16.7316 55.4784 16.3635C56.0672 16.1663 56.6214 15.8906 57.2614 16.0659C57.3389 16.0936 57.4232 16.0956 57.502 16.0717C58.8454 15.4291 60.3412 15.741 61.7358 15.379C62.1603 15.2714 62.6486 15.4048 63.1076 15.4219C63.4538 15.4413 63.7918 15.7099 64.106 15.3648C64.8105 15.6257 65.5598 15.3099 66.2385 15.4694C67.5308 15.7663 68.8637 15.719 70.1493 16.0144C70.9121 16.1896 71.6851 16.3354 72.4535 16.5014C72.5267 16.5182 72.64 16.5442 72.665 16.603C72.9308 17.2016 73.4629 17.0834 73.9344 17.0609C74.6438 17.0259 74.6476 17.0091 74.972 17.6883C75.1132 17.5585 75.2993 17.4898 75.49 17.4972C75.6806 17.5046 75.8604 17.5875 75.9903 17.7278C76.6033 18.0511 77.2523 18.2999 77.9239 18.4691C78.255 18.622 78.5635 18.8202 78.8405 19.0581C79.0368 19.1966 79.2754 19.2612 79.5146 19.2406C79.7539 19.2199 79.9787 19.1154 80.1499 18.9452C80.6408 18.4019 81.2197 17.9465 81.8619 17.5988C81.9862 17.5043 82.0917 17.387 82.1728 17.253C82.2092 17.2012 82.1801 17.0531 82.1991 17.0468C82.7858 16.92 83.0605 16.3501 83.5033 16.1017C83.9655 15.8689 84.3697 15.5338 84.6858 15.1216C85.211 14.3618 86.1049 14.058 86.7709 13.479C87.3702 12.9605 88.0035 12.4834 88.6665 12.051C89.3148 11.578 89.998 11.1557 90.71 10.7878C91.3125 10.516 91.808 10.0075 92.378 9.63277C93.0411 9.11271 93.7634 8.67438 94.5295 8.32718C95.2837 8.01572 96.0063 7.63103 96.6869 7.17857C96.9308 6.96404 97.2374 6.83574 97.5598 6.81334C97.6947 6.79668 97.8203 6.73454 97.9159 6.63702C98.4086 6.26095 98.9731 5.99204 99.5736 5.84742C100.002 5.68958 100.413 5.48913 100.802 5.24907C102.144 4.45018 103.59 3.84336 105.098 3.44611C105.207 3.4334 105.313 3.39604 105.407 3.3368C106.067 2.78134 106.894 2.76974 107.681 2.59686C108.032 2.56041 108.373 2.45766 108.687 2.29401C108.961 2.10604 109.269 2.21569 109.567 2.00131C109.866 1.78694 110.471 1.82346 110.939 1.74004C111.407 1.65662 111.803 1.54965 112.242 1.48775C113.168 1.34701 114.064 1.07906 114.986 0.930082C115.233 0.944139 115.476 1.00002 115.705 1.09539C115.714 1.02219 115.731 0.950125 115.755 0.880421C116.495 0.894877 117.172 0.403415 117.927 0.583859C118.061 0.602823 118.198 0.603308 118.333 0.585304C119.655 0.50724 120.981 0.429945 122.303 0.341039C122.851 0.30439 123.391 0.428369 123.96 0.31523C124.346 0.237719 124.783 0.504262 125.208 0.545419C126.134 0.652052 127.062 0.71685 127.99 0.799205C128.045 0.803061 128.099 0.815453 128.15 0.835942C128.313 0.926642 128.483 1.00355 128.658 1.06588C128.808 1.09959 128.963 1.1003 129.114 1.06796C129.312 1.0072 129.507 0.93387 129.697 0.848396C130.276 1.55066 131.124 1.57953 131.931 1.71542C132.223 1.73829 132.506 1.82505 132.76 1.96964C133.015 2.11423 133.235 2.31316 133.405 2.55255L133.596 2.32788C133.942 2.471 134.271 2.59608 134.596 2.73797C134.921 2.87985 135.347 2.84328 135.498 3.29886C135.52 3.37109 135.662 3.41072 135.753 3.44223C136.126 3.5739 136.512 3.68024 136.877 3.83131C137.373 4.03726 137.856 4.27192 138.345 4.4939C138.472 4.55138 138.651 4.56431 138.712 4.66329C139.131 5.31462 139.913 5.45187 140.447 5.93529C140.552 6.01782 140.648 6.111 140.734 6.21335C140.976 6.54835 141.114 6.9833 141.661 6.95337C141.742 6.96654 141.817 6.9996 141.882 7.04957C141.946 7.09955 141.997 7.16489 142.03 7.23973C142.215 7.83749 142.736 8.04544 143.22 8.28758C143.173 8.49247 143.059 8.69962 143.118 8.80867C143.174 8.87354 143.243 8.92594 143.32 8.96256C143.397 8.99919 143.481 9.01925 143.567 9.02147C143.797 9.04252 143.827 9.17309 143.939 9.34036C144.266 9.76194 144.622 10.1593 145.005 10.5295L144.862 10.6663L145.383 11.5711C145.513 11.5312 145.65 11.517 145.785 11.5292C145.912 11.5802 146.015 11.6769 146.074 11.8006C146.179 12.0156 146.219 12.2654 146.328 12.4813C146.52 12.8791 146.62 13.3759 147.222 13.3941C147.292 13.9158 147.257 14.463 147.887 14.6536C147.973 14.6735 148.054 14.8866 148.054 15.0103C148.087 15.4063 148.27 15.7738 148.565 16.0365C148.762 16.2722 148.907 16.5465 148.993 16.8422C149.194 17.3074 149.432 17.7548 149.706 18.1801C149.773 18.3015 149.903 18.4408 149.882 18.5457C149.706 19.4319 150.48 19.942 150.682 20.6815C150.804 21.1268 151.153 21.5289 151.198 21.9742C151.308 22.6239 151.533 23.2481 151.862 23.817C152.216 24.549 152.356 25.345 152.673 26.072C152.975 26.8742 153.182 27.7099 153.289 28.5617C153.431 29.1302 153.617 29.6862 153.847 30.2246C153.887 30.3541 153.965 30.5171 153.922 30.6166C153.732 31.0434 153.944 31.3289 154.179 31.6482C154.284 31.7702 154.34 31.9283 154.333 32.0904C154.107 33.0745 154.614 33.9229 154.808 34.8304C154.97 35.5749 155.226 36.3408 155.368 37.0807C155.586 38.2978 155.709 39.532 155.928 40.7457C155.974 41.288 156.079 41.8233 156.242 42.3419C156.363 42.7745 156.414 43.2245 156.392 43.6741C156.44 44.3466 156.486 45.0183 156.502 45.694C156.477 45.9232 156.425 46.1486 156.348 46.3658C156.585 46.6324 156.873 46.9355 156.604 47.4501C156.516 47.6208 156.793 47.9533 156.783 48.1984C156.615 49.7512 157.188 51.2584 157.017 52.8104C156.983 53.1245 157.128 53.4549 157.128 53.7766C157.131 55.0609 157.102 56.3451 157.091 57.6297C157.111 57.7709 157.119 57.9136 157.116 58.0562C157.059 58.2803 156.986 58.4999 156.898 58.7134C157.133 59.2761 157.217 59.8917 157.14 60.4983C157.112 61.0045 157.148 61.5185 157.113 62.0231C157.096 62.2775 156.945 62.5222 156.922 62.7784C156.879 63.1739 156.876 63.5728 156.915 63.9685C157.014 64.8188 156.793 65.6273 156.67 66.4514C156.634 66.7012 156.77 66.9765 156.727 67.2248C156.55 68.2096 156.696 69.2402 156.311 70.1951C156.178 70.518 156.403 70.835 156.269 71.218C156.101 71.7062 156.237 72.3034 156.235 72.8934L155.852 72.8655C155.842 72.9092 155.827 72.9764 155.856 73.0008C155.972 73.1178 156.055 73.2642 156.096 73.4247C156.137 73.5852 156.134 73.754 156.088 73.9135C155.946 74.6836 155.777 75.4509 155.682 76.2284C155.633 76.6414 155.305 77.001 155.533 77.4884C155.61 77.6581 155.331 78.0007 155.194 78.3086L155.47 78.7257C155.211 79.0871 154.766 79.3313 155.089 79.8969C155.189 80.0686 154.953 80.4104 154.964 80.6675C154.996 81.4599 154.712 82.1904 154.6 82.9532C154.21 83.1252 154.31 83.4665 154.371 83.7987L153.895 83.8697C153.9 83.9381 153.887 84.0128 153.909 84.0249C154.365 84.2676 154.232 84.6615 154.164 85.0348C154.11 85.2699 154.056 85.5051 153.974 85.7374C153.805 86.3062 153.825 86.9147 154.032 87.4693C154.552 87.7726 155.002 87.9962 155.41 88.2809C156.086 88.7546 156.754 89.2511 157.394 89.7799C157.712 90.044 157.742 90.5673 158.179 90.7561C158.099 91.3636 158.689 91.4531 158.991 91.6498C159.664 92.091 160.017 92.7697 160.48 93.3641C160.567 93.4725 160.486 93.7191 160.484 93.8812C160.799 94.0626 161.105 94.2603 161.4 94.4736C161.698 94.7013 161.646 95.0818 161.76 95.391C161.875 95.7003 162.202 95.9132 162.412 96.1879C162.672 96.4549 162.878 96.77 163.019 97.116C163.231 97.7597 163.498 98.3832 163.818 98.9793C163.94 99.2216 164.088 99.4499 164.258 99.6603C164.379 99.8013 164.44 99.985 164.427 100.171C164.415 100.358 164.33 100.532 164.19 100.656C164.34 100.763 164.479 100.885 164.605 101.02C164.753 101.213 165.001 101.465 164.956 101.642C164.762 102.379 165.457 102.652 165.631 103.282C165.933 103.195 166.223 103.07 166.495 102.911C167.203 102.349 168.067 102.173 168.888 101.958C169.902 101.699 170.9 101.381 171.878 101.004C172.371 100.81 172.94 100.835 173.468 100.719C174.206 100.56 174.932 100.348 175.667 100.185C175.867 100.164 176.069 100.168 176.268 100.196C176.4 100.201 176.605 100.252 176.653 100.199C176.904 99.7902 177.336 100.002 177.664 99.8552C177.993 99.7078 178.318 99.6517 178.62 99.4949C178.813 99.358 178.986 99.1955 179.135 99.0119C178.843 98.754 178.59 98.4836 179.007 98.148C179.072 98.0923 179.119 97.8874 179.076 97.8491C178.583 97.3823 179.074 97.0176 179.223 96.6276L178.904 96.4129L179.231 96.1344C179.145 95.8989 179.049 95.6469 178.959 95.3964C178.923 95.2927 178.836 95.1525 178.872 95.0865C179.187 94.5576 179.011 93.9479 179.158 93.3841C179.189 93.2498 179.269 93.0559 179.21 92.9752C179.15 92.8716 179.114 92.7557 179.105 92.636C179.095 92.5163 179.112 92.3959 179.155 92.2836C179.289 91.7025 179.421 91.1282 179.26 90.5006C179.176 90.2091 179.414 89.8289 179.491 89.493C179.528 89.3351 179.681 89.1405 179.632 89.0337C179.263 88.2418 179.83 87.5622 179.858 86.8153C179.873 85.987 179.988 85.1633 180.2 84.3622C180.421 83.5996 180.655 82.8434 180.82 82.0644C180.897 81.7285 181.159 81.3963 181.116 81.0963C181.072 80.7964 180.941 80.5894 181.324 80.4794C181.265 80.3102 181.209 80.1417 181.153 79.9875C181.248 79.744 181.348 79.4878 181.439 79.2293C181.53 78.9709 181.64 78.6636 181.742 78.3723L181.365 77.8153C181.718 77.3767 182.061 76.9499 182.45 76.4629C181.815 75.9457 182.408 75.3357 182.673 74.8696C182.89 74.4002 183.07 73.9141 183.21 73.4159L183.897 73.7967L183.99 73.6836L183.388 72.8841C183.457 72.5778 183.559 72.2798 183.691 71.9952C184.122 71.3092 184.111 70.5323 184.246 69.7782C184.312 69.5479 184.424 69.3331 184.573 69.1462C184.826 68.7624 185.154 68.4203 185.067 67.8982C185.06 67.8444 185.067 67.7897 185.085 67.7386C185.104 67.6875 185.134 67.6415 185.173 67.6043C185.334 67.4799 185.46 67.3143 185.536 67.1246C185.612 66.935 185.637 66.7284 185.607 66.5264C185.618 66.4199 185.655 66.3177 185.714 66.2284C185.773 66.1392 185.852 66.0655 185.945 66.0137C186.127 65.926 186.276 65.7831 186.372 65.6052C186.469 65.4273 186.507 65.2236 186.482 65.023C186.493 64.5163 186.687 64.31 187.23 64.3428C186.936 63.7482 187.088 63.3305 187.555 62.9321C187.818 62.7628 188.006 62.4958 188.076 62.189C188.153 61.747 188.66 62.0296 189.037 61.9431L188.172 61.4826L188.76 61.059L188.527 60.6519C188.76 60.4013 189.105 60.1835 189.205 59.8847C189.329 59.5278 189.443 59.278 189.83 59.2573C190.217 59.2366 189.849 58.4413 190.407 58.651L190.211 58.2523L190.896 57.9746C190.905 57.8161 190.892 57.6572 190.857 57.5025C190.717 57.0884 190.804 56.8184 191.236 56.6772C191.334 56.6467 191.466 56.5779 191.491 56.4989C191.758 55.701 192.529 55.1566 192.591 54.2762C192.618 54.1521 192.691 54.0426 192.794 53.9694C193.373 53.5588 193.814 52.9804 194.059 52.3115C194.162 51.9993 194.532 51.7801 194.868 51.4613C194.875 51.2705 194.93 51.0844 195.029 50.9212C195.128 50.7581 195.267 50.6233 195.433 50.5301C195.526 50.4738 195.677 50.4272 195.698 50.3507C195.95 49.3936 196.831 48.9137 197.342 48.1433C197.879 47.3283 198.514 46.5834 199.233 45.9257C199.951 45.2704 200.385 44.4223 201.009 43.7205C201.491 43.1488 202.041 42.6174 202.568 42.0773C202.811 41.829 203.183 41.6457 203.303 41.3515C203.708 40.3836 204.545 39.837 205.232 39.1531C205.918 38.4692 206.907 37.9645 207.531 37.206C208.154 36.4474 209.031 35.9417 209.729 35.2676C210.337 34.6999 210.927 34.0858 211.539 33.498C211.579 33.4612 211.61 33.4012 211.656 33.3835C212.683 33.0042 213.148 31.9581 214.041 31.3819C214.857 30.8833 215.51 30.1634 216.317 29.6876C217.295 29.1096 218.13 28.3574 219.052 27.717C219.694 27.274 220.369 26.8703 221.028 26.4453C221.443 26.1624 221.867 25.8459 222.324 25.5973C223.075 25.1828 223.856 24.8212 224.614 24.4191C224.945 24.2442 225.253 24.0212 225.573 23.8189C225.618 23.7904 225.664 23.7585 225.711 23.7341C226.208 23.4947 226.701 23.2895 227.189 23.0553C227.678 22.821 228.124 22.591 228.591 22.3555C228.615 22.3433 228.642 22.3176 228.662 22.3222C229.445 22.4703 229.901 21.8289 230.508 21.5512C231.116 21.2735 231.78 20.9486 232.427 20.6801C233.228 20.3514 234.046 20.0584 234.855 19.7564C235.571 19.4931 236.303 19.2721 237 18.969C238.587 18.3042 240.263 17.8813 241.973 17.7142C242.764 17.6273 243.555 17.4835 244.338 17.3417C244.889 17.2456 245.443 17.1077 245.977 16.9828C246.107 16.9397 246.241 16.91 246.376 16.8942C247.673 16.881 248.974 16.8368 250.272 16.8946C250.761 16.9186 251.329 16.6885 251.77 17.1363C251.802 17.1648 251.951 17.0505 252.052 17.035C252.946 16.855 253.873 16.9844 254.682 17.4023C254.994 17.5696 255.399 17.5176 255.801 17.5709L255.74 17.8329C255.99 17.9998 256.158 17.9996 256.208 17.6609C256.244 17.6693 256.296 17.6423 256.33 17.6608C256.457 17.7612 256.598 17.8414 256.749 17.8985C256.965 17.9167 257.172 17.9918 257.35 18.1164C257.528 18.241 257.669 18.4107 257.761 18.6083C257.841 18.793 258.121 18.8857 258.361 19.0503C258.497 19.4351 258.089 19.4371 257.76 19.6195C258.237 19.8952 258.125 20.5026 258.641 20.7449C258.868 20.8537 258.973 21.1925 258.593 21.381C258.304 21.5233 258.382 21.7214 258.523 21.9165C258.664 22.1115 258.868 22.3813 259.064 22.6103C259.296 22.9004 259.368 23.168 259.031 23.4442C258.97 23.4939 258.987 23.6323 258.965 23.7297C258.884 24.4183 258.809 25.08 258.25 25.5882C258.108 25.7182 258.087 25.9786 257.999 26.2094L257.526 26.023C257.367 26.2127 257.195 26.4102 256.989 26.6527C256.829 26.6619 256.699 26.3881 256.365 26.5907C255.806 26.8538 255.219 27.0489 254.615 27.1717C254.576 27.1866 254.535 27.1935 254.494 27.1919C254.453 27.1904 254.412 27.1803 254.375 27.1625C253.799 26.7226 253.107 26.9879 252.481 26.8616C252.084 26.8334 251.686 26.9061 251.324 27.0732C251.061 27.1591 250.784 27.19 250.51 27.1641C250.235 27.1381 249.969 27.0558 249.728 26.9222C249.842 26.6691 249.931 26.4809 250.022 26.2826C250.146 26.7813 250.652 26.6996 250.868 26.8304L251.84 26.2759C251.671 26.2399 251.498 26.2322 251.326 26.2534C251.123 26.3491 250.901 26.4004 250.677 26.4037C250.453 26.407 250.23 26.3623 250.025 26.2725C249.911 26.2958 249.711 26.2958 249.695 26.3488C249.558 26.8088 249.145 26.9863 248.817 27.208C248.553 27.3949 248.24 27.6765 247.861 27.3419C247.791 27.2798 247.592 27.3049 247.482 27.3574C247.304 27.4438 247.147 27.6695 247.002 27.3249C246.982 27.3081 246.958 27.2964 246.933 27.2905C246.907 27.2847 246.881 27.2849 246.856 27.2912C246.535 27.603 246.055 27.5847 245.739 27.802C245.593 27.9189 245.414 27.9857 245.229 27.9924C244.92 28.0098 244.531 27.9771 244.542 28.4924C244.543 28.6412 244.08 28.6585 244.039 28.5005C243.938 28.099 243.686 28.2531 243.474 28.3353C243.203 28.4451 242.939 28.5723 242.685 28.7163C242.605 28.7581 242.564 28.8618 242.496 28.9275C242.365 29.0565 242.224 29.1798 242.121 29.2764C242.003 29.2279 241.963 29.2188 241.962 29.2079C241.956 29.0827 241.95 28.9541 241.943 28.7086C241.067 28.9811 240.187 29.1501 239.416 29.5424C239.288 29.6276 239.14 29.6794 238.987 29.693C238.834 29.7065 238.68 29.6816 238.539 29.6203L237.088 31.0548L236.581 30.4045C236.287 30.74 236.289 31.3274 235.701 31.1819C235.675 31.1758 235.615 31.2965 235.571 31.3534C235.442 31.5631 235.264 31.7374 235.052 31.8603C234.84 31.9833 234.601 32.0511 234.357 32.0576C234.156 32.0294 233.95 32.0679 233.772 32.1672C233.594 32.2665 233.452 32.4213 233.368 32.6083C233.298 32.7903 233.074 32.8944 232.91 33.0759L232.165 32.7774C232.046 32.9304 231.932 33.1943 231.828 33.1915C231.21 33.177 230.836 33.7698 230.247 33.7973C230.149 34.2239 229.748 34.3051 229.42 34.4382C229.361 34.4636 229.222 34.2936 229.091 34.1894C228.835 34.4347 228.579 34.8921 228.201 35.0138C227.822 35.1354 227.529 35.694 227.001 35.5196C226.702 35.9178 226.387 36.2838 225.676 36.0214L226.131 36.6352C225.916 36.7895 225.681 36.9129 225.433 37.0017C224.723 37.1463 224.704 37.1207 224.535 37.8563C224.008 37.7563 223.542 37.8013 223.557 38.5263C223.171 38.6815 223.131 39.2982 222.585 39.2613C222.522 39.2661 222.46 39.2838 222.403 39.3133C222.346 39.3428 222.296 39.3835 222.255 39.4329C221.727 40.1533 221.022 40.7228 220.21 41.0847L220.163 40.5258L219.658 40.7847L219.735 40.9828L220.238 41.0666C219.838 41.2823 219.213 41.4108 219.093 41.7334C218.879 42.2994 218.355 42.3523 218.039 42.7041C217.927 42.8234 217.727 42.8552 217.585 42.9535C217.443 43.0518 217.18 43.1927 217.145 43.3438C217.102 43.5084 217.016 43.6585 216.896 43.7784C216.776 43.8983 216.626 43.9835 216.462 44.0251C216.131 44.1399 215.976 44.2033 215.918 44.5789C215.822 44.8241 215.651 45.0325 215.43 45.1742C215.043 45.4882 214.598 45.7433 214.221 46.0563C214.032 46.2169 213.869 46.4078 213.741 46.6213C213.339 47.2573 212.954 47.9081 211.932 47.7015C212.238 48.4296 211.904 48.7559 211.45 49.129C210.906 49.5733 210.536 50.238 209.985 50.6666C208.955 51.4697 208.363 52.6738 207.31 53.4573C206.849 53.8005 206.549 54.3717 206.169 54.836C206.071 54.9584 205.95 55.0579 205.846 55.1754C205.665 55.3271 205.506 55.5037 205.374 55.7001C205.195 56.1584 204.859 56.5377 204.427 56.7697C204.304 56.8172 204.198 56.9013 204.123 57.0109C203.747 57.8829 203.132 58.5937 202.596 59.3546C201.97 60.2469 201.278 61.0888 200.641 61.9713C200.308 62.4288 200.013 62.9163 199.726 63.4054C199.06 64.5468 198.315 65.638 197.617 66.7541C197.426 67.064 197.365 67.4388 197.184 67.751C196.824 68.3753 196.397 68.9634 196.06 69.5931C195.608 70.3982 195.181 71.2194 194.793 72.0533C194.432 72.8013 194.094 73.5688 193.771 74.3327C193.449 75.0967 193.084 75.798 192.793 76.5478C192.277 77.8615 191.8 79.1911 191.306 80.5134C191.255 80.6432 191.221 80.7768 191.171 80.9032C190.724 82.0519 190.367 83.2338 190.103 84.438C190.068 84.5703 190.022 84.6994 189.965 84.8236C189.318 86.4384 188.899 88.1359 188.719 89.8664C188.611 90.8104 188.506 91.7553 188.354 92.6927C188.114 94.1936 187.817 95.6848 187.588 97.1846C187.513 97.7748 187.494 98.3706 187.53 98.9641C187.55 99.0677 187.593 99.1652 187.656 99.2491C187.72 99.3329 187.802 99.4009 187.895 99.4478C188.228 99.6328 188.599 99.7363 188.98 99.7499C189.297 99.7533 189.611 99.8064 189.911 99.9074C190.465 100.075 191.002 100.298 191.512 100.572C191.866 100.739 192.352 100.61 192.712 100.905C192.96 101.107 193.215 101.293 193.475 101.476C193.591 101.584 193.732 101.662 193.885 101.705C195.036 101.824 195.729 102.637 196.459 103.399C196.552 103.495 196.613 103.718 196.694 103.718C197.494 103.747 197.674 104.414 198.031 104.935C198.199 105.182 198.569 105.281 198.804 105.494C199.112 105.795 199.341 106.17 199.468 106.584C199.558 106.834 199.57 107.212 199.99 107.23L199.753 107.664C200.749 108.123 200.653 109.335 201.381 110.072L201.151 110.372C201.752 111.588 202.183 112.883 202.43 114.22C202.479 114.715 202.584 115.202 202.745 115.672C202.839 115.905 202.658 116.359 202.73 116.701C202.837 117.227 202.935 117.759 203.024 118.289C203.149 119.063 203.173 119.851 203.096 120.632C203.028 121.304 203.025 121.981 203.087 122.653C203.159 123.426 203.122 124.205 202.976 124.968C202.878 125.783 202.849 126.605 202.889 127.424C202.865 128.716 202.826 130.001 202.363 131.239C202.281 131.457 202.418 131.746 202.382 131.996C202.338 132.308 202.54 132.74 202.009 132.872C201.985 132.867 201.978 133.007 201.964 133.067C202.013 133.432 201.934 134.432 201.731 134.601C201.435 134.852 201.468 135.043 201.547 135.401C201.575 135.588 201.555 135.78 201.487 135.958C201.419 136.135 201.306 136.291 201.16 136.412C200.971 136.535 200.82 136.709 200.724 136.913C200.628 137.118 200.591 137.346 200.617 137.571C200.666 137.935 200.675 138.461 200.246 138.758C200.535 139.302 199.946 139.513 199.823 139.899C199.554 140.746 198.729 141.239 198.451 142.098C198.383 142.302 197.973 142.395 197.679 142.557L197.603 143.042C196.807 142.979 196.334 143.546 195.771 144.056C195.273 143.613 194.843 143.804 194.459 144.243C194.158 144.591 193.935 144.582 193.596 144.228C193.384 144.007 193.154 143.604 192.699 143.754C192.672 143.754 192.646 143.748 192.622 143.736C192.599 143.724 192.579 143.706 192.564 143.684C192.126 142.752 190.969 142.355 190.777 141.236C190.734 141.104 190.645 140.993 190.526 140.924C189.926 140.56 189.914 139.846 189.622 139.302C189.253 138.634 188.984 137.9 188.646 137.203C188.207 136.303 187.442 135.696 186.888 134.904C186.183 133.85 185.557 132.746 185.014 131.598C184.544 130.651 184.103 129.692 183.691 128.72C183.352 127.935 183 127.147 182.722 126.33C182.57 125.906 182.56 125.43 182.428 124.996C182.256 124.419 182.012 123.864 181.824 123.291C181.666 122.901 181.557 122.492 181.501 122.074C181.407 120.712 180.782 119.48 180.598 118.143C180.548 117.796 180.495 117.448 180.444 117.104L180.841 117.163C180.828 117.096 180.816 117.026 180.801 116.956L180.477 117.037L180.1 115.624C180.106 115.601 180.07 115.571 180.076 115.548C180.243 114.684 179.939 113.883 179.785 113.059C179.761 112.936 179.922 112.783 179.939 112.74C179.777 112.451 179.643 112.147 179.538 111.831C179.45 111.562 179.46 111.27 179.566 111.007C179.804 110.655 179.396 110.48 179.44 110.317C179.682 109.463 179.173 108.749 179.112 107.96C179.087 107.675 179.097 107.388 179.087 107L178.324 107.362C178.207 107.281 178.071 107.23 177.93 107.213C177.788 107.196 177.644 107.215 177.511 107.267C176.685 107.431 175.853 107.48 175.1 107.979C174.823 108.163 174.295 107.957 174.012 108.136C173.454 108.474 172.785 108.377 172.254 108.719C171.705 109.013 171.106 109.202 170.489 109.275C169.683 109.497 168.893 109.776 168.126 110.111L168.163 110.091C167.391 110.671 167.453 111.502 167.517 112.323C167.58 113.083 167.721 113.844 167.724 114.609C167.727 115.373 167.599 116.069 167.536 116.8C167.432 118.046 167.203 119.302 167.278 120.535C167.342 121.611 166.921 122.575 166.949 123.643L166.521 123.845L166.863 124.231C166.619 125.006 166.367 125.793 166.116 126.584C165.884 127.319 166.211 128.215 165.622 128.73C165.531 129.298 165.41 129.86 165.26 130.415C164.96 131.322 164.55 132.193 164.291 133.106C164.003 134.101 163.375 134.88 162.904 135.755C162.433 136.629 161.945 137.426 161.467 138.253C160.829 139.306 160.12 140.313 159.344 141.267C158.677 142.155 157.955 143 157.181 143.797C156.21 144.772 155.145 145.655 154.114 146.571C154.067 146.614 154.012 146.646 153.951 146.665C153.891 146.684 153.828 146.69 153.766 146.682C153.32 146.545 153.152 147.079 152.777 147.078C152.271 147.891 151.502 148.199 150.589 148.297C150.23 148.335 150.162 148.63 150.24 148.949C149.82 148.976 149.401 148.997 148.989 149.036C148.861 149.039 148.739 149.089 148.645 149.176C148.319 149.572 147.831 149.544 147.412 149.703C147.27 149.755 147.117 149.78 146.975 149.832C146.139 150.132 145.305 150.435 144.396 150.301C144.158 150.267 143.922 150.224 143.636 150.175C143.538 149.776 143.301 149.425 142.968 149.188C142.881 149.125 142.772 148.987 142.712 149.005C142.005 149.228 141.653 148.592 141.138 148.364C140.972 148.29 140.752 148.134 140.733 147.988C140.598 147.052 139.927 146.307 139.83 145.401C139.764 144.774 139.421 144.511 139.015 144.205C138.633 143.949 138.267 143.669 137.92 143.367C137.387 142.802 137.023 142.097 136.869 141.333C136.698 140.724 136.568 140.103 136.483 139.476C136.42 138.966 136.448 138.449 136.563 137.949C136.691 137.395 136.47 136.828 136.754 136.295C136.9 136.066 136.954 135.791 136.907 135.524C136.87 135.46 136.847 135.389 136.839 135.315C136.831 135.241 136.837 135.167 136.858 135.096C136.879 135.025 136.914 134.958 136.961 134.901C137.008 134.844 137.066 134.796 137.131 134.762C136.868 134.044 137.848 133.548 137.477 132.812C137.789 132.067 138.009 131.261 138.834 130.829L138.428 130.491C138.976 129.464 139.216 128.268 140.052 127.374C140.279 127.133 140.167 126.647 140.63 126.584C140.295 126.182 140.789 125.967 140.845 125.65C140.857 125.458 140.928 125.274 141.048 125.123C141.168 124.972 141.331 124.862 141.515 124.807C141.564 124.794 141.64 124.765 141.644 124.734C141.69 124.536 141.578 124.259 141.907 124.229C142.14 124.22 142.374 124.224 142.606 124.241C142.539 124.077 142.49 123.967 142.443 123.85C142.593 123.764 142.805 123.71 142.555 123.363L142.459 123.917ZM94.8864 55.2572C94.7664 55.0776 94.5114 54.8598 94.5507 54.7345C94.7056 54.2432 94.4883 53.7548 94.5902 53.2654C94.6674 52.9295 94.7631 52.513 94.3202 52.2734C94.2608 52.242 94.253 52.0776 94.2587 51.9763C94.2781 51.494 94.2106 51.0124 94.0593 50.5549C93.8843 49.8419 93.7531 49.1185 93.6664 48.3889C93.6646 48.3352 93.6768 48.2819 93.7019 48.2344C93.8817 47.7877 93.6665 47.427 93.4256 47.0711C93.3686 46.9837 93.289 46.8877 93.2857 46.795C93.2576 45.8337 92.5113 45.0682 92.5068 44.0805C92.4702 43.5117 92.2838 42.9636 91.967 42.4925C91.5993 41.7734 91.2892 41.0258 91.0396 40.2566C90.9051 39.911 90.6939 39.5938 90.5364 39.257C90.1463 38.4212 89.8081 37.5584 89.0732 36.9263C88.9858 36.826 88.9099 36.716 88.8469 36.5985C88.6788 36.3689 88.5571 36.0439 88.3263 35.9343C87.751 35.6607 87.7081 35.1451 87.5725 34.6366C86.6921 34.7596 86.4745 33.677 85.6804 33.6077C85.6538 33.6016 85.6293 33.5253 85.6318 33.5294L86.1786 33.0114C85.9765 33.0593 85.771 33.0913 85.564 33.1071C85.4122 33.088 85.2627 33.0537 85.1177 33.0046C85.1786 32.8771 85.2394 32.7497 85.2977 32.6181C85.3132 32.5675 85.325 32.5158 85.3332 32.4636L84.7797 32.156L83.9704 32.504C84.1268 32.052 84.224 31.7666 84.3165 31.5015C84.0025 31.5877 83.6824 31.649 83.3591 31.6846C83.0391 31.7038 82.7277 31.7982 82.4499 31.9604C82.1721 32.1226 81.9357 32.3479 81.7595 32.6184C81.4406 33.0296 81.0933 33.4272 80.7441 33.8173C80.1976 34.4525 79.5806 35.0226 78.9055 35.5165C78.6383 35.6851 78.4018 35.8987 78.2063 36.148C77.4817 37.2499 76.6575 38.2822 75.7445 39.2317C75.0973 39.8886 74.5198 40.6116 74.0215 41.389C73.5613 42.1708 72.7742 42.6972 72.4382 43.5642C72.2936 43.9341 71.9361 44.2233 71.7356 44.5768C71.5352 44.9303 70.9122 44.9251 70.9545 45.4582C70.2583 46.1631 69.7026 46.9958 69.3179 47.9111C69.2661 48.0292 69.1858 48.1323 69.0842 48.211C68.751 48.5026 68.5215 48.8958 68.4307 49.3304C68.4129 49.4799 68.3614 49.6235 68.28 49.7501C68.1987 49.8767 68.0897 49.9829 67.9614 50.0606C67.7839 50.1819 67.6552 50.3631 67.5986 50.5714C67.3319 51.2338 66.9853 51.8608 66.5665 52.4383C66.2139 53.0114 65.9316 53.6751 65.4405 54.1033C65.0679 54.4278 64.938 54.642 65.1619 55.0258C64.3417 55.4668 64.5276 56.4891 63.8438 56.9473C64.0711 57.484 63.4062 57.6459 63.3435 58.1018C63.2323 58.5376 63.0551 58.9537 62.8181 59.3355C62.5986 59.7872 62.3389 60.2155 62.1394 60.6718C61.9398 61.1281 61.5977 61.3961 61.6075 61.9641C61.6143 62.3617 61.1317 62.753 60.9265 63.1726C60.3973 64.1662 59.9277 65.1908 59.5202 66.2407C59.3463 66.7383 58.9057 67.1604 59.0036 67.7416C58.4235 68.2059 58.6664 69.1175 57.9925 69.532C57.9797 69.5477 57.9706 69.5662 57.9661 69.586C57.9615 69.6059 57.9616 69.6265 57.9663 69.6462C58.283 70.2671 57.7377 70.4884 57.5038 70.7281C57.5092 71.0091 57.4915 71.29 57.451 71.5682C57.3346 72.1396 57.1728 72.7008 56.9673 73.2464C56.258 74.9293 55.9145 76.714 55.4486 78.467C55.2002 79.4107 54.8275 80.3152 54.7044 81.3089C54.5689 82.4023 54.1623 83.4546 53.9238 84.5385C53.7694 85.2102 53.8305 85.9669 53.6029 86.6218C53.0245 88.2995 53.0068 90.0706 52.6414 91.783C52.4141 92.8483 52.3806 93.9403 52.0962 95.0101C51.9402 95.8323 51.9054 96.6727 51.993 97.5042C52.0185 98.2173 51.7965 98.9089 52.0162 99.6313C52.0609 99.7724 51.9793 99.9446 51.9564 100.106C51.9115 100.305 51.8836 100.508 51.873 100.712C51.8979 101.825 51.941 102.935 51.9766 104.046C51.9852 104.253 51.9896 104.463 52.0163 104.667C52.0991 105.284 52.2008 105.894 52.2966 106.499C52.2998 106.943 52.3511 107.386 52.4494 107.818C52.666 108.407 52.6627 109.056 52.4401 109.644L52.9959 110.278L52.7028 110.744C52.8348 110.994 52.9704 111.212 53.0681 111.444C53.3514 112.026 53.5039 112.665 53.5149 113.314C53.513 113.496 53.5757 113.672 53.6918 113.811C53.9431 114.115 54.0865 114.495 54.0993 114.891C54.1171 115.012 54.0757 115.208 54.142 115.255C54.5984 115.558 54.6445 116.12 54.9709 116.485C55.0315 116.528 55.0802 116.585 55.1128 116.652C55.1453 116.719 55.1605 116.794 55.157 116.868C55.1534 116.943 55.1313 117.015 55.0926 117.079C55.054 117.143 55 117.196 54.9357 117.234C55.1992 117.46 55.616 117.538 55.4475 117.966C55.9346 118.365 55.7896 119.148 56.5297 119.453C56.965 119.687 57.2946 120.081 57.4517 120.552C57.7044 121.222 58.2105 121.763 58.8593 122.057C59.4853 122.385 59.957 123.048 60.7581 123.087C60.808 123.099 60.8522 123.303 60.8713 123.357C61.2931 123.352 61.7144 123.323 62.133 123.269C63.7851 122.976 65.4822 122.794 66.8578 121.706C66.9256 121.661 67.003 121.632 67.0836 121.623C68.422 121.415 69.3846 120.522 70.4476 119.832C71.3288 119.281 72.1525 118.641 72.9064 117.922C73.5043 117.335 74.2802 117.025 74.8761 116.416C75.3978 115.885 76.0045 115.381 76.5629 114.858C77.0748 114.441 77.5066 113.932 77.8368 113.358C78.1267 112.769 78.5473 112.254 79.0659 111.855C79.2483 111.702 79.5362 111.563 79.5802 111.372C79.7191 110.767 80.1556 110.394 80.5329 109.957C80.8701 109.568 81.1755 109.152 81.4463 108.713C81.6614 108.429 81.9048 108.167 82.1728 107.933L82.7587 107.809L82.7562 107.713L82.0367 107.686C82.7834 107.076 82.8231 106.003 83.7707 105.74L83.613 105.053C83.8635 104.863 84.1865 104.739 84.1989 104.593C84.235 104.039 84.7634 103.8 84.9207 103.345C85.0779 102.889 85.3635 102.47 85.5315 102.014C85.6299 101.753 86.1902 101.635 85.8113 101.208C85.8113 101.208 85.9416 101.068 85.9932 100.981C86.0881 100.812 86.1731 100.641 86.2522 100.464C86.3041 100.345 86.2968 100.163 86.383 100.109C86.4925 100.036 86.5805 99.9351 86.6375 99.8161C86.6945 99.6971 86.7183 99.5649 86.7065 99.4336C86.7108 99.1941 86.7998 98.9638 86.9574 98.784C87.4303 98.3587 87.2586 97.5801 87.8729 97.2262C87.9252 97.1843 87.9664 97.13 87.9928 97.0682C88.0193 97.0064 88.0301 96.939 88.0244 96.872C87.8952 96.3968 88.2554 96.1719 88.5091 95.9225C88.4663 95.651 88.2932 95.5193 88.519 95.1928C88.9739 94.5016 89.2303 93.6975 89.2596 92.8699C89.5331 92.7171 89.843 92.4064 89.7809 92.2188C89.5396 91.4986 90.0502 91.0466 90.3372 90.5149C90.3975 90.405 90.5652 90.2702 90.5376 90.2073C90.2333 89.5327 91.0368 89.0879 90.8841 88.4552C91.4873 88.2719 91.1196 87.6287 91.4423 87.2927C91.5557 87.1808 91.2691 86.9629 91.5007 86.7332C91.8913 86.3456 91.7827 85.7655 91.8372 85.2688C91.8917 84.7721 92.3072 84.3371 92.2263 83.7739C92.2102 83.6606 92.5699 83.4993 92.5521 83.3785C92.4826 82.8568 92.7436 82.3616 92.6477 81.8481C92.6285 81.7614 92.6288 81.6715 92.6487 81.5848C92.6686 81.4982 92.7076 81.4171 92.7627 81.3476C93.0912 81.1083 92.9693 80.7691 93.029 80.4787C93.0887 80.1883 93.0923 79.8674 93.1269 79.5641C93.1939 79.2572 93.2294 78.9442 93.2329 78.6301C93.2079 78.4898 93.2115 78.3456 93.2435 78.2065C93.2755 78.0673 93.3351 77.9361 93.4189 77.8206C93.5679 77.6315 93.6676 77.4078 93.7087 77.1701C93.7499 76.9324 93.7312 76.6883 93.6543 76.4603C93.6051 76.3442 93.5863 76.2172 93.5998 76.0915C93.6134 75.9658 93.6587 75.8456 93.7316 75.7425C94.0285 75.2131 94.2868 74.6536 93.8981 74.0409L94.3838 73.6822L94.1428 73.4642C94.1772 73.1467 94.2069 72.8954 94.234 72.64C94.23 72.4331 94.2493 72.2264 94.2915 72.0237C94.5588 71.104 94.6098 70.135 94.4404 69.1936C94.4122 68.9948 94.4587 68.7924 94.5708 68.6259C94.6291 68.5679 94.6739 68.4976 94.702 68.42C94.7301 68.3425 94.7406 68.2597 94.7329 68.1777C94.7253 68.0956 94.6995 68.0164 94.6576 67.9458C94.6157 67.8752 94.5586 67.8149 94.4906 67.7694L94.9078 67.4798C94.6157 67.1333 94.4166 66.7941 94.7842 66.3693C94.8316 66.2729 94.8577 66.1673 94.8605 66.0599C94.8634 65.9525 94.8431 65.8458 94.8009 65.7472C94.589 65.1434 94.8586 64.5653 94.8537 63.9913C94.8489 63.4173 94.6675 62.7568 95.0609 62.1894C95.1157 62.04 95.1135 61.8757 95.0546 61.7283C94.8543 61.074 95.0819 60.511 95.4155 59.9441C95.0747 59.9011 94.8421 59.784 94.8343 59.4215C94.8264 59.059 94.7052 58.7624 94.8077 58.4995C94.8793 58.3132 94.9138 58.1145 94.9091 57.915C94.9044 57.7155 94.8606 57.519 94.7803 57.3369C94.6559 57.0019 94.6011 56.6445 94.6194 56.2867C94.6377 55.929 94.7285 55.5786 94.8864 55.2572ZM111.726 121.852C111.616 122.057 111.508 122.234 111.517 122.239C111.73 122.384 111.908 122.509 111.701 122.815C111.675 122.852 112.033 123.107 112.162 123.296C112.624 123.972 113.064 124.663 113.521 125.377C113.681 125.356 113.843 125.374 113.994 125.428C114.146 125.483 114.282 125.572 114.392 125.69C114.631 125.939 114.917 126.136 115.234 126.269C115.846 126.457 116.475 126.581 117.113 126.64C117.473 126.674 118.041 126.631 118.179 126.411C118.489 125.917 118.979 125.98 119.373 125.791C120.008 125.484 120.653 125.198 121.277 124.874C121.688 124.665 122.082 124.425 122.456 124.155C123.007 123.758 123.492 123.262 124.069 122.92C124.691 122.54 125.258 122.076 125.754 121.539C126.318 120.962 126.937 120.418 127.541 119.864C127.873 119.585 128.186 119.283 128.478 118.961C128.821 118.535 129.114 118.071 129.619 117.809C129.71 117.766 129.838 117.668 129.841 117.591C129.856 117.025 130.336 116.722 130.626 116.357C131.347 115.462 131.879 114.431 132.746 113.662C132.931 113.499 132.975 113.187 133.102 112.952C133.364 112.471 133.613 111.98 133.906 111.516C134.596 110.42 135.313 109.343 136.013 108.252C136.607 107.328 137.014 106.29 137.74 105.435C138.004 105.041 138.214 104.614 138.365 104.164C138.555 103.748 138.714 103.317 138.911 102.903C139.227 102.244 139.699 101.67 139.858 100.918C139.966 100.447 140.041 99.8775 140.577 99.6046C140.625 99.5802 140.645 99.4469 140.629 99.3762C140.469 98.6534 141.288 98.205 141.147 97.4901C141.834 96.6826 142.123 95.6703 142.486 94.7142C142.812 93.9941 143.069 93.2443 143.253 92.4752C143.411 91.5426 143.86 90.705 143.929 89.8403L143.555 89.422L143.959 88.9915L142.592 88.8365C142.527 89.0268 142.458 89.2229 142.401 89.3938C141.732 89.4062 142.164 88.8974 141.937 88.6189L141.404 88.5424L141.356 88.6587L141.748 88.9998C141.142 89.3167 140.662 89.0085 140.168 88.8844C140.015 88.8492 139.831 88.7361 139.719 88.781C139.126 89.0409 138.56 89.4448 137.908 88.9413C137.282 89.3598 136.651 89.0063 136.061 88.9201C135.889 89.1176 135.768 89.3726 135.6 89.4012C135.432 89.4298 135.183 89.2771 134.963 89.1982C134.814 89.3409 134.775 89.7562 134.383 89.4185C134.279 89.3346 134.028 89.436 133.833 89.4761C133.638 89.5161 133.567 89.6095 133.425 89.6334C133.12 89.6942 132.801 89.6951 132.498 89.7742C132.196 89.8533 131.882 90.078 131.584 90.0626C131.41 90.054 131.237 90.0955 131.086 90.1822C130.934 90.2688 130.81 90.3971 130.728 90.5519L130.437 90.4286C130.128 90.6298 129.864 90.8769 129.797 90.8332C129.527 90.6508 129.354 90.8057 129.134 90.8965C128.678 91.1145 128.202 91.2882 127.714 91.4153C127.47 91.4671 127.239 91.571 127.038 91.72C126.837 91.869 126.67 92.0596 126.547 92.2789C126.426 92.496 126.245 92.6727 126.025 92.787C125.806 92.9013 125.558 92.9481 125.313 92.9217C125.035 92.8677 124.747 92.9051 124.491 93.0285C124.236 93.1518 124.026 93.3546 123.893 93.6068C123.78 93.7789 123.613 94.0306 123.465 94.0354C122.59 94.0572 122.528 95.0613 121.855 95.317C121.855 95.317 121.844 95.3674 121.838 95.3942C121.766 95.8445 121.384 95.8417 121.064 95.9237C120.951 95.9545 120.763 95.8724 120.711 95.9311C120.364 96.3287 119.831 96.6023 119.824 97.2125C119.602 97.3242 119.383 97.15 119.177 97.4668C118.938 97.8329 118.864 98.4027 118.302 98.5107C117.608 99.412 116.905 100.287 116.227 101.192C115.751 101.832 115.322 102.508 114.851 103.153C114.431 103.728 114.209 104.42 113.821 104.995C113.311 105.794 112.763 106.549 112.64 107.525C112.618 107.622 112.507 107.707 112.474 107.805C112.233 108.609 111.589 109.232 111.488 110.1C111.434 110.557 111.347 111.01 111.229 111.455C111.162 111.744 110.868 112.019 110.897 112.273C110.915 112.497 110.88 112.723 110.797 112.932C110.714 113.141 110.584 113.328 110.417 113.478C110.5 113.71 110.632 113.899 110.585 113.966C110.27 114.424 110.723 115.09 110.173 115.47C110.199 115.511 110.243 115.546 110.254 115.591C110.328 115.776 110.367 115.973 110.369 116.172C110.29 116.763 110.351 117.363 110.545 117.924C110.57 118.001 110.622 118.08 110.616 118.153C110.591 118.954 110.726 119.751 111.013 120.497C111.066 120.65 111.173 120.838 111.127 120.965C110.924 121.512 111.202 121.735 111.726 121.852ZM143.209 135.505C143.276 135.649 143.297 135.811 143.27 135.969C143.243 136.126 143.168 136.272 143.056 136.385C142.849 136.596 142.562 136.887 142.782 137.164C143.087 137.545 142.555 137.572 142.577 137.874C142.646 138.545 142.594 139.225 142.425 139.879C142.269 140.531 142.273 141.21 142.436 141.858C142.662 143.243 142.789 143.301 144.138 142.801C144.163 142.794 144.189 142.786 144.214 142.776L147.035 141.501C147.375 141.349 147.725 141.214 148.052 141.027C148.379 140.84 148.559 140.638 148.833 140.482C149.107 140.325 149.143 139.941 149.563 139.885C149.808 139.853 150.008 139.472 150.234 139.255C150.464 139.021 150.713 138.807 150.98 138.616C151.476 138.294 151.905 137.877 152.244 137.389C152.76 136.703 153.35 136.078 154.005 135.524C154.443 135.17 154.778 134.703 154.974 134.173C155.115 133.799 155.33 133.459 155.607 133.173C155.71 133.02 155.821 132.873 155.94 132.733C156.481 132.15 156.478 131.198 157.311 130.841C157.342 130.827 157.296 130.675 157.336 130.624C157.596 130.302 157.258 129.85 157.494 129.6C158.072 128.979 158.012 128.096 158.482 127.44C158.591 127.251 158.673 127.047 158.723 126.834C158.986 126.053 159.065 125.208 159.53 124.494C159.584 124.398 159.62 124.292 159.637 124.183C159.751 123.686 159.868 123.175 159.981 122.685C160.043 122.075 160.15 121.471 160.302 120.877C160.47 120.295 160.594 119.7 160.672 119.099C160.812 118.364 160.702 117.607 160.94 116.862C161.067 116.277 161.133 115.681 161.139 115.083C160.883 114.745 160.481 114.649 160.273 115.018C160.066 115.388 159.748 115.414 159.523 115.645L158.979 116.227C158.639 116.591 158.352 117.031 157.779 117.052C157.746 117.044 157.707 117.12 157.666 117.163C157.697 117.259 157.731 117.355 157.754 117.435C157.221 117.804 156.604 118.09 156.185 118.556C155.659 119.124 155.097 119.657 154.503 120.153C154.418 120.252 154.314 120.331 154.196 120.386C154.079 120.442 153.952 120.472 153.823 120.474C153.87 121.079 153.325 121.269 153.01 121.6C152.622 122.009 152.141 122.33 151.732 122.72C151.334 123.088 150.96 123.481 150.613 123.899C149.811 124.871 149.036 125.863 148.258 126.855C148.064 127.184 147.842 127.495 147.595 127.785C146.447 128.83 145.896 130.266 145.117 131.548C144.62 132.37 144.335 133.32 143.932 134.203C143.734 134.607 143.498 134.977 143.209 135.505ZM192.922 132.602C193.335 132.057 193.825 131.646 193.717 130.928C193.712 130.888 193.717 130.847 193.731 130.809C193.745 130.771 193.769 130.737 193.799 130.71C194.276 130.494 194.13 130.033 194.162 129.648L194.768 129.511L194.135 129.217L194.488 128.535C194.542 128.423 194.655 128.297 194.632 128.214C194.544 127.773 194.994 127.311 194.588 126.878C194.565 126.855 194.675 126.714 194.706 126.622C194.762 126.472 194.884 126.292 194.841 126.172C194.79 126.049 194.771 125.914 194.786 125.78C194.801 125.647 194.85 125.52 194.929 125.411C195.025 125.252 194.964 124.998 194.963 124.789C194.939 124.669 194.924 124.547 194.917 124.425C194.995 123.534 195.29 122.679 195.231 121.76C195.224 121.066 195.266 120.373 195.357 119.685C195.495 117.926 195.484 116.158 195.326 114.402C195.272 113.781 195.04 113.162 195.071 112.55C195.118 111.645 194.719 110.942 194.304 110.228C194.133 109.934 193.913 109.501 193.655 109.453C192.984 109.32 192.887 108.721 192.509 108.334C192.158 108.334 191.702 108.626 191.604 107.97C191.612 107.936 191.367 107.933 191.242 107.912C190.772 107.835 190.237 107.995 189.862 107.538C189.812 107.48 189.669 107.494 189.564 107.491C188.934 107.473 188.933 107.476 188.98 106.617C188.46 107.354 187.835 107.023 187.183 106.972C187.328 107.688 187.114 108.296 187.251 108.95C187.437 109.835 187.206 110.779 187.5 111.667C187.514 111.717 187.515 111.77 187.503 111.821C187.492 111.872 187.467 111.919 187.433 111.959C187.205 112.158 187.363 112.342 187.395 112.551C187.517 113.41 187.606 114.276 187.709 115.138C187.786 115.781 187.427 116.487 188.044 117.085L187.748 117.088C187.806 117.23 187.851 117.376 187.883 117.526C187.971 118.271 188.291 118.956 188.338 119.727C188.419 120.229 188.473 120.735 188.501 121.243C188.526 121.461 188.585 121.674 188.676 121.873C188.805 122.257 188.948 122.643 189.064 123.023C189.255 123.718 189.393 124.443 189.635 125.117C189.795 125.539 189.911 125.977 189.98 126.424C190.063 126.947 190.178 127.465 190.325 127.974C190.35 128.061 190.537 128.101 190.633 128.158L190.641 128.305L190.228 128.274C191.041 128.948 191.041 128.948 190.737 129.596C190.969 130.021 191.733 130.179 191.345 130.857L192.055 131.324L191.894 132.026C192.057 132.057 192.216 132.105 192.37 132.168C192.564 132.299 192.749 132.444 192.922 132.602ZM10.231 62.8576L9.83372 62.3279C9.14913 62.7434 9.14913 62.7434 9.26464 63.9652C9.44629 63.724 9.58715 63.523 9.75901 63.3397C9.93087 63.1564 10.0286 63.0516 10.231 62.8576ZM2.64388 92.5656C2.88717 92.2895 3.10473 91.9914 3.29378 91.6752C3.55773 91.1064 3.41029 90.924 2.78342 90.9816C2.7257 90.9921 2.67158 91.0174 2.62627 91.0551L2.64388 92.5656ZM144.065 124.254L144.969 123.723C144.484 123.472 143.921 123.423 143.398 123.585C143.449 123.699 143.46 123.762 143.495 123.791C143.677 123.946 143.863 124.095 144.065 124.254ZM185.379 72.949C185.162 73.663 185.162 73.663 185.648 74.2979C185.497 73.7044 185.843 73.4481 186.289 73.264L186.245 73.102L185.379 72.949ZM1.16703 108.882C1.60815 108.488 1.87855 108.731 2.12067 109.066C2.14891 108.439 1.45222 108.633 1.27627 108.239L1.16703 108.882ZM144.043 95.461C144.6 95.557 144.362 95.0038 144.601 94.8818L145.276 94.7364C144.689 94.6192 144.293 94.8465 144.043 95.461ZM93.8726 45.0344L93.6987 44.952C93.2591 45.339 93.2591 45.339 93.5573 45.7046C93.6646 45.4817 93.7671 45.2648 93.8687 45.0512L93.8726 45.0344ZM95.1735 82.393L94.5722 81.9578C94.4116 82.4584 94.4116 82.4584 95.1735 82.393ZM10.1129 60.7618C10.1258 61.2245 10.1378 61.5384 10.1491 61.8557C10.2191 61.7818 10.2739 61.6946 10.3101 61.5992C10.3462 61.5038 10.3631 61.4022 10.3598 61.3002C10.3564 61.1983 10.3328 61.0982 10.2904 61.0057C10.248 60.9132 10.1877 60.8303 10.1129 60.7618ZM182.406 90.5729L182.459 90.5426C182.448 90.5089 182.432 90.4776 182.41 90.45C181.95 90.1004 181.81 90.0858 181.371 90.3917L182.406 90.5729ZM149.818 58.6248C150.398 58.2382 150.4 58.1362 149.923 57.7401C149.89 58.0049 149.861 58.2704 149.818 58.6248ZM154.488 110.973L154.53 111.156C154.781 111.147 155.152 111.501 155.22 110.763L154.488 110.973ZM181.225 119.429C181.898 119.202 181.898 119.202 181.657 118.694C181.52 118.924 181.409 119.118 181.224 119.433L181.225 119.429ZM6.69609 70.306L6.79662 70.5095L7.56463 70.2192L7.46894 70.0557L6.69609 70.306ZM180.186 111.789L181.005 111.521L180.185 111.333C180.185 111.485 180.186 111.588 180.186 111.789ZM95.0376 81.3363L95.1988 81.3062C95.2193 80.9573 95.3132 80.6252 94.9511 80.3546C94.9663 80.5126 95.0013 80.6679 95.0552 80.817C95.0658 80.9902 95.0599 81.1641 95.0376 81.3363ZM2.40138 102.945L2.37591 102.766L1.77878 102.816C1.81022 102.908 1.85465 103.081 1.87285 103.078C2.05111 103.043 2.22751 102.999 2.40138 102.945ZM182.74 118.19C182.874 117.927 182.984 117.708 183.095 117.486C182.513 117.469 182.503 117.513 182.74 118.19ZM65.0318 38.9273L65.2387 39.0491C65.3428 38.9189 65.4396 38.7829 65.5287 38.6419C65.5325 38.6251 65.4324 38.542 65.3817 38.4879L65.0318 38.9273ZM1.78428 104.685C1.55052 104.451 1.70594 104.034 1.31811 104.15C1.2348 104.177 1.24093 104.486 1.18768 104.717L1.78428 104.685ZM2.6693 103.092L2.49187 103.192L2.74074 103.727L2.92482 103.628L2.6693 103.092ZM92.8617 90.4089L92.797 90.5992L93.2811 90.8271C93.289 90.755 93.2796 90.6821 93.2536 90.6146C93.2276 90.547 93.1858 90.4869 93.1318 90.4392C93.0721 90.3936 92.9571 90.4061 92.8617 90.4089ZM148.497 119.007C148.216 118.702 148.216 118.702 147.942 118.95L148.497 119.007ZM145.041 121.749L144.823 121.812C144.871 121.939 144.918 122.067 144.975 122.2C145.019 122.194 145.062 122.18 145.101 122.159C145.102 122.017 145.076 121.884 145.061 121.75L145.041 121.749ZM146.804 119.063L146.681 119.127L146.877 119.525L147.016 119.455C146.958 119.325 146.886 119.195 146.822 119.05L146.804 119.063ZM2.31482 99.4457L2.49228 99.879C2.62685 99.5528 2.62685 99.5528 2.31482 99.4457ZM1.56192 99.4566L1.47515 99.6206L1.89803 99.8556C1.92018 99.795 1.93471 99.7318 1.94125 99.6675C1.82626 99.5881 1.69665 99.5265 1.56037 99.4633L1.56192 99.4566ZM139.187 131.507C139.436 131.95 139.591 131.699 139.76 131.544L139.187 131.507ZM138.456 133.511L139.01 133.956C138.858 133.486 138.858 133.486 138.456 133.511ZM145.563 91.4713L145.508 91.2994L145.012 91.4578L145.077 91.6495L145.563 91.4713ZM95.5295 53.0994C95.3297 53.0534 95.2198 53.0282 95.1554 53.0488C95.0504 53.1307 94.9591 53.2291 94.8851 53.3403C95.0644 53.3532 95.1487 53.3832 95.2105 53.3585C95.3283 53.2794 95.4367 53.1868 95.5334 53.0826L95.5295 53.0994ZM96.2478 51.4079L96.5127 51.2318L96.277 50.8841L96.1557 50.9694C96.1894 51.0974 96.2226 51.243 96.2517 51.3911L96.2478 51.4079ZM180.641 114.815L180.839 114.775L180.722 114.321C180.672 114.341 180.58 114.362 180.583 114.377C180.595 114.524 180.614 114.67 180.641 114.815ZM151.327 63.321C151.342 63.2539 151.377 63.1913 151.4 63.1256L150.858 62.9624L150.812 63.1639L151.327 63.321ZM2.81781 105.513L2.9118 105.287L2.39587 105.09L2.32653 105.255L2.81781 105.513ZM2.91137 110.92L2.70113 111.041L2.8991 111.462L3.077 111.389L2.91137 110.92ZM190.754 107.379C190.647 107.283 190.578 107.183 190.525 107.188C190.478 107.195 190.433 107.212 190.392 107.237C190.352 107.263 190.318 107.296 190.291 107.336C190.279 107.386 190.357 107.489 190.395 107.568L190.754 107.379ZM151.366 58.5386L151.433 58.3701L150.982 58.1674L150.902 58.3646L151.366 58.5386ZM151.493 59.512C151.395 59.4488 151.288 59.4025 151.174 59.375C151.124 59.3635 151.069 59.4675 151.018 59.5195C151.088 59.5806 151.166 59.6298 151.251 59.665C151.305 59.6772 151.371 59.6006 151.5 59.5135L151.493 59.512ZM180.16 107.2L179.887 107.368L180.163 107.689L180.409 107.519L180.16 107.2ZM150.12 60.8797C149.998 60.7385 149.93 60.6096 149.879 60.6157C149.829 60.6218 149.718 60.7236 149.64 60.787C149.689 60.8478 149.731 60.9422 149.793 60.9601C149.856 60.978 149.952 60.9259 150.12 60.8797ZM186.542 70.9389C186.297 70.589 186.19 70.7943 186.083 71.0171L186.542 70.9389ZM182.852 81.902L182.78 82.0765L183.096 82.2303L183.187 82.0462L182.852 81.902ZM140.011 131.064L140.117 130.936C140.02 130.862 139.919 130.792 139.814 130.729C139.798 130.725 139.739 130.796 139.703 130.83L140.011 131.064ZM145.452 92.6728L145.6 92.5334L145.269 92.2488L145.131 92.4222L145.452 92.6728ZM1.79668 93.704C1.70018 93.5899 1.62519 93.4737 1.60545 93.4833C1.52326 93.5346 1.44622 93.5939 1.37543 93.6603C1.42279 93.7136 1.46832 93.8054 1.5165 93.8094C1.56467 93.8134 1.67722 93.7509 1.79668 93.704ZM225.646 36.7608C225.523 36.6689 225.461 36.5875 225.417 36.5985C225.327 36.6304 225.242 36.6752 225.165 36.7316C225.22 36.7831 225.269 36.8757 225.325 36.8745C225.382 36.8733 225.496 36.8182 225.646 36.7608ZM105.373 113.026C105.704 112.608 105.621 112.482 105.223 112.458L105.373 113.026ZM179.869 95.312L179.638 95.3261L179.736 95.7552L179.898 95.7217L179.869 95.312ZM12.0612 58.4937L12.2105 58.3936L11.9612 58.0286L11.8497 58.102L12.0612 58.4937ZM182.981 119.43L183.097 119.372L182.88 118.926L182.749 118.991L182.981 119.43ZM196.522 129.508C196.39 129.58 196.272 129.62 196.272 129.652C196.287 129.743 196.318 129.832 196.363 129.913C196.429 129.886 196.537 129.872 196.546 129.831C196.554 129.723 196.546 129.614 196.522 129.508ZM3.51548 85.3539C3.62117 85.2296 3.69091 85.1855 3.6966 85.1303C3.6915 85.0578 3.67195 84.9872 3.63912 84.9226C3.57734 84.9473 3.46816 84.9646 3.46377 84.999C3.46617 85.119 3.48354 85.2383 3.51548 85.3539ZM196.344 128.36C196.098 128.441 195.993 128.548 196.298 128.806C196.32 128.605 196.334 128.481 196.344 128.36ZM11.8445 58.7656C11.7784 58.6868 11.7362 58.5958 11.688 58.5918C11.6529 58.5957 11.6192 58.608 11.5897 58.6277C11.5602 58.6473 11.5357 58.6738 11.5183 58.7048C11.5106 58.7384 11.5722 58.8516 11.6163 58.8582C11.6604 58.8648 11.7432 58.8096 11.8445 58.7656ZM181.471 97.7417C181.424 97.672 181.369 97.6083 181.307 97.5521C181.287 97.5475 181.187 97.588 181.189 97.6097C181.197 97.6815 181.213 97.7519 181.239 97.8192L181.471 97.7417ZM196.825 131.855L197.058 131.738C197 131.671 196.934 131.611 196.861 131.559C196.838 131.553 196.735 131.636 196.718 131.696C196.7 131.755 196.782 131.813 196.821 131.871L196.825 131.855ZM195.697 131.804C195.764 131.757 195.826 131.702 195.881 131.641C195.886 131.621 195.845 131.523 195.821 131.521C195.797 131.519 195.664 131.535 195.641 131.575C195.617 131.616 195.661 131.714 195.696 131.822L195.697 131.804ZM2.11346 87.6556L2.19616 87.7383L2.42545 87.5187L2.33097 87.4262L2.11346 87.6556ZM181.434 116.963C181.37 117.044 181.291 117.097 181.284 117.155C181.278 117.214 181.35 117.283 181.387 117.349C181.458 117.297 181.521 117.235 181.573 117.165C181.58 117.135 181.491 117.051 181.427 116.962L181.434 116.963ZM13.8695 55.3093L13.9651 55.2287L13.7268 54.9688L13.6565 55.0305L13.8695 55.3093ZM85.0604 108.688C84.964 108.772 84.8727 108.818 84.835 108.891C84.7972 108.964 84.8943 109.014 84.9319 109.079C85.0058 109.033 85.1006 109.001 85.1509 108.935C85.2012 108.869 85.1131 108.81 85.0671 108.69L85.0604 108.688ZM203.971 40.6563L203.972 40.8334L204.324 40.8294C204.314 40.7811 204.312 40.6993 204.292 40.6947C204.186 40.6749 204.079 40.6621 203.971 40.6563ZM181.667 92.4011L181.765 92.3881L181.742 92.061L181.608 92.0798L181.667 92.4011ZM95.7183 78.6637L95.7827 78.5512L95.5023 78.3524L95.394 78.5185L95.7183 78.6637ZM91.1389 95.816C91.0697 95.8426 91.001 95.8515 90.9964 95.8717C90.9933 95.9434 90.9967 96.0152 91.0067 96.0862C91.0495 96.0678 91.1156 96.0547 91.1259 96.0252C91.142 95.951 91.1477 95.8749 91.1428 95.7992L91.1389 95.816ZM191.896 58.6747L191.857 58.8426C191.997 58.8748 192.133 58.9062 192.273 58.9383L192.304 58.8039C192.174 58.7457 192.037 58.7143 191.906 58.6594L191.896 58.6747ZM183.085 81.4851C183.162 81.4074 183.249 81.3638 183.25 81.3145C183.251 81.2652 183.185 81.1863 183.151 81.1185C183.089 81.1608 182.991 81.1913 182.975 81.2443C182.959 81.2972 183.04 81.3582 183.095 81.4698L183.085 81.4851ZM144.782 93.3746L144.824 93.561L145.232 93.4604L145.202 93.3156L144.782 93.3746ZM97.0261 61.1451L97.0383 61.2752L97.4232 61.2329L97.4128 61.1102L97.0261 61.1451ZM183.376 80.7035L183.429 80.811L183.751 80.6621L183.694 80.543L183.376 80.7035ZM190.049 63.3072L190.043 63.1645L189.5 63.1776L189.508 63.3279L190.049 63.3072ZM186.56 71.4558L186.33 71.2685C186.289 71.3262 186.205 71.399 186.217 71.4405C186.258 71.5181 186.314 71.5872 186.38 71.6443L186.56 71.4558ZM5.59813 70.1704L5.61133 70.3114L6.00448 70.2638L5.99152 70.1371L5.59813 70.1704ZM151.189 62.3771L151.078 62.3126C151.019 62.4158 150.956 62.5216 150.897 62.6248C150.937 62.6453 150.977 62.6629 151.019 62.6774C151.079 62.5817 151.135 62.4777 151.189 62.3771ZM151.058 140.335L151.146 140.546L151.608 140.278L151.527 140.125L151.058 140.335ZM186.856 69.1933C186.805 69.256 186.765 69.3269 186.737 69.403C186.724 69.4601 186.799 69.5764 186.821 69.5743C186.905 69.5527 186.985 69.5201 187.061 69.4773L186.856 69.1933ZM1.69686 109.308L1.64742 109.279C1.61317 109.312 1.58517 109.351 1.5648 109.394C1.5445 109.46 1.52902 109.527 1.51849 109.596L1.69686 109.308ZM94.2486 82.9691C94.1928 83.0172 94.1436 83.0725 94.1022 83.1335C94.096 83.1604 94.1426 83.217 94.1682 83.2583C94.229 83.2216 94.2851 83.1775 94.3351 83.1269C94.3351 83.1269 94.2914 83.0426 94.2486 82.9691ZM1.83258 111.418L1.86036 111.297L1.56498 111.194L1.53643 111.318L1.83258 111.418ZM92.9417 88.6875L93.0558 88.6182L92.799 88.393L92.7477 88.4484L92.9417 88.6875ZM94.4398 85.2197L94.436 85.4345L94.8164 85.4123L94.8267 85.2909L94.4398 85.2197ZM181.384 107.825C181.501 107.76 181.609 107.731 181.614 107.694C181.609 107.602 181.59 107.511 181.556 107.426C181.495 107.451 181.387 107.461 181.378 107.498C181.362 107.605 181.359 107.714 181.371 107.822L181.384 107.825Z" fill="url(#paint0_linear_1_23583)"/>
<defs>
<linearGradient id="paint0_linear_1_23583" x1="157" y1="63" x2="68.5" y2="46" gradientUnits="userSpaceOnUse">
<stop stop-color="#423ED8"/>
<stop offset="1" stop-color="#7583FF"/>
</linearGradient>
</defs>
</svg>
