<svg xmlns="http://www.w3.org/2000/svg" width="260" height="151" viewBox="0 0 260 151" fill="none">
  <path d="M142.459 123.917C142.362 123.822 142.304 123.693 142.297 123.557C142.289 123.42 142.333 123.286 142.419 123.18C142.818 122.631 143.175 122.055 143.554 121.488C143.582 121.445 143.618 121.379 143.662 121.368C144.406 121.185 144.43 120.406 144.821 119.866L145.635 120.107L145.691 120.017C145.552 119.889 145.4 119.759 145.2 119.575C145.817 118.918 146.428 118.277 147.029 117.626C147.347 117.307 147.641 116.966 147.909 116.605C148.242 116.133 148.214 116.116 148.802 116.35C148.765 116.069 148.448 115.724 149.032 115.611C149.208 115.577 149.327 115.226 149.466 115.003C149.718 114.642 150.039 114.334 150.41 114.099C150.717 113.83 151.008 113.543 151.281 113.239C151.782 112.784 152.319 112.367 152.812 111.904C153.578 111.178 154.479 110.628 155.245 109.888C156.011 109.149 156.946 108.592 157.83 107.964C157.893 107.919 158.027 107.932 158.053 107.878C158.464 107.095 159.246 106.808 159.954 106.426C160.114 106.342 160.238 106.201 160.3 106.03C160.363 105.859 160.36 105.672 160.293 105.503C159.887 104.215 159.75 102.861 159.139 101.628C158.821 100.982 158.735 100.226 158.275 99.6186C157.869 99.1148 157.586 98.5218 157.449 97.8871C157.422 97.7464 157.262 97.5259 157.18 97.5318C156.541 97.5369 156.407 96.8837 155.962 96.6366C155.398 96.3268 155.024 95.8659 155.414 95.0362" fill="url(#paint0_linear_1_23583)"/>
  <defs>
    <linearGradient id="paint0_linear_1_23583" x1="157" y1="63" x2="68.5" y2="46" gradientUnits="userSpaceOnUse">
      <stop stop-color="#423ED8"/>
      <stop offset="1" stop-color="#7583FF"/>
    </linearGradient>
  </defs>
</svg>
