<svg width="87" height="80" viewBox="0 0 87 80" fill="none" xmlns="http://www.w3.org/2000/svg">
<path d="M44.1128 62.295C47.1567 60.8766 50.2005 59.4582 53.2501 58.0343C53.5341 57.9034 53.8513 57.8069 54.0741 57.6131C60.1894 52.2849 68.292 51.1145 75.2589 47.5698C75.8955 47.2415 76.8013 46.9962 77.4296 47.1977C78.4224 47.5232 79.8454 48.0979 80.048 48.8452C80.2609 49.6491 79.5194 51.2894 78.7582 51.6609C74.4293 53.7808 70.029 55.7813 65.5422 57.5436C59.569 59.903 53.5086 62.0692 47.4379 64.179C46.5422 64.492 45.3818 64.0737 44.34 63.9954C44.2699 63.4306 44.1885 62.8656 44.1128 62.295Z" fill="#FDD2CA"/>
<path d="M33.435 30.573C34.5884 24.9795 35.6581 19.3599 36.9889 13.8131C37.2113 12.8554 38.536 12.1651 39.3541 11.3591C40.1104 12.337 41.4992 13.2943 41.5299 14.2972C41.9067 24.9073 38.8318 34.6705 33.8758 43.9327C33.332 44.9575 33.14 46.1667 32.6039 47.1938C32.3564 47.6679 31.6782 47.9163 31.1937 48.2667C30.8342 47.7042 30.1003 47.0839 30.1656 46.5783C30.7084 42.6816 31.3701 38.8051 32.0722 34.9329C32.3417 33.4472 32.8011 31.9955 33.1743 30.5254C33.2704 30.5386 33.3489 30.5546 33.435 30.573Z" fill="#FDD2CA"/>
<path d="M19.5504 31.5312C18.577 28.4574 17.7105 26.1681 17.1455 23.8221C16.5804 21.4762 16.1831 19.0738 15.995 16.6697C15.9153 15.6098 16.3036 13.7687 16.9096 13.5647C17.8887 13.2344 19.3713 13.7284 20.3843 14.3102C21.1193 14.7389 21.5377 15.8372 21.9263 16.7092C23.3598 19.9678 22.4458 28.2569 19.5504 31.5312Z" fill="#FDD2CA"/>
<path d="M42.8029 42.8594C43.7748 41.0744 44.7665 38.9033 46.1139 36.9845C46.6381 36.2375 48.0177 35.6393 48.8901 35.76C49.4666 35.839 50.2952 37.3903 50.2238 38.2112C49.7497 43.6068 46.6641 47.8154 43.5676 51.9789C43.2976 52.3374 42.1956 52.5794 41.9922 52.3743C41.5597 51.9395 41.1874 51.1226 41.2763 50.5408C41.6598 48.0972 42.2255 45.6852 42.8029 42.8594Z" fill="#FDD2CA"/>
<path d="M69.424 33.4119C71.5328 34.2698 73.4452 32.8085 73.7304 33.6709C74.7411 36.0318 71.0357 36.3712 70.4648 38.0886C70.5076 39.7469 72.4409 42.483 70.4373 43.5855C68.5843 43.977 68.5547 41.3654 67.5529 40.4173C66.493 39.7996 61.5461 44.8009 59.7273 42.1435C58.7369 38.1308 64.3465 37.6201 60.2722 35.8919C58.7194 35.1573 58.4953 32.3379 60.7651 33.0103C61.1376 33.1554 61.35 33.0423 61.5397 32.7656C62.5211 32.3669 63.9373 32.5634 65.0151 32.7123C66.1965 32.7103 66.9969 31.0025 68.2586 30.9817C69.7785 30.8794 69.9941 32.1381 69.424 33.4119Z" fill="#FDD2CA"/>
</svg>
